<?xml version="1.0" encoding="UTF-8" standalone="no"?>
<!-- Created with Inkscape (http://www.inkscape.org/) -->

<svg
   xmlns:dc="http://purl.org/dc/elements/1.1/"
   xmlns:cc="http://creativecommons.org/ns#"
   xmlns:rdf="http://www.w3.org/1999/02/22-rdf-syntax-ns#"
   xmlns:svg="http://www.w3.org/2000/svg"
   xmlns="http://www.w3.org/2000/svg"
   xmlns:sodipodi="http://sodipodi.sourceforge.net/DTD/sodipodi-0.dtd"
   xmlns:inkscape="http://www.inkscape.org/namespaces/inkscape"
   width="64"
   height="35"
   viewBox="0 0 63.999999 35.000001"
   id="svg4204"
   version="1.1"
   inkscape:version="0.91 r13725"
   sodipodi:docname="logo-white-emblem.svg">
  <defs
     id="defs4206" />
  <sodipodi:namedview
     id="base"
     pagecolor="#ffffff"
     bordercolor="#666666"
     borderopacity="1.0"
     inkscape:pageopacity="0.0"
     inkscape:pageshadow="2"
     inkscape:zoom="5.6"
     inkscape:cx="20.128053"
     inkscape:cy="9.3716886"
     inkscape:document-units="px"
     inkscape:current-layer="layer1"
     showgrid="false"
     units="px"
     inkscape:window-width="1366"
     inkscape:window-height="705"
     inkscape:window-x="0"
     inkscape:window-y="27"
     inkscape:window-maximized="1" />
  <metadata
     id="metadata4209">
    <rdf:RDF>
      <cc:Work
         rdf:about="">
        <dc:format>image/svg+xml</dc:format>
        <dc:type
           rdf:resource="http://purl.org/dc/dcmitype/StillImage" />
        <dc:title></dc:title>
      </cc:Work>
    </rdf:RDF>
  </metadata>
  <g
     inkscape:label="Livello 1"
     inkscape:groupmode="layer"
     id="layer1"
     transform="translate(0,-1017.3622)">
    <path
       inkscape:connector-curvature="0"
       id="path3038"
       d="m 18.05918,1017.3622 c -9.99503,0 -18.05918,7.8043 -18.05918,17.5 0,9.6957 8.06415,17.5 18.05918,17.5 l 17.83895,0 0,-11.7394 -10.87956,0 -2.51066,2.4875 c 0.20218,0.4031 0.35237,0.8298 0.35237,1.3093 0,1.6921 -1.41948,3.0548 -3.12732,3.0548 -1.70785,0 -3.08328,-1.3627 -3.08328,-3.0548 0,-1.6921 1.37543,-3.0549 3.08328,-3.0549 0.47886,0 0.91282,0.114 1.3214,0.3055 l 3.12733,-3.0549 11.71644,0 0,-3.9713 -21.80316,0 c -0.4252,1.1887 -1.51754,2.0511 -2.86304,2.0511 -1.70785,0 -3.12733,-1.3627 -3.12733,-3.0548 0,-1.6921 1.41948,-3.0549 3.12733,-3.0549 1.3455,0 2.43784,0.8624 2.86304,2.0511 l 21.80316,0 0,-0.3491 -1.27735,-1.2656 -13.87474,0 -2.46663,-2.4439 -1.54163,-1.5274 -1.80592,-1.8329 -0.044,0 c -0.18935,0.075 -0.4022,0.1309 -0.61666,0.1309 -0.91658,0 -1.67378,-0.7502 -1.67378,-1.6584 0,-0.9081 0.7572,-1.6147 1.67378,-1.6147 0.91658,0 1.67378,0.7066 1.67378,1.6147 0,0.2125 -0.0569,0.4234 -0.13207,0.611 -0.006,0.013 0.006,0.031 0,0.044 l 1.84997,1.8329 1.54163,1.5275 2.0702,2.0511 12.06883,0 -2.20234,-2.1821 -7.75224,0 -3.3916,-3.3603 -0.044,0 c -0.18817,0.073 -0.4022,0.1309 -0.61666,0.1309 -0.91658,0 -1.62973,-0.7502 -1.62973,-1.6583 0,-0.9082 0.71315,-1.6584 1.62973,-1.6584 0.91658,0 1.67378,0.7502 1.67378,1.6584 0,0.2124 -0.0581,0.4245 -0.13207,0.6109 -0.006,0.013 0.006,0.031 0,0.044 l 3.03923,2.9676 7.75224,0 4.22849,4.1895 0,-13.1359 -17.83896,0 z m 20.6139,0 0,15.2743 0,2.0075 0,17.7182 7.26772,0 c 9.99503,0 18.05919,-7.8043 18.05919,-17.5 0,-9.6957 -8.06416,-17.5 -18.05919,-17.5 l -7.26772,0 z"
       style="display:inline;fill:#ffffff;fill-opacity:1"
       inkscape:export-filename="/home/gabmus/Video/Tech Pills/pill3000x.png"
       inkscape:export-xdpi="4219.7144"
       inkscape:export-ydpi="4219.7144" />
  </g>
</svg>
