<?xml version="1.0" encoding="utf-8"?>
<!-- Generator: Adobe Illustrator 19.1.0, SVG Export Plug-In . SVG Version: 6.00 Build 0)  -->
<svg version="1.1" id="Livello_1" xmlns="http://www.w3.org/2000/svg" xmlns:xlink="http://www.w3.org/1999/xlink" x="0px" y="0px"
	 viewBox="0 0 221.6 244.4" style="enable-background:new 0 0 221.6 244.4;" xml:space="preserve">
<style type="text/css">
	.st0{fill:#FFFFFF;}
</style>
<g>
	<path class="st0" d="M93,193.1c0-0.3,0.1-0.5,0.1-0.8c-0.6-0.2-0.9,0.5-1.5,0.5c0.4-0.4,0.7-0.8,1.1-1.2c0.5-0.4,1-0.8,1.5-1.2
		c0.2-0.1,0.4-0.2,0.5-0.4c0.3-0.5,0.6-0.9,1.1-1.2c0.1-0.6,1-0.8,0.9-1.5c0-0.1,0.2-0.2,0.2-0.2c0.8,0.1,1.1-0.6,1.6-1.1
		c0.2-0.2,0.1-0.6,0-0.9c-0.9,0.3-1.1,1.1-1.7,1.6c-0.2-0.2-0.3-0.4-0.1-0.6c0.2-0.2,0.2-0.5,0.3-0.7c0.2-0.5,0.5-1,0.7-1.5
		c0,0,0.1,0,0.1,0c0,0.3-0.1,0.5-0.1,0.8c0,0,0.1,0,0.1,0c0.1-0.1,0.2-0.3,0.3-0.4c0,0,0.1,0,0.2,0.1c0.6-0.7,1.3-1.5,1.9-2.3
		c-0.5-0.4-0.5-0.4-0.8,0c-0.4,0.5-0.8,1-1.2,1.6c-0.1-0.1-0.2-0.2-0.3-0.3c-0.1,0-0.2,0-0.3,0.1c0.5-0.5,1.1-1,1.5-1.5
		c0.5-0.6,0.9-1.3,1.3-2c0.3-0.4,0.6-0.7,0.8-1.1c0.2-0.3,0.3-0.8,0.6-1.1c0.4-0.4,0.6-0.9,0.8-1.4c0.1-0.2,0.1-0.5,0.1-0.8
		c-0.1,0-0.1-0.1-0.2-0.1c0.3-0.3,0.7-0.6,1-1c0.2-0.3,0.5-0.6,0.5-1c0.1-0.4,0.3-0.7,0.5-1.1c0.2-0.3,0.3-0.7,0.5-1
		c0.3-0.8,0.7-1.5,1-2.3c0.1-0.2,0.1-0.4,0.1-0.6c0-0.1,0-0.2,0.1-0.3c0.1-0.2,0.2-0.5,0.2-0.7c-0.7,0.3-0.9,1.1-1.3,1.7
		c-0.1-0.7,0.4-1.1,0.5-1.5c-0.2-0.8-0.3-1.4-0.4-2.1c0-0.4,0.4-0.7,0.7-0.9c0.2-0.1,0.5-0.3,0.7-0.5c-0.2,0-0.4-0.1-0.7-0.1
		c0.3-0.7,0.6-1.5,1-2.2c0.1-0.3,0.2-0.5-0.1-0.6c0.6-1,0.9-2.1,1.1-3.2c0.1-0.8,0.4-1.6,0.5-2.4c0.1-0.2,0.1-0.5,0.2-0.7
		c0.4-1.3-0.2-2.2-1.1-3c-0.5-0.4-1.1-0.3-1.6-0.2c-0.5,0-0.9,0.1-1.4,0.1c0,0,0-0.1-0.1-0.2c-0.4,0.2-0.9,0.3-1.3,0.5
		c-0.4,0.3-0.7,0.6-1.3,0.5c0.4-0.3,0.6-0.6,0.9-0.9c-0.4-0.2-0.4-0.2-0.8,0c-0.4-0.4-0.5-0.4-0.9-0.1c-0.3,0.2-0.6,0.3-0.8,0.4
		c-0.7,0-1.1,0.6-1.7,0.7c-0.2,0-0.3,0.1-0.5,0.1c-0.5,0-0.9,0.1-1.1,0.6c-0.1,0-0.2,0-0.3,0c-0.5,0-0.9,0.1-1.1,0.7
		c-0.3,0.9-0.9,1.6-1.5,2.3c-0.2,0.2-0.4,0.3-0.7,0.5c-0.2-0.3-0.2-0.5,0.1-0.7c0.2-0.1,0.3-0.3,0.5-0.4c0.5-0.4,0.5-0.4,0.2-1.1
		c-0.6,0.1-1.1,0.5-1.5,0.9c-0.4,0.3-0.8,0.7-1,1.2c-0.3,0.6-0.9,0.9-1.5,1.1c-0.1,0.4-0.2,0.7-0.6,0.8c-0.1,0-0.2,0.1-0.2,0.2
		c-0.2,0.5-0.6,0.7-1.1,0.9c-0.5,0.2-0.9,0.8-1.3,1.2c-0.4,0.5-0.7,1-1.1,1.5c-0.2,0.3,0-0.3,0,0c0,0.7,0.1,2.1,0.5,2.7
		c0.1,0.1,0.1,0.3,0.1,0.4c0.1,0.7,0.1,1.5,0.3,2.2c0.1,0.2,0,0.4-0.1,0.6c-0.2,0.4,0.3,0.8,0.5,1.3c0.1,0.1,0,0.4-0.1,0.5
		c-0.2,0.4,0.4,0.7,0.7,1c0.3,0.3,0.4,0.7,0.1,1.2c-0.1,0.3-0.1,0.7-0.1,1c0,1,0.9,2.1,1.2,3.1c0.3,0.9-0.3,1.8,0,2.7
		c0.5,0.4,0.2,1.1,0.6,1.5c0.1,0.1,0.1,0.2,0.1,0.3c-0.2,0.5,0,1.1-0.3,1.7c-0.1,0.2-0.1,0.4-0.1,0.6c-0.1,0.2-0.2,0.3-0.3,0.5
		c0.1,0.2,0.2,0.4,0.3,0.6c0.1,0.1,0.2,0.3,0.2,0.5c-0.2,0.9-1.5,2.2-1.7,3.1c0,0.1-0.2,0.2-0.3,0.3c-0.3,0.2-1.6,0.5-1.4,0.9
		c0,0.1,0,0.2-0.1,0.3c-0.2,0.5-0.5,0.9-0.8,1.4c-0.9-0.4-1.6-0.9-1.7-2c0-0.2-0.1-0.4-0.2-0.5c-0.8-0.8-1.1-1.9-1.7-2.8
		c-0.3-0.4-0.4-0.9-0.4-1.4c0-0.4-0.1-0.6-0.4-0.8c-0.5-0.5-0.5-1.1,0-1.5c0.4-0.3,0.3-0.5,0.1-0.9c-0.1,0.1-0.3,0.2-0.5,0.3
		c-0.1-0.3-0.1-0.5-0.2-0.7c-0.1-0.3-0.1-0.7-0.5-0.9c-0.1,0-0.1-0.2-0.2-0.3c-0.4-1-0.7-2-1.1-2.9c-0.1-0.4-0.4-0.7-0.6-1
		c-0.3,0.2-0.3,0.2-0.2,0.5c-0.2,0-0.4,0.1-0.6,0.1c-0.2-0.5-0.3-0.9-0.5-1.4c0.1,0,0.3,0.1,0.5,0.2c0-0.1,0-0.3,0-0.3
		c-0.2-0.2-0.3,0.1-0.4,0.2c0-0.2-0.1-0.3-0.2-0.5c0.4-0.1,0.8-0.1,1.2-0.2c0-0.2,0-0.4-0.1-0.5c-0.1-0.2-0.3-0.5-0.4-0.4
		c-0.2,0.1-0.4,0.3-0.6,0.5c-0.1,0.1-0.1,0.2-0.3,0.4c-0.1-0.5-0.2-0.9-0.3-1.5c0.5-0.7,0.3-1.4-0.6-1.7c0.1-0.1,0.2-0.2,0.3-0.3
		c0.6-0.6,0.6-0.6,0.7-1.3c-0.2-0.3-0.4-0.6-0.4-0.8c0-0.5-0.1-1-0.3-1.6c-0.3-0.7-0.4-1.4-0.7-2.2c-0.3,0.3-0.4,0.6-0.2,1
		c0.1,0.2,0.2,0.4,0.1,0.6c0,0.1,0,0.3,0,0.4c0.1,0.4,0.3,0.8,0.5,1.2c-0.4,0.2-0.7,0.3-1.1,0.5c0-0.4,0.1-0.7,0.1-1.1
		c0-0.1-0.2-0.1-0.3-0.2l0,0c0.1-0.3,0.3-0.5,0.4-0.9c-0.2-0.4-0.3-0.9-0.6-1.5c-0.8,0.5-1.6,1-2.4,1.3c-0.8,0.3-1.5,0.8-2.4,1.1
		c-0.1,0.2-0.2,0.4-0.3,0.7c-0.6-0.2-1,0.2-1.3,0.6c-0.2,0.2-0.4,0.3-0.6,0.4c-0.8,0.3-1.5,0.7-2.1,1.2c-0.9,0.7-1.9,1.3-2.9,1.9
		c-1.1,0.7-2.3,0.8-3.6,0.5c-0.2-0.1-0.4-0.1-0.7-0.1c0.4-0.4,0.6-0.7,1-1c-0.2-0.1-0.4-0.1-0.5-0.2c0.2-0.5,0.4-0.9,1.1-0.9
		c0.4,0,0.9-0.5,1.2-0.8c0.6-0.5,1.1-1,1.7-1.5c1.2-1.1,2.5-2.3,3.7-3.4c0.1-0.1,0.3-0.2,0.5-0.3c0.3-0.2,0.7-0.5,1-0.7
		c1-0.6,1.9-1.3,2.9-1.9c0.7-0.5,1.4-0.9,2.1-1.4c0.4-0.2,0.8-0.5,1.2-0.8c-0.2-0.2-0.4-0.4-0.3-0.7c0.1-0.3-0.3-0.4-0.4-0.4
		c-0.1-0.3-0.2-0.6-0.3-0.9c-0.1-0.3-0.1-0.5-0.1-0.8c0-0.3,0.1-0.6,0-0.9c-0.4-1.5-0.7-3-0.9-4.5c-0.2-1.3-0.6-2.6-0.6-3.9
		c0-0.4-0.4-0.6-0.2-1c0.1-0.3-0.2-0.7-0.4-1c-0.1-0.2-0.1-0.4,0-0.6c0.2-0.3,0.1-0.7-0.2-1c-0.1,0.1-0.2,0.2-0.4,0.3
		c-0.1-0.2-0.1-0.5-0.2-0.7c0.5-0.5,0.5-1.1,0.3-1.8c-0.2-0.6-0.3-1.1-0.4-1.7c-0.4,0.2-0.8,0.3-1.1,0.5c-0.3-0.8,0.6-1,0.7-1.6
		c-0.1,0-0.2,0-0.2-0.1c-0.2-0.1-0.5-0.3-0.7-0.2c-0.2,0.1-0.3,0.4-0.4,0.6c-0.7,0.7-1.4,1.5-2.4,2.1c-0.1,0.1-0.3,0.2-0.3,0.2
		c0.1,0.4-0.2,0.6-0.5,0.8c-0.2,0.1-0.1,0.4-0.3,0.7c-0.6,0.8-1.2,1.4-2.1,1.9c-0.2,0.1-0.3,0.3-0.4,0.4c-0.1,0.1-0.3,0.2-0.5,0.2
		c0.4-0.6,0.7-1.2,1.1-1.7c0.2-0.3,0.3-0.5,0.1-0.8c-0.4-0.1-0.6,0-0.7,0.4c-0.1,0.3-0.3,0.7-0.4,1c-0.1,0.4-0.3,0.8-0.7,1.1
		c-0.6,0.3-1.1,0.7-1.4,1.4c0,0.1-0.2,0.2-0.4,0.3c0-0.2,0-0.5,0.1-0.7c0.3-0.6,0.3-0.6-0.4-0.9c0,0.5-0.8,0.7-0.6,1.4
		c0.2,0,0.3,0,0.5,0.1c-0.2,0.8-0.8,1.2-1.4,1.8c0-0.3,0-0.5-0.1-0.9c-0.2,0.1-0.4,0.2-0.6,0.3c-0.5,0.5-1,1.1-1.5,1.6
		c-0.4,0.4-0.6,1-1.2,1.3c-0.2,0.1-0.2,0.5-0.2,0.7c-0.2-0.3-0.2-0.3-0.1-1c-0.5,0.4-1,0.5-0.9,1.2c-0.5,0.6-0.5,1.5-1.4,2
		c-0.8,0.4-1.4,1.2-2.2,1.7c-0.7,0.4-1.2,1.2-1.8,1.7c-0.3,0.2-0.5,0.5-0.4,1c0,0.2,0,0.4-0.1,0.6c-0.2,0.5-0.3,0.6-0.9,0.5
		c-0.3,0-0.6,0-0.9,0c-0.8,0-1.7-0.1-2.5,0c-0.3,0-0.6-0.1-0.7-0.3c-0.2-0.3-0.4-0.4-0.8-0.4c0-0.2-0.1-0.4-0.1-0.6
		c-0.3,0-0.6,0-0.9,0c0,0,0-0.1,0-0.1c0.2-0.1,0.3-0.2,0.5-0.3c-0.1,0-0.1-0.1-0.2-0.1c-0.3,0-0.4-0.1-0.4-0.4c0.1,0,0.2,0,0.3,0
		c0.4,0.2,0.7,0,1-0.3c0.8-1,1.5-2.1,2.1-3.3c0.3-0.5,0.6-1.1,0.9-1.7c0,0.2,0.1,0.3,0.1,0.5c0.8-1,1.6-2,2.4-3
		c0.1,0,0.3,0.1,0.4,0.1c0.1-0.2,0.2-0.4,0.2-0.6c0.2-0.8,0.6-1.1,1.4-1.2c0.3,0,0.6-0.2,0.8-0.4c0.3-0.3,0.8-0.5,1-1
		c0.2-0.4,0.5-0.8,0.7-1.3c0.2-0.4,0.4-0.9,0.6-1.3c1.5-0.1,2-0.6,1.7-1.7c0.6-0.4,1.2-0.8,1.9-1.3c0.2,0.1,0.3,0.1,0.6,0.3
		c-0.2-0.8,0.2-1.1,0.8-1.3c0.4-0.2,0.7-0.5,1.1-0.8c0.2-0.2,0.4-0.5,0.3-0.7c-0.2-0.5,0.1-0.5,0.4-0.8c0.1,0.2,0.1,0.3,0.2,0.4
		c0.4-0.2,0.8-0.4,0.9-0.9c0.1-0.2,0.2-0.4,0.4-0.6c1.1-0.8,2.2-1.6,3.3-2.4c0.1-0.1,0.2-0.1,0.2-0.1c0.1,0.5-0.3,0.8-0.5,1.4
		c0.2-0.1,0.4-0.2,0.5-0.3c0.1-0.2,0.3-0.4,0.4-0.5c0.2-0.3,0.5-0.6,0.8-0.4c0.3-0.3,0.6-0.6,0.9-0.9c0.3-0.2,0.5-0.4,0.7-0.6
		c-0.1-0.4-0.1-0.7-0.2-1.1c0.5,0,0.9-0.3,1.5-0.1c0.3,0.1,0.7-0.2,1.1-0.4c0.1,0,0.2,0.1,0.4,0.1c0.2,0,0.3-0.1,0.5-0.2
		c1-0.6,2.1-1.2,3.1-1.7c0.4-0.2,0.7-0.5,0.9-1c0.1-0.3,0.6-0.7,0.9-0.7c1.1-0.2,1.7-0.9,2.2-1.7c0.2-0.2,0.8-0.5,1.4-0.5
		c-0.1,0.1-0.2,0.2-0.2,0.3c-0.3,0.1-0.5,0.2-0.5,0.5c0,0.2-0.2,0.3-0.4,0.4c-0.2,0.2-0.5,0.3-0.5,0.7c0,0.1-0.2,0.2-0.3,0.3
		c-0.2,0.1-0.3,0.2-0.5,0.3c0.2,0.3,0.5,0.3,0.7,0.1c0.6-0.4,1.2-0.9,1.8-1.4c0.1-0.1,0.1-0.3,0.1-0.4c0.2-0.5,0.3-1.1,1-1.1
		c0.1,0,0.2,0,0.3-0.1c0.5-0.6,1.2-0.4,1.8-0.5c0.5-0.1,1.1-0.3,1.6-0.5c0.3-0.1,0.6-0.2,0.8-0.3c0.2-0.1,0.5-0.2,0.8-0.3
		c-0.1-0.2-0.1-0.4-0.2-0.5c1.1-0.1,2.2,0.1,3.2-0.1c0.1-0.3,0.1-0.5,0.2-0.7c0.1-0.6,0.7-1.1,0.5-1.8c0,0,0.1-0.1,0.2-0.2
		c0,0.2-0.1,0.4,0.1,0.6c0.2-0.5,0.2-0.5-0.2-0.5c0-0.2,0.2-0.5,0.1-0.6c-0.3-0.5-0.4-0.9-0.4-1.4c0-0.1-0.1-0.1-0.1-0.2
		c-0.3,0.5,0.1,0.8,0,1.1l0,0c-0.3,0-0.5,0-0.8,0c-0.1-0.2-0.2-0.4-0.3-0.6c-0.1,0-0.1,0-0.2,0c0,0.3,0.1,0.6,0.1,0.9
		c-0.6-0.4-0.3-1-0.3-1.6c-0.1-0.1-0.3-0.2-0.5-0.3c0.3-0.4-0.1-0.6-0.2-0.9c-0.2-0.5-0.2-1.1-0.5-1.5c-0.6-1-0.4-2-0.6-3.1
		c-0.1-0.3,0.2-0.7-0.1-1c0,0,0.1-0.3,0.2-0.4c0.4-0.1,0.5-0.4,0.4-0.8c-0.1-0.3,0-0.5,0.4-0.5c0.2,0.5-0.2,1.1,0.2,1.6
		c0.3-0.1,0.3-0.3,0.3-0.5c0-0.4-0.1-0.9-0.1-1.3c0-0.2-0.2-0.4-0.3-0.5c-0.2-0.4-0.2-0.8-0.1-1.3c-0.9,0-0.8-0.7-1-1.3
		c0.5,0.2,0.3,0.5,0.4,0.7c0.2-0.4,0.4-0.8,0.6-1.2c0.1,0.1,0.1,0.2,0.2,0.3c0-0.7,0-1.3,0.1-1.9c0-0.2,0.6-0.3,0.2-0.7
		c-0.4,0.1-0.4,0.4-0.2,0.7c0,0-0.1,0-0.1,0c-0.4,0-0.1,0.6-0.5,0.6c-0.3,0-0.5-0.2-0.6,0.4c-0.1-0.4-0.2-0.7-0.2-0.9
		c1-0.5,0.6-1.3,0.5-2c-0.2,0-0.3,0-0.5,0c0.1-0.9,0.6-1.7,0.2-2.6c-0.1,0-0.1,0.1-0.2,0.1c-0.2,0.1-0.3,0.1-0.5,0.2
		c0-0.2-0.1-0.3-0.1-0.5c-0.1-0.8-0.2-1.5-0.2-2.3c0-0.6,0-1.1-0.1-1.7c-0.1-0.6-0.2-1.2-0.2-1.9c-0.2,0-0.3,0.1-0.5,0.1
		c-0.1-0.1-0.3-0.3-0.6-0.5c0.7-1,0.4-2.2,0.3-3.4c0-0.2-0.2-0.5-0.3-0.7c0.4-0.6,0.4-0.6-0.5-1.4c0.1-0.1,0.2-0.2,0.3-0.2
		c0.3-0.2,0.4-0.4,0.4-0.7c0-0.3-0.1-0.6-0.1-0.9c0-0.4,0-0.7-0.1-1.2c-0.1-0.1-0.2-0.2-0.4-0.3c0.2-0.6,0.2-0.6-0.5-0.9
		c0-0.1,0-0.3,0-0.4c0-0.9,0-1.8,0-2.6c0-0.3-0.1-0.5,0.1-0.8c0.1-0.1,0-0.2,0-0.3c-0.3-0.9-0.3-1.9-0.3-2.8c0-0.3-0.2-0.6-0.3-0.9
		c0.4-0.9,0.1-2,0.1-3.1c0-0.4,0-0.8,0-1.2c0-0.5-0.1-1-0.1-1.5c0-0.1,0-0.2,0-0.3c0.2-0.9-0.1-1.8-0.1-2.7c0.1-1-0.1-2-0.1-3
		c0-0.7,0.1-1.3,0.1-2c0-0.2-0.1-0.5-0.1-0.8c-0.8,0.3-1.6,0.6-2.3,0.8c-0.3,0.1-0.6,0.1-0.9,0.2c-0.3,0.1-0.6,0.1-0.9,0.2
		c-0.2,0.1-0.4,0.3-0.6,0c0,0-0.2,0-0.3,0c-0.4,0.2-0.9,0.4-1.3,0.5c-0.1,0-0.2,0.1-0.2,0.1c-0.3,0.6-0.8,0.8-1.4,0.9
		c-0.5,0.1-1.1,0.3-1.6,0.5c-0.3,0.1-0.6,0.4-0.7,0.6c-0.1,0.6-0.7,0.6-0.9,1c-0.3,0.4-0.8,0.5-1.2,0.5c-0.2,0-0.3,0.2-0.5,0.3
		c-0.5,0.5-1.2,0.7-1.9,0.8c-0.2,0-0.4,0.1-0.5,0.3c-0.3,0.4-0.6,0.8-0.9,1.3c-0.3,0.4-0.4,0.4-0.8-0.2c0.2-0.1,0.4-0.3,0.7-0.4
		c-0.3-0.2-0.5,0-0.6,0c-0.4,0.2-0.6,0.1-0.8-0.2c-0.3-0.4-0.7-0.8-1-1.3c-0.4-0.5-0.7-1.1-1.1-1.6c-0.4-0.5-0.5-0.6-1-0.3
		c-0.7,0.3-1.5,0.3-2.2,0.5c-0.3,0.1-0.6,0.2-0.8,0.5c-0.2,0.2-0.3,0.4-0.5,0.5c-0.6,0.3-1.2,0.6-1.9,0.9c-0.1-0.2-0.2-0.4-0.3-0.5
		c-0.6,0.2-1.1,0.4-1.7,0.6c-0.1,0-0.2,0-0.2,0.1c-0.2,0.6-0.8,0.7-1.3,0.8c-0.1,0-0.2,0.1-0.3,0.1c-0.7,0.1-1.5-0.3-2.1,0
		c-0.2-0.3-0.3-0.6-0.4-0.8c-0.1-0.3-0.2-0.6,0.1-0.9c0.1-0.1,0.1-0.2,0.2-0.3c-0.4-0.1-0.7-0.3-1-0.3c-0.5,0-0.7-0.3-1-0.6
		c-0.3-0.3-0.2-0.7-0.2-1c-0.1-0.1-0.3-0.2-0.4-0.3c0.1-0.2,0.1-0.3,0.2-0.5c0.2-0.6,0.3-1.2,0.5-1.9c-0.3-0.5-0.3-0.5-1-0.4
		c-0.1,0.4-0.1,0.8-0.6,1c-0.4-0.3-0.3-0.8-0.4-1.2C45,60.3,45,60,44.9,59.8c0-0.2-0.1-0.4-0.2-0.5c-0.1-0.2-0.2-0.3-0.2-0.5
		c-0.2-0.9,0-1.2,0.8-1.4c0,0,0-0.1,0-0.1c-0.6-0.2-0.9-0.6-0.8-1.3c0.1-0.4,0-0.8,0-1.2c0-0.1,0-0.3,0.1-0.3c0.1-0.1,0.3,0,0.4,0
		c0.3,0.3,0.6,0.3,0.9,0.3c0.5,0,0.9,0.1,1.4,0.1c0.6,0,1.2,0,1.7-0.1c0.7-0.1,1.5-0.2,2.2-0.4c0.5-0.1,1-0.4,1.4-0.5
		c0.3-0.1,0.6-0.3,1-0.2c0.3,0.1,0.6-0.1,1-0.2c0.1-0.3,0.3-0.5,0.7-0.6c0.7-0.2,1.5-0.5,2.2-0.8c0,0.2,0,0.4-0.1,0.7
		c1-0.3,1.8-0.6,2.7-0.9c0.4-0.1,0.8-0.3,1.2-0.4c0.5-0.2,1-0.4,1.5-0.5c1.4-0.4,2.8-0.9,4.3-1.4c0.5-0.2,1.1-0.3,1.7-0.4
		c0.4-0.8,1.2-0.4,2-0.6c-0.2,0.2-0.2,0.3-0.3,0.4c-0.1,0.1-0.1,0.2-0.2,0.3c0.4,0.4,0.6,0.5,0.9,0.2c0.7-0.6,1.5-0.3,2.3-0.4
		c-0.2,0.1-0.4,0.2-0.6,0.4c0,0.1,0,0.1,0,0.2c0.5,0,0.9,0,1.5,0c-0.1-0.3-0.2-0.5-0.3-0.7c0.5-0.1,1-0.3,1.4-0.4c0,0,0-0.1,0-0.1
		c-0.1,0-0.3,0-0.4,0c0.7-0.4,1.4-0.8,2.2-1.2c0.4,0.5-0.2,0.6-0.3,0.8c0.2,0.2,0.4,0.1,0.5,0c0.3-0.4,0.6-0.8,0.9-1.3
		c0.1,0.1,0.2,0.2,0.3,0.4c0.4-0.2,0.8-0.4,1.3-0.6c0-0.2-0.1-0.4-0.1-0.7c0.2-0.1,0.5-0.3,0.8-0.5c-0.1-0.1-0.1-0.3-0.2-0.5
		c0.5,0,0.9-0.3,1.3,0.1c0.1,0.1,0.2,0.1,0.3,0c0.5-0.1,0.9,0,1.3,0.2c0.1,0,0.1,0.1,0.2,0.1c0.3,0.1,0.7,0,1,0.2
		c0.3,0.2,0.4,0.6,0.6,0.8c0.5,0.4,0.7,0.2,1-0.3c0.4-0.6,1-1.1,1.7-1.3c0.4-0.1,0.9-0.3,1.3-0.5c-0.3-0.4-0.7-0.2-1.1-0.4
		c0.3-0.1,0.4-0.1,0.6-0.1c0.3-0.1,0.6-0.1,0.9-0.2c0.6-0.3,1.1-0.6,1.7-0.8c0.1-0.1,0.3-0.1,0.5-0.1c0.3,0,0.6,0,1,0
		c-0.3,0.3-0.8,0.4-1.2,0.5c-0.3,0.1-0.7,0.1-0.8,0.6c0.3,0,0.5,0,0.7,0c0.2,0.4-0.3,0.4-0.4,0.5c-0.2,0.1-0.4,0.2-0.6,0.3
		c0.4-0.2,0.9,0.2,1.2-0.4c0.2-0.3,0.8-0.4,1.2-0.6c0.2-0.1,0.4-0.2,0.6-0.2c0.4-0.1,0.8-0.3,0.9-0.9c0.2,0.2,0.4,0.3,0.6,0.5
		c0.1-0.3,0.2-0.5,0.3-0.7c0.6,0,1.1-0.2,1.7-0.4c0.6-0.2,1.3-0.4,2-0.5c0.6-0.1,1.2-0.3,1.8-0.5c0.2-0.1,0.3-0.3,0.4-0.5
		c0.1-0.2,0.3-0.2,0.5-0.1c0.6,0.4,1.2,0.2,1.8-0.2c0.1-0.1,0.2-0.1,0.4-0.1c0.4,0,0.7,0,1.1-0.3c0.2-0.2,0.7-0.2,1-0.3
		c1-0.1,2-0.5,2.9-0.8c0.5-0.2,1.1-0.3,1.7-0.2c0.3,0,0.5-0.1,0.8-0.2c0.4-0.2,0.8-0.6,1.4-0.6c0.2,0,0.4,0,0.5-0.1
		c0.3-0.2,0.5-0.7,1-0.5c0.3-0.3,0.7-0.2,1-0.3c0.3-0.1,0.6-0.3,0.9-0.5c0.3-0.2,0.7-0.4,1.1-0.2c0.1,0,0.2,0.1,0.3,0.1
		c0.8-0.2,1.6,0.1,2.3-0.3c0.1-0.1,0.3-0.1,0.5,0c0.4,0,0.7-0.1,1-0.5c-0.3-0.1-0.5-0.2-0.7-0.2c0-0.1,0.1-0.3,0.1-0.4
		c0.2,0,0.4,0.1,0.5,0c0.3-0.2,0.6-0.1,0.8,0.1c0.5,0.5,1.2,0.3,1.7,0.3c1.1-0.1,2.2-0.3,3.3-0.5c0.3,0,0.7,0,1.1,0.1
		c-0.2,0.5-0.4,0.8-0.8,1c-1,0.4-1.9,0.9-2.9,1.3c-0.5,0.2-1.1,0.4-1.6,0.6c-0.1,0-0.3,0.1-0.3,0.2c-0.2,0.6-0.8,0.9-1.2,1.2
		c-0.5,0.3-0.7,0.7-0.8,1.2c-0.2,0.7-0.2,0.7-1,0.8c-0.6,0-0.9,0.4-0.9,1.3c-0.3,0-0.5,0.1-0.9,0.1c0.3,0.5,0.1,0.8-0.2,1.1
		c-0.4,0-0.8,0-1.2,0.4c-0.1,0.2-0.4,0.3-0.7,0.3c-0.6,0-1,0.2-1.5,0.6c0.3,0.2,0.6,0.1,0.8,0c0.7-0.4,1.5-0.3,2.2-0.5
		c0.3-0.1,0.6-0.2,1.1-0.3c0,0,0.3,0.1,0.6,0.2c-0.2,0.2-0.4,0.4-0.6,0.5c-0.7,0.3-1.5,0.7-2.2,1c-0.1,0.1-0.3,0.1-0.4,0.3
		c-0.3,0.7-1,0.8-1.6,1.1c-1.3,0.6-2.7,1.1-4,1.6c-0.6,0.2-1.2,0.4-1.8,0.7c-0.6,0.3-1.2,0.6-1.9,0.8c-0.3,0.1-0.6,0.3-0.8,0.6
		c-0.5,0.1-1.2-0.1-1.8,0.3c-1-0.1-1.7,0.5-2.5,0.8c-0.6,0.3-1.2,0.5-1.8,0.8c-0.8,0.4-1.7,0.7-2.6,0.8c-0.7,0.1-1.3,0.4-2,0.5
		c-0.3,0-0.5,0.2-0.4,0.6c-0.2,0-0.4,0-0.6,0.1c0,0.1-0.1,0.1-0.1,0.2c0.2,0.3-0.1,0.5-0.3,0.5c-0.5,0-0.8,0.3-1.2,0.4
		c-0.8,0.2-1.6,0.5-2.5,0.7c0,0.5,0,1.1-0.1,1.7c0,0,0.1,0.1,0.3,0.2c0.1,0,0.1-0.1,0.2-0.1c0.4-0.2,0.8-0.6,1.3-0.7
		c0.8-0.3,1.5-0.9,2.3-1c0.5-0.1,1-0.4,1.5-0.4c0.4,0,0.8-0.4,1.1-0.6c0.1-0.1,0.3-0.2,0.5-0.2c0.5,0.1,0.7,0,0.8-0.4
		c0.4,0,0.8,0,1.2-0.1c0.2,0,0.4-0.2,0.5-0.3c1-1,2.3-1.5,3.7-1.8c0.1,0.5-0.9,0.4-0.5,1c0.8,0,1.3-0.4,1.9-0.8
		c0.9-0.6,1.7-1.2,2.8-1.4c0.2,0,0.3-0.2,0.4-0.3c0.9-0.8,1.6-1,2.8-0.8c0,0.4-0.4,0.5-0.6,0.6c-1,0.3-2.1,0.6-3.1,1
		c-0.2,0.1-0.4,0.2-0.7,0.4c0.4,0.6,1,0,1.5,0.3c-0.1,0.4-0.5,0.6-0.8,0.8c-0.9,0.4-1.8,0.8-2.7,1.2c-0.3,0.1-0.6,0.1-0.9,0.2
		c-0.7,0.2-1.5,0.4-2.2,0.6c-0.2,0-0.3,0.2-0.5,0.2c-0.2,0.1-0.3,0.2-0.5,0.2c-1.1-0.1-1.9,0.5-2.7,1.2c-0.1,0.1-0.3,0.1-0.4,0.2
		c-1,0.1-1.9,0.5-2.8,0.9c-0.2,0.1-0.5,0.1-0.7,0.1c-0.3,0-0.7,0-0.9,0.3c-0.1,0.1-0.3,0.1-0.4,0.2c-0.1,0-0.2,0-0.3,0
		c-0.8,0.1-1.6,0.1-2.3,0.7c0.3,0.6,0.5,1.3,0.2,2c-0.1,0.3,0,0.6,0.4,0.8c-0.1,0.3-0.3,0.6-0.4,1c0.2-0.1,0.4-0.1,0.6-0.2
		c-0.3,0.6-0.6,1.1-0.2,1.8c0.3-0.3,0.7-0.6,1.1-0.9c0,0.2,0.1,0.3,0.1,0.3c-0.3,0.3-0.3,0.8-0.8,1c-0.2,0.1-0.4,0.4-0.3,0.7
		c0.1,0.3-0.2,0.6-0.2,0.9c0,0.7,0,1.3,0,2c0,0.4-0.1,0.8-0.1,1.2c0,0.3-0.1,0.6,0.3,0.7c0.1,0,0.1,0.2,0.1,0.4
		c0.1,0.6,0.2,1.3,0.3,1.9c0,0.1,0.1,0.1,0.2,0.3c0.2-0.1,0.3-0.2,0.5-0.3c0,0.2,0,0.3-0.1,0.3c-0.3,0.2-0.5,0.5-0.3,0.9
		c0,0.1,0,0.2,0,0.4c-0.1,0.7,0,1.3,0.3,1.9c0.2,0.3,0,0.5,0,0.8c0.6,0.8,0.6,1.7,0.2,2.6c0.4,0.5,0.6,1,0.5,1.7
		c0,0.5-0.4,0.7-0.6,1.1c-0.1,0.3-0.2,0.5-0.2,0.8c0,0.3,0,0.6,0,0.9c0.5,0.2,0.5-0.5,1-0.6c0.1,0,0.1,0.5,0.5,0.2
		c0.1,0.2,0.3,0.4,0.1,0.6c-0.2,0.2-0.4,0.5-0.6,0.7c0.2,0.6,0.4,1.1,0.6,1.7c0.1,0.2,0.1,0.4,0.2,0.6c0,0.1,0.1,0.2,0.1,0.3
		c-0.2,0.8,0.2,1.5,0.3,2.2c0.1,0.4,0,0.9,0,1.3c0,1-0.1,1.9,0.1,2.9c0.2,0.9,0.3,1.9,0,2.9c-0.3,0.8-0.7,1.4-1.3,1.7
		c0.1,0.9,0.3,1.8,0.4,2.8c0,0.1,0,0.3-0.1,0.4c-0.2,0.8-0.5,1.5-0.6,2.3c-0.1,0.9-0.1,1.8-0.1,2.8c0,0.7,0,1.4-0.2,2.1
		c0,0.1-0.1,0.2-0.2,0.3c-0.1,0.1-0.2,0.2-0.2,0.3c-0.1,0.6-0.1,1.2-0.2,1.8c-0.2,0.8-0.2,1.5-0.1,2.3c0,0.3,0.1,0.6,0.1,0.9
		c0.1,0.4,0.1,0.9,0.2,1.3c0.2,0.6,0.1,1.3,0.3,1.8c0.1,0.4,0.2,0.7,0.1,1l0,0c-0.2-0.4-0.4-0.7-0.6-1.2c-0.1,0.1-0.2,0.3-0.2,0.3
		c0.3,1.6,0.6,3.1,0.9,4.7c-0.2-0.2-0.4-0.2-0.4-0.3c-0.1-0.3-0.1-0.5-0.1-0.8c0-0.1-0.2-0.3-0.3-0.3c-0.2,0-0.3,0.1-0.2,0.3
		c0.1,0.2,0,0.5,0.2,0.6c0.3,0.4,0.3,0.7,0.1,1.1c0.3,0.4,0.5,0.7,1,0.6c0.3,0,0.5,0.2,0.8,0.3c0.5,0.3,0.9,0.6,1.3,0.9
		c-0.1,0.5-0.1,0.5,0.7,0.8c0.6-0.5,0.6-0.5,1.3-0.2c0.1,0.1,0.3,0.1,0.4,0.1c0.5,0,1,0.3,1.3,0.7c0.4,0.4,0.7,0.8,1.1,1.3
		c0.2-0.2,0.5-0.4,0.8-0.6c0.2,0.6,0.4,1.1,0.7,1.6c0.3,0.5,0.6,1,0.9,1.5c0.3,0.5,0.5,1,0.7,1.5c0.2,0.5,0.6,1,0.9,1.4
		c0.4-0.3,0-0.6,0.1-0.9c0.1-0.3,0.3-0.6,0.6-0.8c0.1,0.4,0.4,0.6,0.2,1.1c-0.1,0.3,0,0.7,0,1c-0.2,0.1-0.3,0.1-0.5,0.2
		c0.3,0.9,0.4,0.7-0.1,1.4c0,0.5-0.1,1,0,1.5c0,0.5,0.1,1,0.2,1.5c0.1,0.4,0.2,0.8,0.2,1.2c0,0.3-0.1,0.5-0.2,0.8
		c-0.2,0.5-0.4,1-0.5,1.6c-0.2,0.8-0.4,1.7-0.9,2.5c-0.1,0.1-0.1,0.2-0.2,0.3c-0.2,0.2-0.6,0.1-0.5,0.7c0,0.3-0.2,0.6-0.3,0.8
		c-0.1,0.3-0.5,0.6-0.1,1c0.5-0.2,1.1-0.3,1.7-0.5c0.9-0.3,1.8-0.4,2.7-0.3c0.3,0,0.6,0.1,1,0.1c0.1,0,0.3,0,0.4,0
		c0.4,0.3,0.8,0.4,1.3,0.1c0.1-0.1,0.2,0,0.4,0c0.7,0.2,1.6,0.3,2.1,0.7c0.5,0.4,1,0.4,1.6,0.5c0.3,0.1,0.7,0.1,0.8,0.5
		c0.1,0.2,0.4,0.2,0.5,0.3c0.3,0.2,0.6,0.3,0.8,0.5c0.6,0.5,1.2,1.1,1.7,1.7c0.1,0.1,0.2,0.2,0.2,0.3c0.4,0.9,0.7,1.8,1.1,2.7
		c0.1,0.1,0.1,0.3,0.1,0.4c-0.1,0.7,0.3,1,0.7,1.5c0.4,0.4,0.6,0.8,1,1.2c0.7-0.6,1.1-1.7,2.2-2.1c0.1,0.1,0.3,0.2,0.6,0.4
		c0.1-0.2,0.3-0.4,0.5-0.8c-0.3-0.1-0.5-0.1-0.7-0.1c-0.2,0-0.4-0.1-0.5-0.1c0-0.1,0-0.1,0-0.2c0.3-0.1,0.5-0.2,0.9-0.4
		c-0.1-0.4-0.2-0.9-0.3-1.4c-0.2,0.2-0.3,0.3-0.6,0.5c0-0.3,0-0.5,0.1-0.6c0.6-0.3,0.2-0.5-0.1-0.7c0.4-0.4,0.4-0.8,0.2-1.2
		c-0.2-0.4-0.2-0.8-0.1-1.2c0.1-0.3-0.2-0.6-0.3-1c-0.1-0.2-0.3-0.4-0.2-0.6c0.2-1-0.3-1.9-0.5-2.9c-0.1-0.4-0.2-0.9-0.1-1.4
		c0.1-0.5,0-0.6-0.6-0.7c-0.1-0.5-0.3-0.9-0.4-1.4c-0.1-0.3-0.1-0.6,0.1-1c0.1-0.1,0.1-0.4,0.1-0.6c-0.3,0.1-0.4,0.1-0.6,0.2
		c-0.1-0.1-0.2-0.2-0.3-0.3c-0.1,0-0.2,0-0.2,0c-0.1,0.1-0.3,0.2-0.4,0.2c-1,0.1-1.5,0.9-2.1,1.5c-0.2,0.2-0.5,0.4-0.7,0.5
		c-0.2,0.1-0.4,0.2-0.5,0.3c-0.7,0.6-1.5,0.7-2.4,0.4c-0.6-0.2-1.1-0.3-1.8-0.5c-0.1-0.3-0.4-0.5,0-0.9c0,0-0.1-0.2-0.1-0.3
		c0-0.1-0.1-0.3-0.1-0.5c0.2,0,0.3,0,0.4,0c0.8,0.3,1.6-0.1,2.3-0.4c0.4-0.2,0.7-0.5,1-0.9c0.2-0.3,0.5-0.4,0.8-0.6
		c0.5-0.2,0.9-0.5,1.4-0.8c0.3-0.2,0.6-0.4,0.9-0.6c0.2-0.2,0.4-0.4,0.2-0.6c-0.3-0.3,0.1-0.6,0-0.8c0-0.1,0.1-0.3,0.2-0.3
		c0.6-0.3,1.3-0.5,1.9-0.7c0.4-0.2,0.7,0.2,1,0.3c1.5-0.9,3-1.8,4.6-2.4c1.2-0.4,2.4-0.7,3.6-1c0.7-0.2,1.4-0.4,2.1-0.5
		c1-0.2,2-0.3,3.1-0.1c0.5,0.1,1,0.1,1.5,0.2c0.5,0.2,1,0.4,1.5,0.7c0.1,0.1,0.2,0.2,0.4,0.2c0.6,0.1,1.2,0.4,1.7,0.9
		c0.2,0.3,0.6,0.4,0.9,0.7c0.1,0.1,0.3,0.2,0.3,0.3c0.2,0.7,1,1.2,0.8,2c0,0,0,0.1,0,0.1c0.5,0.5,0.5,1.2,0.6,1.7
		c0.1,0.8-0.2,1.7-0.5,2.5c-0.2,0.4-0.4,0.8-0.5,1.3c-0.1,0.8-0.4,1.4-0.9,1.9c-0.1,0.1-0.2,0.2-0.3,0.4c-0.1,1-0.9,1.6-1.3,2.4
		c-0.2,0.5-0.6,1-1.1,1.3c-0.3,0.2-0.5,0.6-0.7,1c-0.3,0.5-0.5,0.9-1,1.2c-0.2,0.1-0.5,0.3-0.6,0.6c-0.3,0.7-1,1.1-1.6,1.4
		c-0.6,0.3-1,0.8-1.5,1.2c-0.7,0.6-0.6,0.6-1.4,0.2c-0.4,0.2-0.7,0.4-1.1,0.6c0,0.1,0.1,0.2,0.1,0.2c0.5,0,0.9,0,1.2,0.4
		c0,0,0.1,0.1,0.1,0.1c0.7-0.2,1.3,0.3,1.8,0.5c0.5,0.2,0.9,0.6,1.3,0.9c0.2,0.1,0.3,0.2,0.5,0.4c0.3,0.2,0.5,0.4,0.8,0.5
		c0.1,0.1,0.1,0.2,0.2,0.2c0.6,0.2,0.9,0.7,1.3,1.1c0.2,0.3,0.5,0.5,0.8,0.7c0.5,0.5,1,0.9,1.4,1.4c0.2,0.2,0.4,0.3,0.5,0.5
		c0.2,0.2,0.3,0.4,0.4,0.6c0.1,0.2,0.2,0.3,0.3,0.5c0.6,0.5,1.2,1.5,1.3,2.2c0,0.2,0.1,0.3,0.2,0.4c0.7,0.6,0.7,1.6,1.1,2.3
		c0.3,0.6,0,1.2,0,1.8c0,0.5-1.1,0.8-1.5,0.4c-0.8-0.6-1.6-1.3-2.4-1.9c-0.9-0.7-1.8-1.5-2.6-2.2c-1.1-1-2.2-2.1-3.2-3.2
		c-1-1.1-2.1-2.1-3.3-3.1c-0.4-0.3-0.9-0.5-1.3-0.8c-0.3-0.3-0.6-0.6-0.9-0.9c-0.2-0.2-0.4-0.4-0.8-0.2c-0.2,0.2-0.3,0.8-0.1,1.1
		c0.1,0.1,0.2,0.1,0.3,0.2c-0.1,0.5-0.1,1-0.2,1.3c0.1,0.4,0.3,0.8,0.4,1.2c0.3-0.2,0.6-0.4,1-0.7c-0.1,0.5-0.1,0.5-0.6,0.8
		c0.3,0.2,0.5,0.3,0.8,0.5c-0.1,0.4-0.2,0.7-0.3,1.1c0,0.2-0.1,0.4,0,0.5c0.1,0.3,0.3,0.6,0.5,1c0.1,0.1,0,0.3,0,0.5
		c0,0.2,0,0.5,0.1,0.6c0.5,0.4,0.5,0.9,0.5,1.4c0,0.1,0,0.2,0,0.3c0.2,0.3,0.1,0.6,0.1,0.8c0,0.1-0.1,0.2-0.1,0.4
		c0,0.6-0.1,1.1-0.8,1.3c0,0,0,0.1,0,0.2c0.4,0.1,0.7-0.2,1-0.5c0.1,0.7-0.6,0.6-0.8,1c0.1,0.5,0.3,1,0.4,1.5c0,0.3-0.6-0.1-0.4,0.4
		c0.3,0.1,0.7,0.1,0.9-0.3c0.2,0.5,0,0.8-0.6,1c0.2,0.6,0.3,1.3,0.5,2c-0.4-0.2-0.6-0.5-0.8-0.8c-0.2-0.4-0.4-0.8-0.5-1.2
		c0-0.1-0.1-0.2,0-0.2c0.5-0.6-0.2-1.1-0.3-1.7l0,0c0-0.2,0-0.4,0-0.6c-0.6-0.1-0.6-0.1-1,0.2c-0.1-0.3-0.2-0.5-0.3-0.8
		c-0.1-0.4-0.6-1-0.9-1.5c-0.2-0.3-0.2-0.6,0-0.9c0.1-0.2,0.2-0.4,0.3-0.6c-0.1,0-0.1-0.1-0.2-0.1c-0.1,0.2-0.2,0.4-0.4,0.7
		c-0.2-0.5-0.7-0.8-0.5-1.4c0.1-0.2-0.1-0.6-0.2-0.9c0.1,0,0.2-0.1,0.3-0.1c-0.2-0.6,0.3-1.3-0.1-1.9c-0.5,0.1-0.6,0.6-0.7,1
		c-0.5-0.8-0.4-1.6-0.6-2.4c-0.1-0.6-0.3-1.2,0.1-1.8c0.1-0.2,0.1-0.5,0.1-0.9c-0.3,0.2-0.4,0.3-0.6,0.4c-0.1-0.1-0.1-0.2-0.2-0.3
		c-0.6,0-1.1,0.3-1.4,0.8c-0.2,0.3-0.5,0.6-0.9,0.6c-0.4,0-0.9,0.7-1,1.1c-0.1,0.6,0.1,1.2-0.2,1.7c-0.1,0.1,0,0.3,0.1,0.5
		c-0.5,0.2-0.7,0.6-0.5,1.2c0.1,0.4-0.1,0.8-0.3,1.2c-0.1,0.3-0.3,0.5-0.1,0.8c0.1,0.1,0,0.3,0,0.5c-0.1,0.7-0.3,1.3-0.4,2
		c0,0.1,0,0.1,0,0.2c-0.6,1.5-1,3.2-1.5,4.7c-0.2,0.6-0.6,1.1-0.9,1.7c-0.3,0.6-0.7,1.2-1.1,1.8c-0.5,0.9-1.2,1.6-2,2.3
		c-0.8,0.6-1.3,1.5-1.6,2.5c-0.1,0.3-0.1,0.7-0.6,0.7c-0.3,0-0.3,0.3-0.2,0.5c0.1,0.3,0,0.5-0.2,0.7c-0.5,0.5-0.9,1-1.3,1.6
		c-0.4,0.5-0.7,0.9-0.9,1.5c-0.1,0.3-0.3,0.7-0.5,1c-0.3,0.5-0.8,1-0.9,1.6c0,0.2-0.2,0.3-0.3,0.4c-0.4,0.5-0.9,1.1-1.4,1.5
		c-0.5,0.5-1.1,0.8-1.5,1.4c-0.5,0-0.6,0.4-0.9,0.8c-0.4,0.6-0.8,1.2-1.2,1.8c-0.2,0.3-0.6,0.4-1,0.5c-0.3,0.1-0.5,0.3-0.7,0.6
		c-0.2,0.4-0.4,1-0.9,1.2c-0.6,1-1.6,1.6-2.2,2.6c-0.2,0.3-0.5,0.5-0.8,0.9c0.3-0.7,0.4-1.3,0.8-1.8c0.4-0.6,1-1,1.5-1.5
		c0.4-0.4,0.7-0.7,1.1-1.1c0.1-0.1,0.2-0.3,0.2-0.4c-0.1-0.4,0.2-0.6,0.4-0.7c0.1-0.1,0.3-0.1,0.4-0.2c0.6-0.4,1-0.8,0.7-1.6
		c1-0.5,1.6-1.5,2.4-2.3c0.4-0.5,0.9-0.9,1.4-1.3c0.3-0.3,0.4-0.8,0.9-1c0.2-0.1,0-0.6-0.2-0.8c-0.2-0.2-0.4,0-0.6,0.2
		c-0.5,0.6-1.2,1-1.6,1.8c-0.2,0.5-0.7,0.9-1.1,1.3c-0.9,0.9-1.8,1.9-2.7,2.8c-0.1,0.1-0.2,0.1-0.3,0.2c-0.3,0.2-0.6,0.5-0.8,0.7
		c-0.6,1-1.3,1.9-2.2,2.8c-0.5,0.5-0.9,0.9-1.4,1.3c-0.4,0.3-0.8,0.5-1.2,0.9c-0.3,0.2-0.5,0.5-0.8,0.8c-0.6,0.6-1.1,1.2-1.7,1.7
		c-0.4,0.3-0.8,0.6-1.2,0.8c-0.1,0-0.2,0.1-0.2,0.1c-0.4,0.7-1.1,1-1.5,1.6c-0.3,0.4-0.7,0.7-1.2,0.8c-0.1,0-0.3,0.1-0.4,0.2
		c-0.4,0.8-1.3,1.1-1.9,1.7c-0.4,0.4-0.9,0.8-1.3,1.2c-0.5,0.5-1,1-1.5,1.5c0.5-0.8,1.3-1.5,1.6-2.5c1-0.3,1.7-1.1,2.5-1.7
		c0,0,0,0,0.1,0c0.5-0.3,0.4-0.9,0.8-1.2c0.4-0.3,0.7-0.7,1-1c0,0-0.1-0.1-0.1-0.1c-0.2,0.1-0.3,0.1-0.5,0.2
		c-0.1,0.1-0.3,0.2-0.4,0.2c0.4-0.7,1.3-0.9,1.6-1.6c0.2,0.1,0.4,0.2,0.6,0.1c0.4-0.2,0.8-0.6,0.9-1.2c-0.2,0.1-0.3,0.1-0.6,0.2
		c0.2-0.3,0.3-0.4,0.5-0.7c0.1,0.1,0.2,0.2,0.4,0.3c0.4-0.3,0.8-0.7,1.3-1.1c-0.5,0.7-0.9,1.3-1.2,2c0.6-0.1,0.9-0.3,0.9-0.7
		c0-0.1,0.1-0.3,0.2-0.3c0.5-0.4,0.8-0.9,1.1-1.4c0.4-0.6,0.9-1,1.3-1.5c0.2-0.3,0.5-0.5,0.7-0.8c0.4-0.6,0.7-1.2,1.2-1.7
		c0.6-0.6,0.8-1.5,1.6-1.9c0.2-0.1,0.3-0.3,0.3-0.5c0.1-0.3,0.4-0.5,0.6-0.7c0.2-0.2,0.5-0.4,0.4-0.7c0-0.1,0-0.2,0.1-0.2
		c0.7-0.6,0.8-1.6,1.6-2.2c0.3-0.3,0.7-0.5,0.4-1.1c0-0.1,0.2-0.3,0.4-0.4c0.2-0.1,0.4-0.3,0.5-0.5c0.1-0.2,0.2-0.4,0.4-0.5
		c0.4-0.2,0.4-0.6,0.2-0.9c0.2-0.2,0.3-0.3,0.5-0.5c-0.4-0.3-0.7-0.2-0.9,0.2c-0.2,0.5-0.5,1.1-0.8,1.6c-0.2,0.3-0.6,0.4-0.9,0.6
		c-0.2,0.2-0.6,0.3-0.7,0.5c-0.2,0.4-0.4,0.5-0.8,0.6c-0.6,0.1-1,0.5-1.2,1c-0.1,0.3-0.3,0.6-0.4,0.8c-0.1,0.2-0.2,0.4-0.4,0.4
		c-0.5,0.1-0.8,0.5-1.1,0.8c-0.1,0.1-0.1,0.1-0.2,0.1C93.6,192.1,93.2,192.5,93,193.1L93,193.1z M88.5,45.6
		c-0.1-0.1-0.1-0.3-0.2-0.3c-0.3-0.1-0.7-0.1-1,0.2c-0.3,0.3-0.6,0.6-1,1c0.3,0,0.4,0,0.5-0.1C87.3,46,88,45.8,88.5,45.6
		c-0.4,0.3-0.9,0.6-1.4,1.1c0.3,0.2,0.5,0.3,0.8,0.4c0,0-0.1,0.1-0.1,0.1c0.2,0,0.4-0.1,0.7-0.2c-0.1,0.3-0.2,0.5-0.2,0.7
		c0.2,0.2,0.4,0.3,0.7,0.2c0.7-0.2,1.2-0.6,1.4-1.3c0.7-0.2,1.4-0.1,2-0.5c0.5-0.4,1-0.6,1.5-0.9c0.2,0.1,0.3,0.2,0.3,0.3
		c0.5-0.2,0.9-0.4,1.3-0.6c0.2-0.1,0.4-0.1,0.5-0.3c0.7-0.8,1.7-0.7,2.6-0.9c0.5-0.1,0.9-0.3,1.2-0.6c0.2-0.2,0.3-0.4,0.5-0.5
		c1.1-0.6,2.2-0.9,3.4-1c0.4,0,1,0.1,1.3-0.1c0.6-0.4,1.3-0.5,2-0.8c0.4-0.2,0.9-0.4,1.4-0.2c0.1,0,0.3,0,0.4,0
		c0.5-0.4,1.2-0.5,1.8-0.7c0.3-0.1,0.7-0.2,0.6-0.7c0-0.1,0.2-0.2,0.2-0.3c0.1-0.1,0.1-0.3,0.2-0.5c-0.9,0.1-1.6,0.2-2.1,0.8
		c-0.2,0.2-0.5,0.4-0.7,0.4c-0.7,0-1.3,0.5-2,0.4c0,0-0.1,0-0.1,0c-0.5,0.5-1.2,0.4-1.7,0.7c-0.5,0.2-1.1,0.4-1.6,0.6
		c-0.2-0.1-0.3-0.2-0.5-0.3c-0.4,0.2-0.5,0.6-0.9,0.7c-0.5,0.2-0.9,0.4-1.4,0.4c-0.2,0-0.3,0.2-0.5,0.2c-0.2,0.1-0.4,0.2-0.7,0.3
		c0,0-0.1-0.1-0.1-0.1c0.1-0.1,0.2-0.3,0.3-0.3c0.5-0.3,1-0.5,1.5-0.8c0.1-0.1,0.2-0.2,0.3-0.3c0,0,0-0.1-0.1-0.1
		c-0.2,0.1-0.5,0.1-0.7,0.2c-0.2,0.1-0.4,0.2-0.7,0.3c-0.3,0.2-0.5,0.3-0.7,0.7c-0.1,0.3-0.3,0.8-0.9,0.8c0.3-0.4,0.5-0.7,0.7-1
		c-0.3-0.2-0.5-0.1-0.7,0.1c-0.3,0.2-0.6,0.6-1.1,0.4c-0.2-0.1-0.5,0.1-0.7,0.3c-0.6,0.4-1.2,0.8-1.9,0.8c-0.1,0-0.3,0.1-0.4,0.2
		c-0.3,0.1-0.6,0.3-0.9,0.4c-0.7,0.1-1.1,0.6-1.6,1c-0.1,0.1-0.1,0.2-0.2,0.5c0.8-0.4,1.7-0.2,2.1-1c0.6,0.4,0.9-0.2,1.4-0.2
		c0.5,0,0.7-0.6,1.4-0.5c-0.7,0.5-1.3,1.1-2.2,1.1c-0.1,0-0.3,0-0.4,0.1c-0.8,0.7-1.9,0.4-2.7,1c-0.2,0.2-0.5,0.2-0.6,0.5
		c0,0.1-0.1,0.1-0.2,0.1c-0.5,0.1-1.1,0.2-1.6,0.3c0.1-0.3,0.1-0.7,0.7-0.7c0.1,0,0.3-0.1,0.4-0.2c0.2-0.2,0.5-0.4,0.8-0.4
		c0.3,0,0.4-0.3,0.4-0.6c-0.5,0.1-0.9,0.1-1.2,0.5c-0.1,0.1-0.3,0.1-0.5,0.2C88.8,45.5,88.7,45.5,88.5,45.6z M92,133
		c0.5-0.2,0.7-0.5,0.5-0.7c-0.2-0.2-0.2-0.3-0.1-0.5c0-0.1-0.1-0.3-0.1-0.5c-0.1-0.1-0.2-0.2-0.2-0.4c-0.1-0.5-0.3-0.7-0.7-0.5
		c-0.1,0-0.2,0-0.4-0.1c-0.9-0.1-1.7-0.1-2.5,0.5c-0.2,0.2-0.6,0.3-1,0.4c0-0.5,0.6-0.6,0.3-1.1c-0.6-0.2-1.2-0.1-1.7,0.1
		c-1.2,0.4-2.3,1-3.5,1.3c-0.1,0-0.2,0.1-0.3,0.1c-0.6,0.3-1.2,0.6-1.8,0.7c-0.4,0.1-0.6,0.3-0.9,0.5c-0.4,0.2-0.7,0.5-1.1,0.7
		c-0.5,0.2-1,0.4-1.5,0.7c-0.1-0.1-0.1-0.2-0.1-0.2c0-0.2,0.2-0.5-0.1-0.6c-0.2,0-0.4,0.1-0.6,0.2c-0.2,0.1-0.4,0.3-0.6,0.5
		c0,0.2,0.1,0.4,0,0.5c-0.2,0.3-0.4,0.7-0.7,0.9c-0.3,0.2-0.4,0.4-0.1,0.7c0.2,0.2,0.5,0.1,0.7-0.1c0.3-0.4,0.8-0.7,1-1.2
		c0,0,0.2-0.1,0.3-0.1c-0.1,0.4-0.2,0.7-0.3,0.9c-0.2,0.3-0.5,0.4-0.9,0.6c0.2,0.4,0.1,0.6-0.2,0.8c-0.2,0.2-0.3,0.5-0.5,0.7
		c0,0,0,0.1,0.1,0.2c0.1-0.2,0.3-0.3,0.4-0.5c0.1,0.2,0.2,0.3,0.3,0.5c-0.2,0.2-0.4,0.3-0.6,0.4c0.2,0.9,0.4,1.8,0.9,2.7
		c0.2-0.5,0.2-0.8,0.1-1.2c-0.1-0.4-0.2-0.7-0.2-1.1c0-0.1,0.1-0.2,0.2-0.3c0.2,0.4,0.4,0.8,0.6,1.2c0,0,0.1,0,0.1,0
		c0,0.3-0.1,0.7-0.1,1c0.3,0,0.5,0,0.8,0c-0.2,0.4-0.4,0.7-0.5,0.9c0,0.5,0,0.8,0,1.2c0,0.4,0,0.8,0,1.2c0.5-0.5,0.5-1.2,1-1.7
		c0,0.3,0,0.6,0,0.9c0.2-0.1,0.3-0.1,0.5-0.2c0,0.1,0,0.1,0,0.1c-0.3,0.6-0.6,1.1-0.1,1.7c0.1,0.1,0,0.4,0.1,0.6
		c0,0.2,0.1,0.3,0.1,0.5c0.2-0.1,0.4-0.1,0.6-0.2c0,0.7-0.4,1.1-0.7,1.5c0.6,0.7,0.5,0.7,0.1,1.5c-0.1,0.2-0.1,0.4,0,0.5
		c0.3,0.6,0.6,1.2,1,1.8c0.3-0.4,0.1-0.8,0-1.1c0-0.1-0.1-0.2-0.1-0.3c0.2-0.3,0.1-0.6,0-0.9c-0.2-0.4,0.3-1,0.8-1
		c0.1,0.1,0.3,0.3,0.4,0.4c-0.3,0.4-0.3,0.8,0,1.3c0.2,0.3-0.9,1.4-0.7,1.7c0.2,0.4,0.4,0.9,0.2,1.4c-0.1,0.2,0,0.4,0,0.6
		c0.3-0.1,0.5-0.2,0.7-0.2c0,0.4,0.1,0.7,0.1,1.1c0,0.3,0,0.6,0,1c1.3-0.3,3.5-2,4.7-2.5c0.5,0.2,0.9,0.1,1.1-0.3
		c0.2-0.5,0.5-0.9,1-1.2c-0.1-0.2-0.1-0.4-0.2-0.6c0.8-0.7,0.8-1.7,0.9-2.7c0.2,0,0.4-0.1,0.5-0.1c0.1-0.3,0.2-0.5,0.3-0.7
		c0.1-0.3,0.3-0.6,0.3-0.8c0-0.4,0.2-0.6,0.5-0.8c0.4-0.2,0.5-0.7,0.4-1c-0.1-0.3,0-0.6,0-0.8c0,0,0-0.1-0.1-0.2
		c-0.1,0-0.3-0.1-0.5-0.1c0-0.3,0-0.6,0.2-0.8c0.3-0.5,0.6-1,0.9-1.5c0-0.1,0.1-0.2,0.1-0.3c-0.2-0.6,0.1-1,0.3-1.4
		c0.1-0.2,0.1-0.5,0.1-0.7c0-0.2,0-0.3,0.1-0.5c0.3-0.5,0.6-1.1,0.8-1.6c0.3-0.8,0.6-1.7,0.9-2.6c0.1-0.3,0-0.6,0-0.9
		C92.6,133,92.3,133.5,92,133L92,133z M124.1,146.9c0.2,0.5,0.7,0.5,1.1,0.5c0.3,0,0.6-0.2,0.8-0.5c0.5-0.7,1-1.4,1.6-2.1
		c0.8-0.9,1.2-2.2,2.2-2.9c0,0,0.1-0.1,0.1-0.1c0.3-0.3,0.5-0.6,0.8-0.8c0-0.1-0.1-0.2-0.1-0.4c0-0.4,0.3-0.6,0.6-0.9
		c0.3-0.4,0.5-0.8,0.7-1.3c0.2-0.4,0.7-0.7,0.4-1.3c0,0,0-0.1,0.1-0.1c0.4-0.6,0.3-1.2,0.4-1.8c0-0.4-0.1-0.5-0.5-0.4
		c-0.3,0-0.5,0.1-0.9,0c0.3-0.1,0.5-0.2,0.7-0.2c-0.7-0.1-1.4-0.4-2.1,0.2c-0.2-0.1-0.3-0.2-0.4-0.3c-0.3,0.4-0.6,0.5-1.1,0.6
		c-0.9,0.2-1.8,0.3-2.5,0.9c-0.2,0.2-0.6,0.2-0.8-0.3c-0.8,1-1.8,1.2-2.9,1.5c0,0,0,0-0.1,0c-0.1-0.1-0.2-0.1-0.3-0.2
		c0,0.1-0.1,0.3,0,0.4c0.1,0.4,0.3,0.8,0.4,1.2c0.2,0,0.3-0.1,0.6-0.1c-0.3,0.6,0.2,1.3-0.3,1.9c0.2,0.1,0.3,0.1,0.3,0.1
		c0.3,0.6,0.2,1.2,0.8,1.7c0.1-0.4,0.2-0.6,0.3-0.9c0.1,0.3,0.2,0.7,0,0.8c-0.5,0.3-0.1,0.7-0.3,1.1c0.3-0.1,0.5-0.2,0.7-0.3
		c0.1,0.2,0.2,0.5,0.3,0.8c-0.2,0.1-0.5,0.1-0.8,0.2c0.5,0.6,0.1,1.1,0,1.7c0.9,0.1,0.8-0.6,0.9-1.2c0.4,0.7,0.3,1.2-0.1,1.8
		C124.2,146.2,124.2,146.6,124.1,146.9z M100,48c-0.9-0.2-1.8,0.1-2.6,0.4c-0.1,0.1-0.3,0.1-0.5,0c-0.4-0.2-0.7-0.1-0.9,0.3
		c-0.3,0.5-0.7,0.6-1.2,0.8c-0.2,0.1-0.4,0.2-0.6,0.3c-0.5,0.1-0.9,0.3-1.4,0.4c0,0,0-0.1-0.1-0.2c0.2-0.1,0.4-0.1,0.7-0.2
		c0.1,0,0.4,0,0.4-0.1c0.4-0.5,1.1-0.6,1.5-1c1.1-1,2.4-1.1,3.8-1.3c0.4-0.1,0.9-0.1,1.3-0.2c0.5-0.2,0.7-0.5,1-0.9
		c-0.3,0-0.5,0.1-0.7,0.1c0,0,0-0.1,0-0.1c0.5-0.3,0.9-0.6,1.4-0.9c-0.2-0.2-0.3-0.3-0.3-0.3c-0.3,0.1-0.6,0.1-0.8,0.3
		c-0.5,0.4-1,0.8-1.5,1.2c-0.1,0.1-0.3,0.3-0.4,0.3c-1.1,0.1-1.9,1-3,1c-0.1,0-0.2,0.1-0.3,0.2c-0.5,0.5-1.2,0.7-1.9,1
		c-0.2,0.1-0.5,0.2-0.7,0.2c-0.8,0-1.5,0.1-2.2,0.5c-0.6,0.3-1.2,0.4-1.8,0.4c-0.2,0-0.4,0.1-0.5,0.1c0,0.1,0,0.1,0,0.2
		c0,0.1,0,0.1,0.1,0.2c0.2,0.7,0.3,0.8,1,0.5c0.5-0.2,1-0.4,1.6-0.6c-0.3,0.4-0.6,0.7-0.8,0.9c-0.4,0.1-0.9,0.1-1.3,0.2
		c0.1,0.4,0.3,0.7,0.4,1c0.4,0.3,0.8,0.2,1.2-0.1c0.3,0.3,0.5,0.6,0.8,0.9c0.2-0.1,0.6-0.2,0.4-0.6c0-0.1,0.1-0.2,0.2-0.3
		c0.2-0.1,0.3-0.3,0.5-0.4c-0.2-0.1-0.4-0.1-0.6,0c-0.2,0-0.4,0.1-0.6-0.1c1.2-0.3,2.3-0.6,3.4-1.2c0.2-0.1,0.5-0.2,0.7-0.2
		c0.6,0,1-0.2,1.4-0.5c0.2-0.1,0.4-0.3,0.6-0.3C98.3,49.2,99.1,48.5,100,48z M81.4,56.8C81.1,56.9,81,57,80.8,57
		c-1.4,0.4-2.8,0.8-4.3,1.1c-0.6,0.1-1.2,0.4-1.9,0.4c-0.2,0-0.6,0.2-0.7,0.4c-0.3,0.6-0.8,0.9-1.3,1.2c-0.1,0.1-0.2,0.2-0.3,0.2
		c0.5,0,1,0.2,1.5-0.1c0.3-0.2,0.7-0.5,1-0.5c0.5,0,0.8-0.4,1.3-0.5c0.1,0.1,0.2,0.2,0.3,0.3c0.8,0.1,1.5,0.1,2.2-0.5
		c0.1-0.1,0.2-0.2,0.3-0.3c0.4-0.2,0.6-0.5,1.1-0.3c0.3,0.1,0.7,0,1,0c0.3,0,0.5-0.2,0.4-0.4C81.2,57.7,81.4,57.3,81.4,56.8z
		 M84.7,166.1c0.3,0.2,0.5,0.4,0.7,0.6c0.4-0.2,0.3-0.5,0.3-0.8c0-0.2-0.7-0.4-0.6-0.6c0.2-0.5-0.4-0.5-0.8-0.8c-0.1,0-0.1,0-0.2,0
		c-0.2,0.1-0.5,0.1-0.5-0.2c-0.1-0.2,0.1-0.4,0.3-0.5c0.2-0.1,0.4-0.2,0.6-0.2c0.1-0.5,0.2-1.1,0.3-1.6c0.4-0.3,1-0.6,1.1-1.2
		c-0.2-0.3-0.5-0.6-0.7-0.9c-1.2,0.5-1.3,1.8-1.7,2.8c-0.2-0.1-0.3-0.1-0.4-0.2c0-0.4,0.1-0.7,0-1c-0.1-0.3,0.3-0.7-0.1-0.9
		c-0.2,0.2-0.4,0.3-0.6,0.5c-0.4,0.4-0.4,0.7-0.2,1.1c0.3,0.5,0.7,1,0.8,1.7c0.1,0.4,0.3,0.8,0.1,1.2c0,0.1,0.1,0.3,0.1,0.4
		C83.7,165.8,84.9,165.8,84.7,166.1z M85.6,92.1c-0.2,0.4-0.6,0.6-0.5,1.1c0.1,0.4,0.2,0.7,0.3,1.1c0,0.1,0,0.2,0,0.2
		c-0.4,0.8-0.2,1.6,0,2.5c0.3-0.1,0.5-0.1,0.7-0.2C86.1,95.2,85.9,93.6,85.6,92.1z M88.3,117c-0.1-1.9-0.9-3.5-1.2-5.3
		c-0.1,0.1-0.2,0.1-0.2,0.1c-0.1,0.4-0.3,0.9,0,1.3c0.1,0.1,0.1,0.3,0.1,0.5c0.1,0.2,0.1,0.4,0.2,0.6c0.3,0.3,0.2,0.6,0.2,1
		c0,0.5,0,0.9,0.1,1.4C87.6,117.2,87.7,117.2,88.3,117z M86,102.6c0.7-0.6,0.8-0.7,0.7-1.2c-0.2-1.3-0.3-2.6-0.5-3.9
		c0,0-0.1-0.1-0.2-0.1C86,97.6,86,97.8,85.9,98c-0.3,0-0.6,0-1,0c0,0.2,0.1,0.5,0.1,0.5c0.6,0,0.6,0.5,0.8,0.8
		c0.2,0.2,0.5,0.5,0.2,0.9c0,0,0,0.2,0.1,0.3c0.4,0.6,0.3,1.1,0,1.7C86,102.3,86.1,102.5,86,102.6z M89.6,99.7c0-0.3,0-0.6-0.1-0.9
		c0-0.1-0.2-0.2-0.3-0.2c-0.1,0-0.2,0.1-0.3,0.2c-0.1,0.2-0.1,0.3-0.1,0.5c-0.1,0.8,0.3,1.6,0,2.4c0,0.1,0.2,0.2,0.3,0.3
		c0.1-0.1,0.2-0.2,0.2-0.3c0-0.3,0-0.6,0.1-0.9C89.5,100.3,89.6,100,89.6,99.7z M89.5,120.5c-0.5,0.3-0.2,0.6-0.3,0.9
		c-0.1,0.3-0.2,0.6-0.3,0.9c0,0.1,0,0.2,0,0.3c0.3,0.1,0.6,0.1,0.8,0.2c0.2-0.2,0.5-0.5,0.3-0.8c-0.1-0.2-0.3-0.3-0.3-0.5
		c0-0.2,0.1-0.4,0.1-0.5C89.7,120.9,89.6,120.7,89.5,120.5z M81.6,164.1c0,0.6,0,1.1,0,1.5c0.5,0.3,0,1,0.4,1.4
		c0.2-0.2,0.6-0.3,0.4-0.6c-0.2-0.2-0.1-0.4,0-0.6c0.3-0.7-0.4-1.2-0.3-1.8C81.9,164.1,81.7,164.1,81.6,164.1z M87.3,125
		c-1.4-0.2-2.7,0.3-4,0.5c-0.1,0-0.2,0.2-0.3,0.3C83.6,125.9,86.7,125.3,87.3,125z M89.6,104.8c0,0.2-0.1,0.5,0,0.6
		c0.4,0.6,0.1,1.1,0.1,1.7c0,0.1,0,0.2,0.1,0.3c0.2,0,0.3-0.1,0.5-0.1c0-0.7-0.1-1.4-0.1-2.2C90.3,104.8,90.1,104.7,89.6,104.8z
		 M81.4,124.7c0-0.1,0-0.1-0.1-0.2c-0.3,0.1-0.5,0.1-0.8,0.2c-0.2,0.1-0.4,0.3-0.6,0.3c-0.5,0.2-0.6,0.6-0.5,1.1
		c0.5-0.1,1,0,1.3-0.5c-0.1-0.2-0.2-0.3-0.3-0.5C80.7,125.1,81,124.9,81.4,124.7z M94.8,51.5c0.3,0,0.5,0.1,0.7,0
		c0.4-0.1,0.9-0.3,1.2-0.5c0.4-0.3,0.8-0.5,1.3-0.6c0.2,0,0.5-0.1,0.4-0.4c-0.5,0-1,0.1-1.4,0.5c-0.4,0.3-0.8,0.5-1.3,0.5
		C95.3,50.9,95,51,94.8,51.5z M86.7,103.5c0.1,0.5,0.2,1,0.3,1.4c0,0.5,0,0.9,0.4,1.3c0.5-0.7-0.1-1.3-0.2-1.9
		C87.2,104,87.1,103.7,86.7,103.5z M127.4,146.9c-0.5-0.3-0.7-0.3-0.9,0c-0.3,0.5-0.4,1-0.5,1.5c0,0,0.1,0.1,0.1,0.1
		C126.6,148,127,147.5,127.4,146.9z M106.1,185.1c0,0,0.1,0.1,0.1,0.1c0.6-0.5,1.2-0.9,1.8-1.4c-0.1-0.2-0.2-0.3-0.3-0.6
		C107.2,183.9,106.4,184.3,106.1,185.1z M125.3,148.3c0.1-0.1,0.5-0.2,0.3-0.5c-0.1-0.1-0.4-0.2-0.6-0.2c-0.1,0-0.3,0.2-0.4,0.4
		c-0.1,0.2-0.1,0.5-0.1,0.7c0.2,0.1,0.3,0.2,0.4,0.3c0.1,0.1,0.3,0.1,0.4,0.1C125.3,148.8,125.3,148.6,125.3,148.3z M81.2,47.8
		c-0.7,0.3-1.3,0.6-2,1c0.7,0.2,1.2,0,1.7-0.2C81.6,48.4,81.6,48.4,81.2,47.8z M77.1,152.2c-0.2,0.4,0.1,0.8-0.4,1.1
		c0.2,0.2,0.4,0.3,0.5,0.4c0.2,0.1,0.5-0.1,0.4-0.3C77.6,153,77.6,152.5,77.1,152.2z M87.6,159.2c-0.1,0-0.2-0.1-0.2-0.1
		c-0.4,0.3-0.8,0.5-1.2,0.8c-0.2,0.1-0.1,0.3,0.1,0.5C86.7,160,87.3,159.7,87.6,159.2z M105.3,48.9c0.6-0.1,1.1-0.1,1.2-0.8
		C105.7,48,105.5,48,105.3,48.9z M125.7,163.9c-0.5,0.4-0.1,0.7-0.1,1.1c0,0.1,0.2,0.1,0.5,0.2C125.9,164.6,126.2,164.1,125.7,163.9
		z M122.3,155.5c-0.1,0-0.1,0-0.2,0c-0.1,0.2-0.2,0.4-0.3,0.6c0.4,0.2,0.1,0.5,0.2,0.8c0,0.1,0.2,0.2,0.3,0.3
		C122.8,156.5,122,156,122.3,155.5z M126.1,155.2c0,0-0.1,0-0.1-0.1c-0.3,0.2-0.5,0.5-0.9,0.8c0.2,0.2,0.4,0.4,0.6,0.6
		C125.9,156,126,155.6,126.1,155.2z M85.9,124.5c-0.7-0.5-1,0.3-1.5,0.1c-0.1,0-0.2,0.1-0.3,0.2C84.7,124.8,85.2,124.7,85.9,124.5z
		 M93.3,191.9c0,0,0.1,0.1,0.1,0.1c0.3-0.2,0.7-0.4,0.9-0.9c-0.3,0-0.5,0-0.8,0C93.5,191.4,93.4,191.6,93.3,191.9z M93.5,52.1
		c-0.5,0.2-0.9,0.3-1.5,0.5C92.7,53,93.1,52.8,93.5,52.1z M85.6,166.9c-0.3,0.5-0.9,1.3-0.3,1.8C84.9,168,85.9,167.4,85.6,166.9z
		 M119.1,158c0.5-0.1,0.6-0.1,0.6-0.8C119.1,157.3,119.1,157.3,119.1,158z M83.2,124.7c-0.6-0.1-0.8,0.3-1.1,0.6
		C82.8,125.4,83,125.4,83.2,124.7z M127.7,165.1c-0.3-0.1-0.4,0-0.4,0.3c0,0.3,0.2,0.6,0.3,0.9c0,0,0.1,0,0.1,0
		C127.6,166,127.6,165.6,127.7,165.1z M102.7,147.6c-0.4,0-0.8,0-1.1,0.4C102.2,148.3,102.2,148.3,102.7,147.6z M85.8,111.4
		c0,0.1-0.1,0.1-0.1,0.2c0.1,0.2,0.2,0.4,0.4,0.6c0.2-0.2,0.3-0.4,0.5-0.6C86.2,111.5,86,111.4,85.8,111.4z M120.9,155.1
		c-0.3,0-0.6,0-0.6,0.3c0,0.1,0.2,0.3,0.2,0.3C120.9,155.7,121,155.5,120.9,155.1z M90.4,116.1c0.3-0.3,0.4-0.6,0.1-1
		C90,115.5,90.4,115.8,90.4,116.1z M91.5,47.1c0.8,0,0.8,0,1.1-0.5C92.1,46.5,91.9,46.9,91.5,47.1z M92.9,53c-0.4,0-0.6,0.1-1,0.1
		C92.4,53.7,92.5,53.7,92.9,53z M67.4,132.6c-0.7,0.2-0.7,0.3-0.7,0.8C66.8,133,67.6,133.3,67.4,132.6z M91.4,150.3
		c0.5-0.1,0.5-0.4,0.5-0.8C91.6,149.6,91.6,149.6,91.4,150.3z M81.4,181.5c0.1-0.4-0.2-0.5-0.4-0.7C80.9,181.1,81,181.4,81.4,181.5z
		 M79.9,156.7c0.4-0.2,0.5-0.4,0.3-0.8C80,156.2,79.7,156.3,79.9,156.7z M108.4,183.5c0.3-0.2,0.5-0.4,0.3-0.7
		C108.5,182.9,108.3,183.1,108.4,183.5z M90.4,119.3c0.1,0.2,0.2,0.4,0.3,0.7C90.9,119.6,90.8,119.4,90.4,119.3z M89.4,117
		c0.2,0.1,0.4,0.1,0.5-0.1c0,0,0-0.2-0.1-0.2C89.6,116.6,89.4,116.7,89.4,117z M85.8,110.9c0.1,0.1,0.2,0.2,0.3,0.2
		c0.1,0,0.2-0.1,0.2-0.2c0-0.1-0.1-0.2-0.2-0.3C86,110.7,85.9,110.8,85.8,110.9z M89.9,124.8c0,0.1,0,0.1,0,0.2
		c0.2,0.1,0.4,0.2,0.6-0.2C90.3,124.8,90.1,124.8,89.9,124.8z M126.7,167.7c-0.1,0.4-0.1,0.6,0.2,0.8c0-0.2,0-0.3,0-0.4
		C126.9,167.9,126.8,167.9,126.7,167.7z M45.1,54.7c-0.1-0.1-0.2-0.2-0.3-0.2c-0.1,0-0.2,0.2-0.2,0.2c0,0.1,0.2,0.2,0.2,0.2
		C44.9,55,45,54.9,45.1,54.7z M125.9,162.7c0.4-0.1,0.4-0.1,0.3-0.4C126,162.4,126,162.6,125.9,162.7z M126.2,166.2
		c-0.2,0-0.3,0-0.6,0.1C126.1,166.6,126.1,166.6,126.2,166.2z M77,128.8c0,0-0.1-0.1-0.1-0.1c-0.3,0.2-0.3,0.2-0.2,0.6
		C76.8,129.1,76.9,129,77,128.8z M76.3,128.6c-0.4,0-0.4,0-0.6,0.3c0.2-0.1,0.3-0.1,0.4-0.1C76.2,128.7,76.2,128.6,76.3,128.6z
		 M90.7,108c-0.1,0-0.2-0.1-0.3-0.1c-0.1,0-0.2,0.1-0.2,0.2c0,0,0.1,0.2,0.2,0.2C90.5,108.3,90.5,108.2,90.7,108z M79.8,154.8
		c0.1,0,0.2,0,0.2,0c0-0.1,0-0.3,0-0.4c0,0-0.1,0-0.1,0C79.8,154.6,79.8,154.7,79.8,154.8z M80.6,46.4c-0.1,0.1-0.2,0.2-0.2,0.2
		c0,0.1,0.1,0.1,0.2,0.2c0.1-0.1,0.2-0.1,0.2-0.2C80.8,46.6,80.7,46.5,80.6,46.4z M76.9,171.4c-0.1,0-0.2,0-0.2,0
		c0,0.1,0.1,0.3,0.1,0.4c0,0,0.1,0,0.1,0C76.9,171.7,76.9,171.6,76.9,171.4z M86.4,124.5c0.2,0,0.3,0,0.4,0c0.1,0,0.1-0.1,0.2-0.1
		c0,0,0-0.1-0.1-0.1C86.8,124.3,86.6,124.4,86.4,124.5z M82.9,125.8c-0.1-0.1-0.2-0.1-0.2-0.1c-0.1,0-0.1,0.1-0.2,0.2
		c0.1,0,0.1,0.1,0.2,0.1C82.7,126,82.8,125.9,82.9,125.8z M123.3,156.8c0-0.1-0.1-0.1-0.1-0.2c0,0-0.1,0.1-0.1,0.1
		c0,0.1,0,0.1,0.1,0.2C123.1,156.8,123.2,156.8,123.3,156.8z M121.3,156.6c0.1-0.1,0.1-0.2,0.2-0.2c0,0,0-0.1-0.1-0.2
		c-0.1,0.1-0.2,0.1-0.2,0.2C121.1,156.5,121.2,156.5,121.3,156.6z M130.9,150.5c-0.1,0.3-0.2,0.4-0.2,0.4c0,0.1,0.1,0.1,0.2,0.2
		c0-0.1,0.1-0.2,0.1-0.2C131,150.8,131,150.7,130.9,150.5z M53.7,148.1c-0.1,0-0.1,0-0.2,0c0,0.1-0.1,0.2-0.1,0.4c0.1,0,0.1,0,0.2,0
		C53.6,148.4,53.7,148.3,53.7,148.1z M89.8,54.6c-0.1-0.1-0.2-0.1-0.3-0.1c-0.1,0-0.1,0.1-0.2,0.2c0,0,0.1,0.2,0.1,0.2
		C89.5,54.8,89.6,54.7,89.8,54.6z M92.2,127.3c-0.1-0.1-0.1-0.1-0.2-0.1c-0.1,0-0.1,0.1-0.2,0.1c0,0,0.1,0.1,0.1,0.1
		C92.1,127.3,92.1,127.3,92.2,127.3z"/>
	<path class="st0" d="M124.9,93.4c0.5,0.3,0.5,0.2,0.9-0.1c0.3-0.3,0.8-0.6,1.2-0.8c0.5-0.3,0.8-0.7,1.3-1c0.3-0.1,0.7-0.5,0.4-1.1
		c-0.5,0.5-1.2,0.5-1.5,1.2c-0.1,0.1-0.3,0.2-0.4,0.2c-0.7,0-1.3,0.4-2,0.7c-0.2,0.1-0.3,0.3-0.4,0.4c-0.6,0-1.3,0.1-1.9,0.2
		c-0.2,0-0.3,0.2-0.4,0.3c-0.6,0.5-0.8,0.4-1.3-0.1c0,0-0.1-0.1-0.2-0.1c-0.4,0.3-0.8,0.6-1.2,1c0.2,0.1,0.3,0.1,0.4,0.1
		c-0.1,0.7-1,0.3-1.2,0.8c0.4,0.6,0.6,0.5,1.1,0.3c0.3-0.2,0.7-0.3,1-0.5c0.1,0.2,0.3,0.4,0.4,0.6c0,0,0,0.1-0.1,0.1
		c-1-0.3-1.6,0.3-2.3,0.8c-0.2,0.1-0.3,0.3-0.1,0.6c0.1,0.2,0.1,0.5,0.1,0.8c0,0.3-0.1,0.6-0.1,0.9c0,0.5,0.1,0.9,0.2,1.4
		c0.1,0.3,0.2,0.6-0.1,0.9c-0.1,0-0.1,0.3-0.1,0.3c0.6,0.3,0.1,0.9,0.4,1.3c0.1,0.2-0.1,0.6-0.2,0.9c0.1,0.1,0.2,0.2,0.3,0.3
		c0,0.4,0.1,0.8,0.1,1.2c0,0.2,0,0.5-0.1,0.7c0,0.1-0.1,0.2-0.1,0.2c0.6,0.4,0,1,0.2,1.5c0.2,0,0.4,0,0.6,0c0,0.1,0,0.2,0,0.2
		c0,0.1-0.1,0.3-0.1,0.3c0.4,0.6,0.3,1.2,0.2,1.8c0,0.2,0,0.4,0.1,0.5c0.3,0.4,0.3,0.8,0.4,1.2c0.1,0.5,0.2,0.9,0,1.4
		c-0.1,0.2,0,0.4,0,0.6c0.2,0.6,0.1,1.3,0.1,1.9c0,0.4-0.3,0.8-0.6,1c-0.7,0.6-1.2,1.2-1.4,2.1c-0.1,0.7-0.7,1.1-1.2,1.4
		c-0.3,0.2-0.6,0.4-1.1,0.6c0,0,0-0.1-0.1-0.2c-0.4-1.1-1.1-1.9-1.7-2.9c-0.1-0.2-0.2-0.5-0.3-0.8c-0.3-1.3-1.1-2.3-1.7-3.4
		c0.4-0.4,0.2-0.7-0.1-1.1c-0.1,0.2-0.2,0.4-0.3,0.5c0,0-0.1-0.1-0.1-0.1c0-0.2,0.1-0.5,0.1-0.7c0-0.3,0-0.6-0.2-0.9
		c-0.4-0.4-0.3-1,0.2-1.4c0.1-0.1,0.2-0.1,0.3-0.2c0.6-0.5,0.7-0.8,0.5-1.6c-0.3,0.1-0.6,0.3-0.9,0.4c0,0-0.1-0.1-0.1-0.1
		c-0.2,0.6-0.4,1.2-0.5,1.8c0,0-0.1,0-0.1,0c0-0.4,0.1-0.8,0.1-1.1c0-0.4-0.1-0.8-0.2-1.2c-0.1-0.5-0.3-0.9-0.1-1.4c0,0,0-0.1,0-0.1
		c-0.2-0.5-0.4-1-0.6-1.7c-0.2,0.7-0.3,1.2-0.5,1.7c-0.2-0.1-0.3-0.3-0.5-0.4c0-0.1,0.1-0.2,0.2-0.3c-0.1-0.3-0.2-0.6-0.3-0.8
		c0,0,0.1-0.1,0.2-0.2c0.1,0.2,0.1,0.4,0.1,0.6c0.1,0,0.1,0,0.2-0.1c0.1-0.3,0.3-0.5,0.4-0.8c0.1-0.2,0.1-0.4,0-0.5
		c-0.1-0.2-0.3-0.2-0.5,0c-0.1,0.1-0.2,0.2-0.3,0.4c-0.1,0.4-0.4,0.4-0.8,0.3c0.3-0.2,0.4-0.5,0.4-0.8c0-0.3,0.1-0.7,0.5-0.7
		c0.1,0,0.1-0.1,0.2-0.2c-0.9-0.6-1-0.9-0.7-1.8c0,0.5,0.2,0.9,0.6,1.2c0.2-0.3,0.4-0.6-0.2-0.8c0.4-0.1,0.5-0.4,0.4-0.7
		c-0.2-0.8-0.3-1.6-0.4-2.4c0-0.1,0-0.4,0.1-0.4c0.5-0.3,0.3-0.9,0.5-1.4c0.1-0.2-0.1-0.4-0.1-0.7c-0.2,0.1-0.3,0.1-0.6,0.2
		c0-0.3,0-0.5,0-0.7c0.2-0.4,0.1-0.7,0-1.1c-0.1-0.2-0.1-0.3-0.2-0.4c-0.3-0.4-0.4-0.7-0.2-1.2c0.1-0.3,0.2-0.7,0.4-0.9
		c0.1-0.2,0.4-0.4,0.7-0.6c-0.1-0.3-0.1-0.8-0.6-0.9c-0.1,0-0.2,0.1-0.3,0.2c-0.1-0.1-0.2-0.3-0.4-0.4c-0.1,0.2-0.3,0.4-0.4,0.6
		c-0.1-0.1-0.1-0.1-0.2-0.2c0.2-1.1,0.4-2.2,0.6-3.2c0-0.3,0.2-0.6-0.3-0.8c0.2-0.5,0.5-0.9,0.5-1.3c0-0.6,0.2-1,0.4-1.4
		c0.1-0.2,0-0.6,0.4-0.6c0-0.2,0-0.5,0-0.7c0-0.1-0.2-0.2-0.3-0.3c0.2-0.1,0.4-0.2,0.6-0.4c0-0.1,0-0.1,0-0.2
		c-0.2,0-0.4-0.1-0.6-0.1c-0.3-0.4,0-0.9,0-1.3c0-0.4,0.1-0.9,0.2-1.3c0-0.2,0.1-0.4-0.3-0.6c-0.1,0.2-0.1,0.4-0.2,0.7
		c-0.3-0.7,0.1-1.2,0-1.7c0.4-0.2,0.7-0.4,0.7-0.9c0-0.1-0.3-0.2-0.4-0.3c0.1-0.2,0.2-0.5,0.3-0.8c-0.4,0-0.6,0.1-0.9,0.1
		c0-0.2,0.1-0.4,0.1-0.6c0.2,0.1,0.3,0.2,0.4,0.3c0.2-0.3,0.4-0.5,0.5-0.8c0.1-0.2,0.2-0.5,0-0.7c-0.1-0.2-0.1-0.4-0.2-0.7
		c-0.3,0.1-0.5,0.2-0.7,0.2c-0.4-1,0.3-1.5,0.9-2c0-1.5-0.1-2.9-0.1-4.4c-0.2,0-0.4,0-0.6-0.1c-0.1-0.5,0.3-0.3,0.5-0.5
		c0.1-0.4,0.1-0.7-0.3-1c0.4-0.3,0.5-0.7,0.1-1c-0.2-0.2-0.3-0.3-0.2-0.5c0.3-0.8-0.1-1.6-0.1-2.5c0-0.3,0-0.6-0.1-0.9
		c0-0.3-0.1-0.5-0.2-0.8c-0.1-0.3-0.3-0.7-0.2-1.1c0.1-0.1-0.1-0.4-0.2-0.5c-0.1-0.2-0.2-0.3-0.3-0.5c0.8-0.4,1.4-0.7,2.3-0.6
		c0.6,0.1,1.3,0.3,1.9,0.1c0,0,0.1,0,0.1,0c0.9,0.4,1.4-0.3,2-0.6c0.2-0.1,0.5-0.3,0.8-0.4c0.8-0.5,1.5-1,2.3-1.5
		c0.4-0.3,0.8-0.5,1.3-0.7c0.8-0.4,1.6-0.8,2.3-1.2c0.2-0.1,0.4-0.2,0.6-0.3c0.1-0.1,0.3-0.2,0.5-0.2c0.6,0.1,0.9-0.3,1.4-0.5
		c0.8-0.4,1.6-0.8,2.4-1.2c0.6-0.2,1.1-0.4,1.7-0.6c1.1-0.4,2.1-0.9,3.2-1.3c1.1-0.4,2.2-0.7,3.3-0.8c0.5-0.1,1-0.3,1.5-0.4
		c0.4-0.1,0.9,0,1.3,0c0.6-0.1,1.2-0.2,1.8-0.3c0.1,0,0.3-0.2,0.4-0.2c1.1,0,2.3,0,3.4,0c0.9,0,1.8,0,2.7,0.2c0.4,0.1,0.9,0,1.4,0
		c1.1,0,2.1,0.5,3.2,0.8c0.1,0,0.2,0.1,0.2,0.2c0.3,0.1-0.2,0.5,0.3,0.5c0.1,0,0.3,0.3,0.4,0.5c0.2,0.2,0.4,0.4,0.7,0.5
		c0.2,0,0.4,0.2,0.6,0.3c0.3,0.6,0.9,0.8,1.4,1.3c0.3,0.3,0.6,0.6,0.9,0.9c0.1,0,0.2,0,0.4,0c0.1-0.1,0.1-0.3,0.2-0.4
		c0.2-0.3,0.6-0.3,0.8-0.1c0.4,0.4,0.7,0.8,1,1.3c0.2,0.3,0.3,0.7,0.3,1.2c-0.1,0.4,0.2,0.9,0.3,1.4c0.1,0.5,0.5,0.9,0.6,1.5
		c0,0.8,0.1,1.6,0.2,2.4c0.1,0.8,0.2,1.6,0.2,2.5c0,1,0.1,2-0.5,3c-0.1,0.2-0.1,0.4-0.1,0.6c-0.2,0.6-0.3,1.2-0.5,1.7
		c0,0.1-0.1,0.2-0.1,0.3c0,0.4-0.2,0.7-0.5,1c-0.3,0.3-0.4,0.7-0.6,1.1c-0.2,0.5-0.2,1.1-0.6,1.5c-0.2,0.2-0.3,0.5-0.3,0.8
		c0,0.4-0.1,0.6-0.4,0.8c-0.3,0.2-0.3,0.4-0.4,0.7c-0.2,0.4-0.4,0.7-0.7,1.1c-0.1,0.1-0.3,0.3-0.3,0.4c0,0.7-0.5,1.1-0.9,1.5
		c-0.3,0.2-0.6,0.4-0.8,0.7c-0.2,0.2-0.2,0.6-0.4,0.8c-0.3,0.2-0.3,0.4-0.4,0.7c-0.1,0.3-0.4,0.5-0.6,0.8c-0.3,0.7-0.8,1.1-1.2,1.7
		c-0.1,0.1-0.3,0.2-0.5,0.3c-0.7,0.5-1.1,1.3-1.6,2c-0.1,0.2-0.3,0.3-0.4,0.4c-0.1,0.1-0.2,0.2-0.3,0.3c-0.3,0.4-0.5,0.8-0.8,1.1
		c-0.1,0.2-0.5,0.2-0.6,0.3c-0.3,0.3-0.6,0.7-0.8,1.1c-0.3,0.5-0.5,0.9-1.1,1.1c-0.2,0-0.3,0.2-0.4,0.3c-0.6,0.5-1.2,0.9-1.8,1.4
		c0,0-0.1,0.1-0.1,0.1c-0.7-0.1-1,0.6-1.6,0.8c-0.3,0.1-0.6,0.2-0.9,0.4c-0.2,0.1-0.4,0.1-0.5,0.2c-0.6,0.8-1.6,1-2.4,1.5
		c-0.1-0.2-0.1-0.3-0.2-0.5c-0.2,0-0.4,0-0.6,0c-0.4-0.2-0.5,0.1-0.8,0.2c-0.3,0.2-0.6,0.4-0.9,0.6c-0.2,0.1-0.4,0.3-0.5,0.5
		c-0.2,0.3-0.5,0.4-1,0.4c0.2-0.2,0.3-0.3,0.3-0.5c0-0.1-0.1-0.3-0.2-0.3c-0.1,0-0.3,0-0.3,0.1c-0.2,0.8-1,1-1.6,1.4
		c-0.3,0.2-0.5,0.4-0.8,0.6c-0.4,0.3-0.9,0.5-1.3,0.9c-0.6,0.5-1.5,0.7-2,1.4c-0.3,0.4-0.7,0.6-1,0.9c-0.3,0.2-0.7,0.4-1.1,0.1
		c0.7-0.8,1.4-1.5,1.7-2.5c0-0.1-0.1-0.2-0.1-0.3c-0.4,0.3-0.5,1-1.3,0.8c0.2-0.1,0.3-0.3,0.5-0.4c-0.1-0.3-0.2-0.5-0.3-0.8
		c-0.4,0.3-0.7,0.8-1.3,0.6C123.1,94.1,123.9,93.6,124.9,93.4L124.9,93.4z M133,52.6C133,52.6,133,52.6,133,52.6
		c0-0.1-0.1-0.3-0.1-0.4c-0.9,0.1-1.7,0.5-2.4,0.9c-0.6,0.3-1.2,0.4-1.7,0.9c-0.3,0.3-0.7,0.4-1.1,0.6c-0.2-0.2-0.4-0.2-0.8-0.1
		c-0.3,0.1-0.7,0-0.8,0.3c-0.3,0.4-0.7,0.5-1.1,0.6c-0.3,0.1-0.5,0.1-0.8,0.2c-0.8,0.4-1.7,0.7-2.5,1.1c-0.5,0.3-1.1,0.5-1.6,0.7
		c-0.9,0.4-1.9,0.9-2.7,1.5c-0.1,0.1-0.3,0.1-0.4,0.2c-0.6,0.3-1.2,0.7-1.7,1c0.2,0.4,0.3,0.6,0.4,0.9c0.1,0.4,0.1,0.9,0,1.3
		c-0.1,0.2-0.1,0.5,0,0.8c0,0.1,0.2,0.2,0.3,0.2c-0.1,0.4-0.2,0.7-0.2,1c0.2,0.1,0.4,0.1,0.6,0.2c-0.3,0.2-0.4,0.4-0.6,0.6
		c0.3,0.2,0.4,0.4,0.4,0.8c0,0.3,0.1,0.6-0.2,0.9c0.1,0.1,0.2,0.2,0.3,0.3c-0.1,0.4-0.3,0.7-0.4,1.1c0.6,0.8-0.1,1.7,0.2,2.6
		c0,0-0.1,0.1-0.1,0.2c0,0.5-0.4,1.1,0.1,1.7c0.1,0.1,0,0.4,0,0.6c0,0.4-0.4,0.7,0,1.1c0,0,0,0.2,0,0.2c-0.4,0.3,0,0.6,0.2,0.8
		c-0.2,0.3-0.7,0.5-0.5,1c0.6,0.2,0.4-0.4,0.7-0.7c0.1,0.6,0.1,1.1,0.2,1.7c-0.2,0.4-0.6,0.7-0.5,1.4c0.2-0.3,0.4-0.5,0.6-0.6
		c0.7,0.4-0.1,0.9,0.1,1.4c0.6-0.4,0.2-1.3,0.8-1.7c0,0.3,0,0.6,0.1,0.8c0.3,0.6,0.2,1.2,0.2,1.8c-0.1,0.9-0.8,1.6-0.5,2.5
		c-0.3,0.9-0.3,1.8-0.2,2.7c0,0.3-0.1,0.4-0.3,0.5c-0.1,0-0.2,0.1-0.3,0.2c0.5,0.1,0.4,0.7,0.8,0.9c0.2-0.2,0.4-0.3,0.7-0.5
		c0.3,0.4,0,0.7,0,1c-0.2-0.2-0.4-0.3-0.6-0.5c0,0.1,0.1,0.1,0.1,0.2c-0.3,0.1-0.5,0.3-0.9,0.4c0.4,0.1,0.6,0.2,0.8,0.3
		c0,0.2-0.1,0.3-0.1,0.5c0.5,0.1,0.7,0.3,0.6,0.8c-0.1,0.2,0.2,0.5,0.2,0.7c0.6,0,0.5-0.6,0.7-0.8c0.2,0.1,0.4,0.2,0.7,0.4
		c0.1,0.2,0.2,0.4,0.3,0.7c0.4-0.2,0.7-0.3,1-0.5c0,0.2-0.1,0.4-0.1,0.5c-0.3,0-0.6,0-0.8,0.1c-0.1,0-0.2,0.3-0.3,0.4
		c0.1,0.1,0.3,0.2,0.4,0.2c0.2,0,0.3-0.1,0.7-0.1c-0.2,0.3-0.5,0.4-0.5,0.8c0,0.2-0.5,0.3-0.7,0.4c-0.1,0.1-0.2,0.2-0.3,0.3
		c-0.1,0.3-0.1,0.6-0.2,0.9c0.5-0.1,0.5,0,0.6-0.3c0.2-0.5,0.7-0.8,1.2-1c0.6-0.3,0.8-0.8,1.1-1.1c-0.1-0.4-0.1-0.6-0.1-0.8
		c0-0.1,0-0.2,0-0.3c-0.1-0.6,0-0.8,0.6-0.9c0.3-0.1,0.6-0.2,0.9-0.4c0.4-0.3,0.8-0.7,1.3-1.1c0.3-0.3,0.9-0.3,1-0.8c0,0,0,0,0.1,0
		c0.7,0,0.8-0.7,1.3-1.2c-0.3,0-0.4,0-0.7,0.1c0.2-0.2,0.4-0.2,0.5-0.3c0.3-0.3,0.7-0.5,1.2-0.3c0.3,0.1,0.5-0.1,0.6-0.3
		c0.2-0.3,0.3-0.7,0.6-1c0.4-0.4,0.9-0.7,1.3-1.1c0.1-0.1,0.2-0.3,0.3-0.5c0.7-0.1,0.7-0.1,0.8-0.7c0.1-0.2,0.7,0,0.5-0.5
		c-0.5,0-1.1,0.1-1.5,0.4c-0.4,0.3-0.7,0.2-1-0.2c0.7-0.4,1.3-0.8,2-1.3c0.5-0.4,1.1-0.6,1.8-0.5c0.1-0.2,0.3-0.5,0.4-0.7
		c0.1-0.1,0.2-0.3,0.3-0.4c0.6-0.3,0.8-0.8,1.2-1.3c-0.3,0-0.5,0-0.8,0c0.5-0.4,0.5-0.4,1-0.4c0.2,0,0.4-0.1,0.6-0.2
		c0.3-0.1,0.1-0.4,0.2-0.7c0.4,0.1,0.8,0,1-0.5c0.2-0.5-0.4-0.4-0.6-0.8c0.2-0.1,0.3-0.2,0.4-0.3c0.1-0.1,0.4-0.3,0.4-0.4
		c0-0.4,0.2-0.7,0.4-1c0.2-0.3,0.4-0.5,0.6-0.8c0.5-0.7,1-1.4,1.6-2c1.7-1.7,3.1-3.6,4.3-5.6c0.5-0.9,0.9-1.8,1.5-2.6
		c0.9-1.3,1.4-2.7,1.6-4.3c0.2-1.3,0.4-2.6,0.2-4c-0.3-1.2-0.2-1.2-1.2-2c-0.7-0.5-1.3-0.3-2.1-0.1c-0.1-0.4-0.5-0.6-1-0.5
		c-0.8,0-1.6,0-2.3,0.1c-0.8,0.1-1.6-0.2-2.3,0.4c-0.1,0.1-0.2,0-0.3,0c-0.5-0.1-1,0.5-1.5,0c0,0-0.1,0.1-0.2,0.1
		c-0.3,0.1-0.5,0.3-0.8,0.4c-0.5-0.3-0.9-0.2-1.3,0.3c-0.2,0.2-0.5,0.4-0.9,0.3C133.2,52.4,133.1,52.5,133,52.6z M115.6,103.5
		c-0.2,0.5-0.6,0.8-0.2,1.2c0.3,0.3,0.3,0.5,0.4,0.8c0,0.1,0.1,0.1,0.3,0.3C115.9,104.9,116.3,104.2,115.6,103.5z M134.8,86.6
		c-0.3-0.5-0.4-0.6-0.7-0.2c-0.1,0.2-0.3,0.3-0.5,0.5c-0.2,0.2-0.4,0.3-0.7,0.5C133.8,87.5,134.2,86.8,134.8,86.6z M109.9,88.7
		c-0.1-0.4-0.2-0.8-0.3-1.2c0,0-0.1,0-0.1,0c-0.1,0.3-0.2,0.7-0.4,1C109.5,88.1,109.6,88.9,109.9,88.7z M110.4,85.9
		c-0.7,0.3-1.1,0.6-1.1,1.3C109.7,86.9,110.2,86.6,110.4,85.9z M111.6,105.4c0.4-0.4,0.6-1.1,0.4-1.3c0,0-0.1-0.1-0.2-0.1
		c-0.1,0-0.2,0-0.2,0.1C111.7,104.5,111.7,104.9,111.6,105.4z M119.2,108.6c0.4-0.6,0.4-0.8,0-1.2
		C119.1,107.8,118.9,108.1,119.2,108.6z M131.6,89.2c-0.4-0.1-0.4-0.1-0.7,0.2C131.2,89.5,131.4,89.6,131.6,89.2z M133.1,89
		c0.1-0.2,0.2-0.4,0.2-0.5c0-0.1-0.1-0.3-0.2-0.3c-0.1,0-0.3,0.1-0.3,0.2C132.8,88.5,132.9,88.7,133.1,89z M114.8,95.4
		c0.1,0,0.2,0,0.2,0.1c0.2-0.2,0.2-0.3-0.1-0.6C114.9,95,114.9,95.2,114.8,95.4z M109.8,70.9c-0.2,0.1-0.3,0.1-0.6,0.2
		C109.6,71.3,109.7,71.3,109.8,70.9z M109.4,84.7c-0.2,0.1-0.3,0.3-0.2,0.5C109.5,85.1,109.6,85,109.4,84.7z M126.4,91.3
		c-0.2-0.3-0.3-0.3-0.5-0.1c0,0,0,0.1,0,0.2C126,91.4,126.2,91.3,126.4,91.3z M110,102.7c0,0,0.1,0,0.1,0c0-0.1,0-0.2,0-0.3
		c0,0-0.1,0-0.1,0C110,102.5,110,102.6,110,102.7z M124.6,92.1c0-0.1,0-0.2,0-0.2c-0.2,0-0.3,0.1-0.5,0.1c0,0.1,0,0.1,0,0.2
		C124.2,92.2,124.4,92.1,124.6,92.1z"/>
	<path class="st0" d="M147.9,106.9c0.3,0.4,0.6,0.8,0.9,1.1c0.8,0.7,1.5,1.5,2.1,2.4c0.1,0.1,0.1,0.1,0.2,0.2c0.7,0.6,1,1.4,1,2.4
		c0,0.3,0,0.5-0.3,0.5c-0.2,0-0.4,0-0.6-0.2c-0.2-0.1-0.2-0.4-0.4-0.6c-0.7-0.9-1.4-1.8-2.1-2.6c-0.4-0.4-0.8-0.7-1.2-1.1
		c-0.2-0.2-0.4-0.2-0.6-0.1c-0.1-0.2-0.2-0.4-0.4-0.6c0,0-0.1,0-0.1,0c0,0.3,0,0.6,0.1,0.8c0.1,0.9,0.1,1.7,0.2,2.6
		c0.1,0.8-0.1,1.5,0.1,2.3c0.1,0.7,0.1,0.8-0.6,1.1c-0.1,0-0.2,0.1-0.3,0.2c-0.2-0.2-0.4-0.3-0.5-0.5c0.2-0.6,0.3-1.1-0.1-1.7
		c-0.1-0.2-0.1-0.6,0-0.8c0.1-0.5-0.1-0.8-0.3-1.2c-0.1-0.1-0.1-0.3-0.2-0.4c-0.1-0.6-0.2-1.1-0.3-1.7c-0.3,0.2-0.2,0.5-0.2,0.7
		c0,0.5,0,1-0.1,1.5c0,0.3-0.2,0.6-0.2,1c0,0.4-0.3,0.8-0.6,1.1c-0.2,0.2-0.6,0.4-1,0.4c-1-0.1-1.8-0.4-2.6-1.1
		c-0.7-0.6-1-1.4-1.6-2.1c-0.6,0.1-1.1-0.2-1.3-0.8c-0.1-0.3-0.3-0.6-0.4-1c-0.2-0.5-0.3-0.6-0.8-0.4c-0.3,0.1-0.5,0.3-0.8,0.4
		c-0.3,0.2-0.6,0.3-1,0.4c-0.4,0.2-0.6,0.4-0.4,0.8c0.2,0.4,0.2,0.8,0.2,1.3c0,0.6,0.2,1.2,0.3,1.8c0,0.1,0.1,0.3,0.1,0.4
		c-0.1,0.6,0.1,1.2,0.2,1.7c0.1,0.2-0.1,0.5-0.1,0.9c0,0,0.1,0.1,0.1,0.2c0,0.2,0,0.4-0.1,0.5c-0.1,0.1-0.3,0.1-0.5,0.1
		c-0.4-0.1-0.6-0.3-0.8-0.6c-0.3-0.6-0.6-1.2-0.8-1.8c-0.3-0.6-0.5-1.3-0.6-2c-0.1-0.6-0.2-1.2-0.3-1.8c0-0.1,0-0.2,0-0.4
		c-0.1,0-0.1-0.1-0.1-0.1c-0.3,0.1-0.6,0.5-1.1,0.2c-0.3-0.2-0.7-0.1-1-0.4c-0.2-0.2-0.5-0.2-0.7-0.3c-0.2-0.1-0.4-0.1-0.5-0.4
		c0.4,0,0.7,0,1,0c0.6-0.1,1.2-0.2,1.8-0.3c0.3-0.1,0.3-0.1,0.7-0.5c-0.5-0.3-0.4-0.9-0.5-1.3c-0.1-0.4-0.1-0.8-0.1-1.2
		c-0.9,0-1.9-0.5-2.4-1.3c0.6,0,1.1,0,1.7,0.1c-0.1-0.3-0.2-0.5-0.2-0.7c0.5-0.8,1.3-0.8,2.1-0.9c0.2,0,0.3,0.2,0.5,0.3
		c0.2,0.2,0.3,0.4,0.4,0.5c0.6-0.1,1.2-0.2,1.7-0.4c0.8-0.3,1.8-0.4,2.6-0.7c0.6-0.2,1.2-0.2,1.8,0.3c-0.3,0.5-0.7,0.9-1.2,1
		c-0.7,0.3-1.4,0.4-2.1,0.6c-0.7,0.2-1.4,0.5-2,0.6c-0.6,0.1-0.7,0.4-0.6,0.9c0,0.4,0.2,0.9,0.3,1.3c0.1,0.3,0.3,0.3,0.5,0.2
		c0.4-0.2,0.8-0.3,1.1-0.5c0.5-0.2,1.1-0.3,1.6-0.5c0.2-0.1,0.3-0.1,0.5-0.2c-0.2-0.2-0.3-0.3-0.4-0.5c0.2,0,0.3,0,0.5,0
		c0.5-0.1,1-0.1,1.4-0.5c0.5-0.3,1-0.6,1.6-0.7c0.4-0.1,0.8-0.2,1.2-0.2c0.7,0,1.2,0.3,1.8,0.5c0.6,0.2,0.8,0.7,0.8,1.2
		c0,0.5,0,1,0.4,1.4c0,0,0.1,0,0.1,0.1c0-0.2,0-0.3,0-0.4c-0.2-0.5-0.1-1.1-0.1-1.6c0-0.9-0.1-1.8-0.3-2.6c-0.1-0.6-0.4-1.2-0.6-1.8
		c-0.1-0.2-0.1-0.3-0.1-0.5c0.4,0,0.8,0,1.2,0c0.1,0,0.2,0,0.2,0.1c0.5,0.5,1.2,0.6,1.8,0.6c0.8-0.1,1.6,0.2,2.2,0.6
		c0.5,0.3,1,0.7,1.4,1.2c0.3,0.3,0.4,0.8,0.4,1.2c0,0.3-0.3,0.7-0.5,0.9c-0.4,0.4-0.9,0.9-1.4,1.2
		C148.4,106.8,148.2,106.8,147.9,106.9z M139,107.5c0.1,0.3,0.2,0.5,0.2,0.8c0,0.1,0.1,0.3,0.1,0.4c-0.2,0.6,0.1,1.1,0.4,1.6
		c0.2,0.4,0.6,0.6,0.9,1c0.3,0.3,0.5,0.4,0.7-0.1c0.2-0.4,0.2-0.8,0.3-1.2c0-0.4,0-0.8,0-1.2c-0.1-0.4-0.2-0.8-0.6-0.9
		c-0.4-0.1-0.7-0.2-1.1-0.3c0-0.1,0-0.3,0-0.5C139.5,107.2,139.3,107.3,139,107.5z M147.1,103c0-0.1,0-0.1,0-0.2
		c-0.5,0.7-0.6-0.4-1.1-0.1c0,0.4-0.2,1,0.3,1.3c0,0,0.1,0,0.1,0c0.3-0.2,0.6-0.4,0.9-0.6C147.2,103.3,147.2,103.2,147.1,103z"/>
	<path class="st0" d="M58.4,97.1c0.4-0.2,0.7-0.2,1-0.2c0.3,0,0.6,0,0.9-0.1c1.1-0.2,2.1-0.5,3.2-0.7c0.8-0.2,1.6-0.4,2.3-0.6
		c0.3-0.1,0.6-0.3,0.9-0.5c0.1,0,0.1-0.1,0.1-0.2c0.1-0.5,0.1-0.5,0.5-0.9c0-0.2,0-0.3-0.1-0.5c-0.1,0-0.2,0-0.3-0.1
		c0.2-0.2,0.4-0.3,0.6-0.5c-0.2-0.3-0.3-0.8-0.1-1.3c0.2-0.9,0.5-1.8,0.7-2.8c0-0.1,0-0.2,0.1-0.2c0.4-0.2,0.3-0.5,0.3-0.9
		c0-0.1,0-0.2,0-0.2c0.2-0.6,0.4-1.1,0.5-1.7c0-0.1,0.1-0.3,0-0.4c-0.2-0.8-0.4-1.6-0.6-2.4c-0.1-0.2-0.1-0.5-0.1-0.7
		c0.7-0.4,1.2,0,1.6,0.4c0.2,0.2,0.3,0.3,0.5,0.3c0.5,0.1,0.6,0.4,0.7,0.8c0.1,0.4,0.2,0.8,0.2,1.1c0,0.1,0,0.3,0,0.4
		c-0.3,0.5-0.2,0.9-0.1,1.4c0.1,0.3,0.2,0.6,0.3,0.9c0,0.1,0,0.2,0,0.3c0,0,0,0,0,0c0.4,0.3,0.2,0.7,0.4,1.1c0,0.1,0.2,0.1,0.3,0.1
		c0.1,0.4,0.1,0.8,0.2,1.2c0.3,0.1,0.3,0.4,0.4,0.6c0.2,0.4,0.2,0.9,0.5,1.3c0,0.1,0,0.2,0,0.3c-0.1,0.5-0.1,0.6,0.4,0.8
		c0.1,0.4,0.2,0.9-0.3,1.2c0.3,0.2,0.6,0.4,0.6,0.7c0,0.3,0.1,0.6,0,0.9c-0.1,0.3,0,0.6,0.1,0.8c0.1,0.2,0.1,0.5-0.2,0.7
		c0.2,0.1,0.3,0.2,0.3,0.5c0,0.5-0.1,1,0.1,1.4c0.1,0.4,0.3,0.9,0.4,1.3c0.1,0.1,0.1,0.3,0.1,0.4c0.1,0.2,0.1,0.4-0.2,0.5
		c0.6,0.2,0.6,0.7,0.7,1.1c0.1,0.5,0.3,1,0.4,1.5c0,0.2,0.1,0.4,0,0.6c-0.1,0.4-0.3,0.7-0.7,0.8c0,0,0,0,0,0c0-0.6-0.4-1.1-0.5-1.6
		c0-0.1-0.1-0.3-0.1-0.5c-0.1-0.1-0.2-0.2-0.3-0.4c-0.2-0.3-0.4-0.7-0.6-1.1c0-0.1-0.1-0.2-0.1-0.2c-0.2-0.8-0.3-1.6-0.5-2.4
		c-0.1-0.2-0.2-0.5-0.3-0.7c-0.3-0.4-0.3-0.9-0.4-1.3c-0.1-0.7-0.2-1.3-0.4-2c0-0.1,0-0.3-0.1-0.4c-0.2,0-0.3,0.1-0.4,0.1
		c-0.8,0.2-1.5,0.4-2.3,0.6c0,0-0.1,0-0.1,0c-0.5-0.2-0.8,0.2-1.1,0.4c-0.2,0.1-0.2,0.5-0.3,0.8c-0.1,0.7-0.3,1.4-0.5,2.1
		c-0.1,0.1,0,0.3,0,0.4c-0.1,0.3-0.1,0.7-0.2,1c-0.3,0.1-0.4-0.3-0.6-0.4c0-0.2,0.1-0.5,0.1-0.7c0.1,0,0.2,0,0.4,0
		c-0.2-0.2-0.3-0.3-0.4-0.4c0.1-0.5,0.4-0.9,0.2-1.5c-0.1,0.1-0.1,0.2-0.2,0.3c0,0-0.1,0-0.1,0c0.1-0.5,0.2-0.9,0.2-1.4
		c-1.3,0.5-2.6,0.9-3.9,1c-0.3,0-0.7,0.1-1,0.2c-0.2,0.1-0.4,0.2-0.6,0.3c-0.5-0.1-1-0.1-1.5-0.3C59.2,97.8,58.7,97.6,58.4,97.1z
		 M71.5,93.5c-0.4-1.3-0.3-2.6-0.9-3.9c-0.1,0-0.1,0-0.1,0c0,0.1-0.1,0.1-0.1,0.2c-0.2,0.9-0.4,1.7-0.7,2.6
		c-0.1,0.4-0.2,0.4-0.6,0.4c-0.1,0-0.1,0.1-0.3,0.1c0.2,0.1,0.3,0.1,0.4,0.1c-0.2,0.2-0.3,0.5-0.4,0.6c-0.3-0.1-0.5-0.1-0.8-0.2
		c-0.1,0.2-0.4,0.2-0.3,0.5c0.4-0.1,0.8-0.1,1.1,0.1c0.2,0.1,0.4,0.1,0.5,0C70,93.9,70.7,93.7,71.5,93.5z M74.8,101.1
		C74.7,101.1,74.7,101,74.8,101.1c-0.1,0-0.2,0-0.3,0.1c-0.1,0.1-0.1,0.2-0.1,0.2c0,0,0.1,0.1,0.1,0.1c0.1,0,0.2-0.1,0.2-0.1
		C74.7,101.3,74.7,101.2,74.8,101.1z"/>
	<path class="st0" d="M99.5,64.3c-0.1-0.1-0.1-0.2-0.1-0.2c-0.2-0.1-0.3-0.3-0.2-0.5c0.1-0.1,0.3-0.3,0.4-0.3c0.3-0.1,0.6-0.1,0.8,0
		c0.6,0.2,1.3,0.1,1.9,0.4c0.4,0.2,0.4,0.2,0.5,0.7c0.3,0.1,0.6,0.2,0.9,0.3c-0.5,0.4-0.4,0.8-0.3,1.2c0.3,1.5,0.5,2.9,0.4,4.4
		c0,0.6,0.3,1.1,0.3,1.7c0,0.4,0.1,0.7,0.1,1.1c0,0.1,0,0.2,0,0.2c0.4,0.6,0.2,1.3,0.4,2c0,0.2,0,0.3,0,0.5c-0.2,0.7,0,1.3,0.2,1.9
		c0,0.2,0,0.5-0.1,0.7c-0.2,0.3-0.2,0.7-0.1,1c0.3,0.4,0.2,0.9,0.2,1.4c-0.1,0.4,0,0.7,0.1,1.1c0.2,0.7,0.3,1.4,0.2,2
		c-0.1,1,0.2,2.1-0.1,3.1c0.1-0.1,0.2-0.2,0.4-0.3c0.2,0.5,0.2,1,0,1.4c-0.2,0.6-0.2,1.2-0.1,1.8c0.1,0.4,0.2,0.7-0.1,1
		c-0.1,0.1-0.1,0.2-0.1,0.3c0.1,0.4-0.1,0.7-0.5,0.9c0.6,0.6,0.3,1.2,0,1.8c-0.3,0.5-0.4,1.1-0.3,1.7c0,0.1,0,0.2,0,0.2
		c0.5,0.5,0.1,0.9-0.2,1.2c0,0.3,0.1,0.6,0.1,0.8c0,0.3,0,0.6,0.1,0.9c0.2,1.1-0.1,2.1-0.3,3.1c0,0.2-0.2,0.3-0.5,0.3
		c-0.3,0-0.4-0.5-0.4-0.5c0.4-0.4,0-0.9,0.3-1.3c-0.5-0.1-0.8-0.4-0.9-1c0-0.3-0.2-0.7-0.4-1c-0.3-0.6-0.3-1.2-0.4-1.8
		c0-0.3-0.1-0.7-0.2-1c-0.3-0.5-0.3-1-0.4-1.5c0-0.6-0.3-1.2-0.2-1.9c0-1-0.5-2-0.3-3.1c0.1-0.5-0.1-1.2-0.4-1.7
		c-0.2-0.4-0.3-0.8-0.1-1.2c0.3-0.7,0.1-1.4-0.2-2c-0.1-0.2-0.2-0.3-0.2-0.5c0-0.7-0.1-1.4,0-2.1c0.1-0.8-0.1-1.9-0.1-2.7
		c0-0.4-0.3-3.2-0.5-4.3c-0.5-2-0.4-2.6-0.6-4.2c-0.1-0.8-0.1-1.5-0.3-2.3c-0.2-0.7,1-1.7,0.2-1.9c-0.4-0.1-0.4-0.4-0.2-0.6
		C98.6,65.1,98.8,64.5,99.5,64.3z"/>
	<path class="st0" d="M163.3,116.7c-0.2-0.3-0.3-0.4-0.4-0.6c-0.4-1.1-0.7-2.3-1-3.4c-0.1-0.4-0.2-0.9-0.2-1.3
		c-0.1-0.5-0.1-1-0.2-1.5c0-0.2-0.1-0.4-0.1-0.6c0-0.4-0.1-0.4-0.4-0.4c-0.6,0.1-1.3,0.2-1.9,0c-0.2,0-0.3,0.1-0.5,0.1
		c0,0.4,0.1,0.7-0.2,1c-0.1,0.1-0.1,0.5-0.1,0.7c0,0.5-0.2,0.8-0.5,1.1c-0.2,0.2-0.3,0.2-0.5,0c-0.2-0.3-0.4-0.5-0.2-0.9
		c0.2-0.6,0.2-1.2,0.3-1.7c-0.4,0-1,0-1.3-0.2c-0.5-0.2-1-0.5-1.1-1.3c0.3,0,0.5-0.1,0.8,0.1c0.2,0.1,0.5-0.1,0.7-0.1
		c0.2,0,0.4,0,0.5,0c0.3,0,0.6-0.1,0.6-0.4c0.1-0.8,0.2-1.5,0.4-2.3c0.3-1.2,0.4-2.3,0.4-3.5c0-0.2,0-0.4,0.1-0.6
		c-0.1-0.1-0.3-0.2-0.4-0.4c0,0,0-0.1,0-0.1c0.3,0,0.6-0.1,0.9-0.1c0.2-0.5-0.3-0.6-0.5-1c0.7-0.4,1.5-0.3,1.9,0.3
		c0.5,0.8,1,1.6,1.2,2.5c0.2,0.8,0.3,1.5,0.5,2.3c0.2,0.8,0.3,1.6,0.3,2.4c0,0.6,0.2,1.1,0.9,1.5c-0.2,0.2-0.3,0.3-0.4,0.4
		c-0.2,0.7,0,1.3,0.1,2c0.2,1.4,0.4,2.8,0.7,4.2c0.1,0.4,0,0.9,0,1.3C163.7,116.3,163.5,116.4,163.3,116.7z M160.1,101.3
		c0,0-0.1,0-0.1,0c0,0.1-0.1,0.2-0.1,0.3c0,0.4,0,0.7-0.1,1.1c-0.2,0.6-0.1,1.2-0.1,1.8c0,0.3,0,0.6-0.1,0.8c-0.2,0.5-0.4,1-0.5,1.5
		c-0.1,0.2,0,0.4-0.1,0.7c0.7-0.1,1.4-0.1,2-0.1c0-0.5,0-0.9,0-1.3c-0.1-0.7-0.3-1.5-0.4-2.2C160.4,103,160.3,102.2,160.1,101.3z"/>
	<path class="st0" d="M84.1,201.4c0.1,0,0.3,0,0.3-0.1c0.2-0.2,0.4-0.4,0.9-0.4c-0.2,0.3-0.3,0.7-0.5,0.9c-1.1,0.9-1.9,2.1-2.8,3.2
		c-0.3,0.4-0.6,0.8-0.9,1.3c-0.9,0.1-1.3,1-2,1.5c0,0.5,0.3,0.5,0.7,0.5c-0.8,0.4-1.1,1.1-1.7,1.7c-0.1,0.1-0.3,0.3-0.5,0.3
		c-0.1,0-0.2-0.1-0.3-0.1c0.6-0.7,1.5-1,1.6-2c-0.5,0.1-0.9,0.1-1.2,0.6c-0.1,0.2-0.4,0.3-0.6,0.4c-0.3,0.2-0.7,0.4-1,0.7
		c-0.3,0.2-0.4,0.5-0.4,0.9c0,0.3-0.1,0.5-0.5,0.4c0.1-0.3,0.4-0.7,0.3-0.9c-0.1-0.4,0.4-0.5,0.3-0.9c0-0.1,0.2-0.3,0.3-0.4
		c0.6-0.4,0.6-0.6,0.3-1.3c-0.4-0.1-0.7,0.2-0.9,0.5c-0.3,0.3-0.5,0.6-0.8,0.9c-0.2,0.3-0.4,0.5-0.7,0.8c0,0,0.1,0.1,0.1,0.1
		c0.3-0.1,0.7-0.3,1.1-0.5c0,0.5-0.4,0.3-0.5,0.6c-0.1,0.2-0.2,0.5-0.4,0.8c-0.1-0.3-0.1-0.4-0.2-0.6c-0.4,0.1-0.6,0.4-0.6,0.6
		c0,0.3-0.2,0.5-0.4,0.7c-0.3,0.3-0.7,0.6-0.8,1c-0.2,0.6-0.7,0.8-1.2,1.1c-0.1-0.3,0-0.4,0.2-0.5c0.3-0.1,0.5-0.3,0.5-0.6
		c0.2-0.7,0.5-1.2,1.2-1.4c0.4-0.2,0.4-0.7,0.6-1.1c0.1-0.2,0-0.5,0-0.7c0.5,0,0.5,0,0.8-0.3c0.3-0.4,0.6-1,1.1-1.3
		c0.4-0.3,0.9-0.6,1.3-0.9l0,0c0,0.1,0.1,0.2,0.2,0.3c0.5-0.8,1-1.6,1.5-2.4c0.1,0.3,0.1,0.4,0.2,0.7c0.3-0.7,0.8-1.1,1.1-1.7
		c0.2-0.4,0.5-0.8,0.9-1.1c0.7-0.6,1.4-1.2,2.1-1.8c0.1-0.1,0.2-0.1,0.3-0.2c0,0.7-0.7,1.1-0.4,1.8c0.5-0.1,0.8-0.6,1.2-0.9
		c0.1,0,0.1-0.1,0.1-0.2c0,0,0,0,0.1,0C84.2,201.3,84.2,201.4,84.1,201.4c-0.2,0.3-0.3,0.6-0.6,1C84.3,201.9,84.3,201.9,84.1,201.4z
		 M77.2,207.6c0.7,0.1,0.8,0,0.7-0.5C77.6,207.2,77.5,207.3,77.2,207.6z M82.6,202.9c0,0-0.1-0.1-0.1-0.1c-0.1,0.1-0.2,0.3-0.3,0.4
		c0,0,0.1,0.1,0.1,0.1C82.4,203.1,82.5,203,82.6,202.9z"/>
	<path class="st0" d="M69.2,176.2c0-0.4,0.1-0.9,0.1-1.4c-0.6,0.4-0.9,0.9-0.9,1.5c-0.5,0.1-0.9,0.4-1,1c-0.1,0.3-0.4,0.5-0.7,0.8
		c-0.2-0.2-0.3-0.4-0.4-0.6c0.1-0.1,0.3-0.2,0.3-0.2c-0.1-0.4,0.1-0.5,0.4-0.7c0.1-0.1,0.3-0.2,0.3-0.3c0.1-0.6,0.5-0.9,1-1.1
		c0.1,0,0.1-0.3,0.2-0.4c0.2-0.3,0.2-0.8,0.7-1c0.2-0.1,0.3-0.4,0.4-0.6c0.3-0.4,0.6-0.5,1-0.1c0.2-0.3,0.4-0.6,0.6-0.9
		c0.2-0.3,0.3-0.6,0.7-0.7c0.1-0.1,0.2-0.3,0.3-0.5c0.2-0.3,0.3-0.7,0.8-0.8c-0.1,0.6-0.5,1-0.8,1.5c-0.3,0.5-0.5,1-0.7,1.5
		c0.5,0,0.7-0.1,0.9-0.7c0.1-0.3,0.2-0.5,0.7-0.7c-0.1,0.3-0.1,0.6-0.2,0.7c-0.4,0.5-0.7,1-1.2,1.2c-0.3,0.1-0.5,0.4-0.7,0.6
		c-0.2,0.1-0.3,0.4-0.6,0.3c0.1-0.3,0.3-0.6,0.4-1c-0.2,0.1-0.5,0.1-0.7,0.1c-0.1,0.1-0.3,0.2-0.3,0.3c-0.1,0.6-0.1,1.1-0.2,1.8
		c0.3-0.1,0.6-0.3,1-0.4c0.1,0.4-0.1,0.6-0.3,0.7c-0.5,0.1-0.5,0.5-0.7,0.9c0.2,0,0.4,0,0.5-0.1c0,0.1-0.1,0.2-0.1,0.2
		c-0.2,0.1-0.5,0.2-0.7,0.3c-0.3,0.2-0.5,0.4-0.8,0.6c0-0.2-0.1-0.4-0.1-0.6c0.3-0.2,0.6-0.3,0.6-0.8
		C68.8,176.6,69.1,176.4,69.2,176.2c0,0.1-0.1,0.3-0.2,0.5C69.2,176.5,69.7,176.4,69.2,176.2z"/>
	<path class="st0" d="M81.4,200.8c-0.4,0.6-0.7,1.1-1,1.5c-0.2,0.3-0.4,0.5-0.8,0.5c-0.2,0-0.1,0.1-0.2,0.2
		c-0.1,0.2-0.3,0.3-0.5,0.4c-0.6,0.4-1.1,0.9-1.6,1.4c-0.4,0.4-0.9,0.6-1,1.3c0,0.1-0.2,0.2-0.3,0.2c-0.8,0.1-1.1,0.7-1.6,1.2
		c-0.1,0.1-0.1,0.1-0.2,0.2c-0.2-0.1-0.3-0.2-0.4-0.3c-0.2,0.2-0.4,0.5-0.5,0.7c-0.1,0-0.1,0-0.2,0c0-0.1,0-0.3,0.1-0.4
		c0.6-0.5,1.1-1.2,1.8-1.5c0.3-0.1,0.5-0.5,0.8-0.8c0.1-0.1,0.3-0.3,0.4-0.3c0.4-0.2,0.7-0.4,1.1-0.7c0.8-0.8,1.7-1.6,2.6-2.4
		c0.3-0.3,0.7-0.6,1-0.9C81,200.9,81.1,200.9,81.4,200.8z"/>
	<path class="st0" d="M67.4,213.2c0-0.2,0.1-0.5,0.1-0.7c0-0.2,0.1-0.5,0.1-0.8c-0.3,0-0.4,0.1-0.7,0.1c0.9-1.2,1.7-2.3,2.5-3.4
		c0.1,0.4,0.2,0.6,0.4,1c-0.1,0.1-0.3,0.3-0.5,0.5c-0.2,0.2-0.4,0.5-0.6,0.7c-0.2,0.3,0,0.5,0.3,0.6c-0.4,0.5-0.9,1-1.1,1.6
		C67.7,213,67.5,213.1,67.4,213.2L67.4,213.2z M68.4,210.7c0,0-0.1,0-0.1-0.1c-0.1,0.2-0.2,0.3-0.3,0.5c0,0.1,0.1,0.2,0.2,0.3
		c0.1-0.1,0.2-0.1,0.2-0.2C68.4,211,68.4,210.9,68.4,210.7z"/>
	<path class="st0" d="M70.3,211.4c-0.4,0.6-0.8,1.1-1.2,1.7c-0.3,0.4-0.6,0.7-1,1.3c0-0.3-0.1-0.4-0.1-0.6c0,0,0,0,0,0
		c0-0.4,0.1-0.8,0.7-0.8c0.4,0,0.6-0.3,0.6-0.7c0.1-0.5,0-1-0.4-1.4c0.3-0.3,0.6-0.6,0.9-0.9c0.3,0,0.6,0,0.9,0
		c0.3,0,0.5,0.2,0.4,0.5C71.1,211,70.8,211.3,70.3,211.4c0.1-0.1,0.2-0.3,0.4-0.5c-0.4,0.1-0.6,0.1-0.8,0.2c0,0.2-0.1,0.4-0.1,0.7
		C70,211.6,70.2,211.5,70.3,211.4z"/>
	<path class="st0" d="M74,205.4c-0.1,0.4-0.1,0.6-0.2,0.8c0,0.1-0.1,0.3-0.2,0.3c-0.5,0-0.5,0.5-0.7,0.7c-0.3,0.4-0.5,0.8-0.8,1.4
		c0.3-0.1,0.4-0.2,0.5-0.2c-0.1,0.3-0.1,0.6-0.2,1c-0.4,0-0.9,0.1-1.4,0.1c0.4-1.5,1.4-2.6,2.4-3.6C73.6,205.8,73.7,205.7,74,205.4z
		"/>
	<path class="st0" d="M90.7,182.3c-0.1,0.2,0,0.4,0.1,0.6c0,0.2,0,0.4-0.2,0.6c-0.1-0.5-0.1-0.9-0.3-1.4c-0.1-0.5-0.2-0.9-0.2-1.4
		c0-0.3-0.2-0.7-0.3-1c0,0-0.2,0-0.4,0c-0.1-0.4-0.4-0.9-0.2-1.5c0.5,0.3,0.2,0.7,0.2,0.9c0,0.1,0.1,0.1,0.1,0.1
		c0.5,0,0.8,0.2,0.9,0.7"/>
	<path class="st0" d="M88.1,162.2c0.3-0.3,0.5-0.6,0.8-0.9c0.3-0.3,0.5-0.7,0.6-1.2c0-0.3,0.2-0.6,0.5-0.8c0.4-0.3,0.8-0.8,1.3-1.3
		c-0.2,0.7-0.5,1.1-0.9,1.6c-0.1,0.2-0.3,0.4-0.3,0.6c-0.1,0.8-0.6,1.2-1.1,1.8C88.6,162.4,88.3,162.1,88.1,162.2L88.1,162.2z"/>
	<path class="st0" d="M71.7,64.6c-0.1,0.1-0.3,0.2-0.4,0.3c-0.7,0.3-1.3,0.5-1.9,1.1c-0.4,0.4-1.1,0.5-1.6,0.8
		C67.6,66.9,67.3,67,67,67c0.9-0.6,1.8-1.3,2.7-1.8c0.6-0.3,1.2-0.5,1.9-0.8C71.7,64.5,71.7,64.5,71.7,64.6z"/>
	<path class="st0" d="M82.4,198.1c0.1,0,0.2,0,0.3,0c0.1,0,0.3,0.1,0.5,0.1c-1,0.3-1.4,1.3-2.1,1.8c-0.2,0.1-0.3,0.4-0.5,0.5
		c-0.2,0.2-0.4,0-0.5-0.2C80.8,199.7,81.8,199.1,82.4,198.1z"/>
	<path class="st0" d="M73.7,171.1c0.4-0.7,1.3-1.1,1.1-2c0.3-0.2,0.5-0.3,0.8-0.5c0,0.2,0,0.3,0,0.4c0,0.2,0,0.4-0.3,0.6
		c-0.4,0.3-0.6,0.8-0.8,1.3C74.3,171.1,74.3,171.1,73.7,171.1z"/>
	<path class="st0" d="M106.6,36.9c0-0.3,0.2-0.4,0.5-0.5c0.3-0.1,0.6-0.2,0.8-0.3c0.5-0.3,0.9-0.3,1.6-0.3c-0.4,0.4-0.7,0.6-1.2,0.6
		C107.6,36.5,107.1,36.8,106.6,36.9z"/>
	<path class="st0" d="M73.1,210.5c-0.4,0.3-0.7,0.6-1.2,0.8c-0.3,0.1-0.5,0.2-0.7,0.4c-0.4,0.4-0.6,0.8-1,1.1c0.3-0.6,0.7-1,1.1-1.6
		C71.8,210.7,72.5,210.7,73.1,210.5z"/>
	<path class="st0" d="M74.3,167.2c0,0.1,0,0.3-0.1,0.4c-0.3,0.5-0.6,0.9-0.8,1.4c-0.2,0.4-0.4,0.6-0.9,0.6c-0.1,0-0.2,0-0.3,0
		c0.1,0,0.3,0,0.4-0.1c0.2-0.2,0.4-0.3,0.5-0.6C73.3,168.4,73.8,167.6,74.3,167.2C74.3,167.2,74.3,167.2,74.3,167.2z"/>
	<path class="st0" d="M90.9,195.1c-0.1,0.2-0.1,0.4-0.2,0.6c-0.1,0.2-0.2,0.5-0.3,0.7c-0.2,0.3-0.4,0.5-0.6,0.7
		c-0.1,0.1-0.3,0-0.4,0c0.4-0.7,0.8-1.3,1.2-1.8C90.6,195.2,90.8,195.1,90.9,195.1L90.9,195.1z"/>
	<path class="st0" d="M91.8,96.9c0.2-0.1,0.4-0.1,0.5-0.2c0.4,0.9-0.4,1.6-0.3,2.6c-0.4-0.3-0.1-0.6-0.1-0.8c0-0.3,0-0.5,0-0.8
		C91.9,97.5,91.8,97.2,91.8,96.9z"/>
	<path class="st0" d="M72.9,47.5c-0.6,0.8-1.3,0.9-2.3,0.8c0.2-0.2,0.4-0.4,0.5-0.4C71.7,47.8,72.3,47.7,72.9,47.5z"/>
	<path class="st0" d="M85.4,195.5c0.4-0.6,0.8-1.1,1.3-1.7c0.3,0.2,0.3,0.5,0.1,0.7c-0.4,0.4-0.8,0.7-1.2,1.1
		C85.5,195.6,85.5,195.6,85.4,195.5z"/>
	<path class="st0" d="M82.7,107.7c-0.1-0.6,0.1-1.2-0.2-1.7c-0.1-0.1,0.1-0.3,0.3-0.5c0.1,0.6,0.2,1.2,0.3,1.8
		C83.1,107.6,83,107.8,82.7,107.7z"/>
	<path class="st0" d="M91.3,83.9c0.1,0.6,0.2,1.1,0.3,1.7c0,0.2-0.2,0.4-0.3,0.6C91.1,85.5,91,84.7,91.3,83.9L91.3,83.9z"/>
	<path class="st0" d="M127,172c0.3,0,0.4,0,0.6,0c0,0.4,0.1,0.9,0.1,1.3c0,0.1-0.2,0.1-0.3,0.2C127.3,173,127.2,172.5,127,172z"/>
	<path class="st0" d="M81.8,206.7c-0.2-0.6,0.3-1,1.4-1.4C82.7,205.9,82.3,206.3,81.8,206.7z"/>
	<path class="st0" d="M148.3,174.2c-0.5,0.2-0.6-0.1-0.8-0.4c-0.1-0.2-0.1-0.2,0.2-0.6C148.1,173.4,148.3,173.7,148.3,174.2z"/>
	<path class="st0" d="M94.4,188.7c-0.1-0.1-0.2-0.1-0.3-0.2c0.3-0.3,0.5-0.5,0.8-0.8C95,188.2,94.8,188.5,94.4,188.7z"/>
	<path class="st0" d="M150.6,177.3c-0.2-0.1-0.4-0.3-0.6-0.5c0.1-0.2,0.3-0.3,0.4-0.5c0.6,0.2,0.2,0.6,0.4,0.8
		C150.7,177.3,150.6,177.3,150.6,177.3z"/>
	<path class="st0" d="M74.9,172.5c-0.1,0.6-0.5,0.9-1,1.2C74,173,74.5,172.8,74.9,172.5z"/>
	<path class="st0" d="M89.1,194.6c-0.4,0.3-0.8,0.6-1.2,1c0.1-0.7,0.6-0.9,1.1-1.1C89,194.5,89.1,194.5,89.1,194.6z"/>
	<path class="st0" d="M146.2,169.1c0.1,0.1,0.3,0.2,0.3,0.3c0.1,0.2,0.1,0.5,0.1,0.8c-0.6-0.2-0.6-0.2-0.4-0.8
		C146.2,169.3,146.2,169.2,146.2,169.1L146.2,169.1z"/>
	<path class="st0" d="M87.6,198.6c-0.3,0.4-0.6,0.7-0.9,1.1c-0.2-0.5-0.2-0.5,0.1-0.6C87.1,198.9,87.4,198.7,87.6,198.6L87.6,198.6z
		"/>
	<path class="st0" d="M125.4,169.3c0,0.3,0,0.7,0,1c-0.6-0.2-0.2-0.7-0.6-1C125.1,169.3,125.2,169.3,125.4,169.3
		C125.4,169.3,125.4,169.3,125.4,169.3z"/>
	<path class="st0" d="M151.6,125.6c-0.2,0.3-0.5,0.5-0.7,0.8C150.6,125.9,150.9,125.6,151.6,125.6z"/>
	<path class="st0" d="M146.7,170.4c0.2,0.2,0.5,0.4,0.7,0.6c-0.1,0.1-0.1,0.2-0.2,0.4C147,171.1,146.5,171,146.7,170.4z"/>
	<path class="st0" d="M73.4,173.9c-0.2,0.3-0.1,1-0.9,1C72.9,174.6,73.1,174.2,73.4,173.9z"/>
	<path class="st0" d="M86.7,118.6c0,0.4,0,0.4-0.3,1.1c0-0.2-0.1-0.4-0.1-0.5C86.5,119,86.6,118.8,86.7,118.6
		C86.7,118.6,86.7,118.6,86.7,118.6z"/>
	<path class="st0" d="M66.1,213c-0.2,0.1-0.4,0.3-0.7,0.5C65.6,212.7,65.6,212.7,66.1,213z"/>
	<path class="st0" d="M96.8,180.6c0.1-0.6,0.2-0.7,0.8-0.7C97.4,180.2,97.2,180.4,96.8,180.6z"/>
	<path class="st0" d="M73.4,172.4c0.3-0.1,0.5-0.2,0.8-0.3C74.2,172.6,74.2,172.6,73.4,172.4z"/>
	<path class="st0" d="M94,53.4c-0.3,0.1-0.6,0.2-1,0.3C93.3,53.1,93.6,53.1,94,53.4z"/>
	<path class="st0" d="M77.4,203.2c0.3-0.3,0.6-0.6,0.9-0.8c0,0,0.1,0.1,0.1,0.1c-0.3,0.3-0.6,0.6-0.8,0.9
		C77.5,203.3,77.4,203.2,77.4,203.2z"/>
	<path class="st0" d="M72.7,210c0.2-0.1,0.3-0.2,0.5-0.4c0.1,0.2,0.1,0.3,0.2,0.5c-0.3,0-0.5,0.1-0.7,0.1
		C72.7,210.1,72.7,210.1,72.7,210z"/>
	<path class="st0" d="M74.5,211.9c0,0.5-0.3,0.6-0.7,0.7C74.1,212.4,74.3,212.2,74.5,211.9z"/>
	<path class="st0" d="M89.5,118c0.1,0.4,0.2,0.7,0.3,1.2C89.5,118.6,89.5,118.5,89.5,118C89.5,118,89.5,118,89.5,118z"/>
	<path class="st0" d="M87.4,197.3c0.1,0.6,0.1,0.6-0.5,0.7C87.2,197.7,87.3,197.5,87.4,197.3z"/>
	<path class="st0" d="M71,175.7c0.2-0.2,0.4-0.3,0.6-0.4C71.7,175.8,71.7,175.8,71,175.7z"/>
	<path class="st0" d="M69.4,48.5c0.2-0.1,0.4-0.3,0.6-0.4c0,0.1,0.1,0.1,0.1,0.2c-0.2,0.1-0.4,0.2-0.6,0.4
		C69.5,48.5,69.4,48.5,69.4,48.5z"/>
	<path class="st0" d="M143.3,164.4c0-0.4,0.1-0.5,0.4-0.4c0.1,0,0.1,0.2,0.1,0.2C143.6,164.3,143.4,164.3,143.3,164.4z"/>
	<path class="st0" d="M73.5,126.4c-0.1,0.2-0.1,0.3-0.2,0.6c-0.1-0.2-0.3-0.4-0.2-0.4c0.1-0.1,0.2-0.2,0.4-0.3
		C73.4,126.3,73.5,126.3,73.5,126.4z"/>
	<path class="st0" d="M92.9,193.1c0,0.3,0,0.6,0,1C92.5,193.6,92.7,193.3,92.9,193.1C93,193.1,92.9,193.1,92.9,193.1z"/>
	<path class="st0" d="M90.9,195.1c-0.1-0.4-0.2-0.7,0.2-1C91.1,194.4,91,194.8,90.9,195.1C90.9,195.1,90.9,195.1,90.9,195.1z"/>
	<path class="st0" d="M81.9,207.4c-0.6,0-0.6,0-0.4-0.6C81.6,207,81.7,207.1,81.9,207.4z"/>
	<path class="st0" d="M75.7,204.1c-0.2,0.2-0.5,0.4-0.7,0.5c0,0-0.1-0.1-0.1-0.1c0.2-0.2,0.4-0.4,0.6-0.6
		C75.6,203.9,75.6,204,75.7,204.1z"/>
	<path class="st0" d="M91.3,83.9c0.1-0.3-0.1-0.7,0.3-1C91.8,83.4,91.2,83.6,91.3,83.9C91.3,83.9,91.3,83.9,91.3,83.9z"/>
	<path class="st0" d="M98.3,39.9c-0.2,0.1-0.4,0.2-0.6,0.3C97.9,39.8,97.9,39.8,98.3,39.9z"/>
	<path class="st0" d="M85.9,200.2c-0.1-0.3,0-0.5,0.4-0.7C86.1,199.8,86,200,85.9,200.2z"/>
	<path class="st0" d="M91.8,100c0,0.2,0,0.5,0,0.7c0,0-0.1,0-0.1,0c0-0.2-0.1-0.5-0.1-0.7C91.7,100,91.7,100,91.8,100z"/>
	<path class="st0" d="M97.7,179.4c0.1-0.1,0.2-0.3,0.3-0.5C98.3,179.4,98,179.5,97.7,179.4z"/>
	<path class="st0" d="M150.5,127.8c0.2-0.2,0.3-0.3,0.5-0.5c0,0,0.1,0,0.1,0.1c-0.1,0.2-0.3,0.4-0.4,0.6
		C150.6,127.9,150.5,127.8,150.5,127.8z"/>
	<path class="st0" d="M146.2,169.1c-0.1,0.1-0.2,0.1-0.3,0.2c-0.2-0.3,0-0.4,0.2-0.6C146.2,168.8,146.2,169,146.2,169.1
		C146.2,169.1,146.2,169.1,146.2,169.1z"/>
	<path class="st0" d="M90.4,121.3c0,0.2,0,0.3,0,0.5c0,0-0.1,0-0.1,0c0-0.2,0-0.3,0-0.5C90.3,121.3,90.4,121.3,90.4,121.3z"/>
	<path class="st0" d="M90.3,104.5c0-0.4,0-0.6,0-0.8C90.4,103.9,90.7,104.1,90.3,104.5z"/>
	<path class="st0" d="M143.6,165.5c0.1,0.2,0.2,0.4,0.2,0.7C143.6,166,143.6,165.8,143.6,165.5z"/>
	<path class="st0" d="M72.3,174.6c-0.1,0.1-0.2,0.1-0.3,0.2c0,0,0,0-0.1-0.1c0.1-0.1,0.2-0.2,0.3-0.3
		C72.2,174.5,72.2,174.5,72.3,174.6z"/>
	<path class="st0" d="M99.4,176.8c0.2-0.2,0.4-0.2,0.7-0.4C100,176.8,99.8,176.9,99.4,176.8z"/>
	<path class="st0" d="M87.6,198.6c0.1-0.2,0.1-0.5,0.4-0.7C88.2,198.3,87.8,198.4,87.6,198.6C87.6,198.6,87.6,198.6,87.6,198.6z"/>
	<path class="st0" d="M91.5,194.9c0.1-0.2,0.1-0.3,0.2-0.5c0,0,0.1,0,0.1,0.1c-0.1,0.2-0.1,0.3-0.2,0.5
		C91.6,194.9,91.5,194.9,91.5,194.9z"/>
	<path class="st0" d="M95.5,187.3c0.1-0.2,0.2-0.3,0.3-0.5c0,0.1,0.1,0.1,0.1,0.1C95.9,187.1,95.9,187.3,95.5,187.3z"/>
	<path class="st0" d="M74.5,126c-0.2,0.1-0.3,0.1-0.6,0.2c0.1-0.2,0.1-0.2,0.1-0.3C74.1,126,74.3,126,74.5,126
		C74.4,126,74.5,126,74.5,126z"/>
	<path class="st0" d="M77,206.8c0.1-0.2,0.1-0.4,0.2-0.6c0.1,0,0.1,0,0.2,0.1C77.3,206.5,77.2,206.7,77,206.8
		C77,206.7,77,206.8,77,206.8z"/>
	<path class="st0" d="M142.7,155c-0.1,0.1-0.2,0.2-0.3,0.3c0,0-0.1-0.1-0.1-0.1c0.1-0.1,0.2-0.2,0.3-0.3
		C142.6,154.9,142.7,154.9,142.7,155z"/>
	<path class="st0" d="M93.2,189.1c0.1-0.1,0.2-0.2,0.3-0.3c0,0,0.1,0.1,0.1,0.1c-0.1,0.1-0.2,0.2-0.3,0.4
		C93.3,189.2,93.2,189.1,93.2,189.1z"/>
	<path class="st0" d="M56,101c0,0.1-0.1,0.2-0.1,0.4c0,0,0,0-0.1,0c0-0.1,0-0.2,0-0.4C55.9,101,55.9,101,56,101z"/>
	<path class="st0" d="M86.7,193c0.1-0.1,0.3-0.2,0.4-0.3c0,0,0.1,0.1,0.1,0.1c-0.1,0.1-0.2,0.2-0.4,0.3
		C86.7,193.1,86.7,193,86.7,193z"/>
	<path class="st0" d="M89.8,199.8c0,0.2-0.1,0.4-0.1,0.6C89.5,200.1,89.5,200.1,89.8,199.8z"/>
	<path class="st0" d="M68.1,213.8C68.1,213.8,68.1,213.7,68.1,213.8c-0.1,0.1-0.2,0.3-0.3,0.5C67.8,213.8,67.8,213.8,68.1,213.8z"/>
	<path class="st0" d="M91.1,42.4c0.1-0.1,0.2-0.2,0.3-0.2c0,0,0.1,0.1,0.1,0.1c-0.1,0.1-0.2,0.2-0.3,0.3
		C91.2,42.5,91.2,42.5,91.1,42.4z"/>
	<path class="st0" d="M91.8,87.9c0.1-0.1,0.1-0.2,0.2-0.3c0.1,0,0.2,0.1,0.1,0.1c-0.1,0.1-0.1,0.2-0.2,0.3
		C91.8,88,91.8,87.9,91.8,87.9z"/>
	<path class="st0" d="M88.1,162.2c-0.2,0.1-0.4,0.3-0.6,0.4C87.5,162.1,87.6,162.1,88.1,162.2C88.1,162.2,88.1,162.2,88.1,162.2z"/>
	<path class="st0" d="M80.8,89.6c0,0.1,0,0.3-0.1,0.4c-0.1,0-0.2,0-0.2,0c0-0.1,0-0.3,0-0.4C80.7,89.6,80.8,89.6,80.8,89.6z"/>
	<path class="st0" d="M56.5,102.3c0,0.1,0,0.3-0.1,0.4c0,0-0.1,0-0.1,0c0-0.1,0-0.3,0-0.4C56.3,102.3,56.4,102.3,56.5,102.3z"/>
	<path class="st0" d="M78.2,178.7c0-0.2-0.1-0.3-0.1-0.5c0,0,0.1,0,0.1,0c0.1,0.2,0.1,0.3,0.2,0.5C78.3,178.6,78.3,178.7,78.2,178.7
		z"/>
	<path class="st0" d="M90.5,105.1c0,0.3,0,0.5,0,0.7C90.2,105.5,90.3,105.4,90.5,105.1z"/>
	<path class="st0" d="M111.8,108.9c0.1-0.1,0.1-0.2,0.2-0.3c0,0,0.1,0.1,0.1,0.1c-0.1,0.1-0.1,0.2-0.2,0.3
		C111.9,108.9,111.8,108.9,111.8,108.9z"/>
	<path class="st0" d="M95.9,181.6c0-0.1,0.1-0.2,0.1-0.2c0,0,0.1-0.1,0.3-0.2c-0.1,0.2-0.2,0.4-0.3,0.5
		C95.9,181.7,95.9,181.7,95.9,181.6z"/>
	<path class="st0" d="M67.4,213.2c-0.1,0-0.3,0-0.5,0C67.1,212.8,67.3,213.1,67.4,213.2C67.4,213.2,67.4,213.2,67.4,213.2z"/>
	<path class="st0" d="M66.3,213.3c0-0.1,0.1-0.2,0.1-0.3c0,0,0.1,0,0.1,0c0,0.1-0.1,0.2-0.1,0.3C66.4,213.4,66.3,213.3,66.3,213.3z"
		/>
	<path class="st0" d="M64.7,213.9c0.1-0.1,0.2-0.2,0.2-0.3c0,0,0.1,0.1,0.1,0.1C64.9,213.9,64.9,213.9,64.7,213.9
		C64.7,214,64.7,214,64.7,213.9z"/>
	<path class="st0" d="M66.7,211.5c-0.2,0.2-0.3,0.3-0.4,0.5C66.2,211.7,66.3,211.6,66.7,211.5z"/>
	<path class="st0" d="M110.4,110.1c0.1-0.1,0.1-0.1,0.1-0.2c0,0.1,0.1,0.1,0.1,0.2c0,0,0,0.1-0.1,0.1
		C110.5,110.2,110.5,110.2,110.4,110.1z"/>
	<path class="st0" d="M70.6,171.9c0.1,0,0.2,0,0.4,0c0,0,0,0.1,0,0.1c-0.1,0-0.2,0.1-0.3,0.1C70.6,172,70.6,172,70.6,171.9z"/>
	<path class="st0" d="M127,173.7c0,0.1,0,0.2,0,0.3c0,0-0.1,0-0.1,0C126.9,173.9,126.9,173.8,127,173.7
		C126.9,173.7,127,173.7,127,173.7z"/>
	<path class="st0" d="M84.8,44.8c-0.1,0-0.2,0-0.3,0c0,0,0-0.1,0-0.1c0.1,0,0.2,0,0.3,0C84.8,44.7,84.8,44.7,84.8,44.8z"/>
	<path class="st0" d="M68.1,177c-0.1,0.1-0.1,0.2-0.2,0.3c0,0-0.1,0-0.1,0c0-0.1,0.1-0.2,0.1-0.3C68,176.9,68,176.9,68.1,177z"/>
	<path class="st0" d="M66.5,179.5c-0.1,0.1-0.1,0.3-0.2,0.4c0,0-0.1,0-0.1,0c0-0.1,0.1-0.3,0.1-0.4
		C66.4,179.5,66.5,179.5,66.5,179.5z"/>
	<path class="st0" d="M124.9,93.4c0.1-0.1,0.2-0.3,0.4-0.4C125.2,93.3,125.1,93.4,124.9,93.4C124.9,93.4,124.9,93.4,124.9,93.4z"/>
	<path class="st0" d="M86.6,45.6c0.2,0,0.3-0.1,0.5-0.1c0.2,0,0.4-0.1,0.5-0.2c0.3-0.4,0.7-0.4,1.2-0.5c0,0.3-0.1,0.6-0.4,0.6
		c-0.4,0-0.6,0.2-0.8,0.4c-0.1,0.1-0.3,0.2-0.4,0.2c-0.5-0.1-0.6,0.3-0.7,0.7c0.5-0.1,1.1-0.2,1.6-0.3c0.1,0,0.2-0.1,0.2-0.1
		c0.1-0.3,0.4-0.3,0.6-0.5c0.8-0.6,1.9-0.4,2.7-1c0.1-0.1,0.3-0.1,0.4-0.1c0.9,0,1.4-0.6,2.2-1.1c-0.7-0.2-1,0.5-1.4,0.5
		c-0.5,0-0.8,0.6-1.4,0.2c-0.4,0.8-1.3,0.6-2.1,1c0.1-0.2,0.1-0.4,0.2-0.5c0.5-0.4,0.9-0.9,1.6-1c0.3,0,0.6-0.2,0.9-0.4
		c0.1-0.1,0.3-0.2,0.4-0.2c0.8,0,1.3-0.5,1.9-0.8c0.2-0.1,0.6-0.3,0.7-0.3c0.5,0.3,0.8-0.1,1.1-0.4c0.2-0.2,0.4-0.3,0.7-0.1
		c-0.2,0.3-0.4,0.6-0.7,1c0.6,0,0.8-0.5,0.9-0.8c0.2-0.4,0.4-0.5,0.7-0.7c0.2-0.1,0.4-0.3,0.7-0.3c0.2-0.1,0.5-0.1,0.7-0.2
		c0,0,0,0.1,0.1,0.1c-0.1,0.1-0.1,0.2-0.3,0.3c-0.5,0.3-1,0.5-1.5,0.8c-0.1,0.1-0.2,0.2-0.3,0.3c0,0,0.1,0.1,0.1,0.1
		c0.2-0.1,0.4-0.2,0.7-0.3c0.2-0.1,0.3-0.3,0.5-0.2c0.5,0,0.9-0.2,1.4-0.4c0.4-0.2,0.6-0.5,0.9-0.7c0.2,0.1,0.3,0.2,0.5,0.3
		c0.6-0.2,1.1-0.4,1.6-0.6c0.6-0.2,1.2-0.2,1.7-0.7c0,0,0.1-0.1,0.1,0c0.7,0.1,1.3-0.4,2-0.4c0.2,0,0.5-0.2,0.7-0.4
		c0.5-0.6,1.3-0.7,2.1-0.8c-0.1,0.2-0.1,0.4-0.2,0.5c-0.1,0.1-0.3,0.2-0.2,0.3c0.1,0.5-0.2,0.6-0.6,0.7c-0.6,0.2-1.3,0.3-1.8,0.7
		c-0.1,0.1-0.2,0.1-0.4,0c-0.5-0.2-1,0-1.4,0.2c-0.6,0.3-1.3,0.4-2,0.8c-0.3,0.2-0.8,0.1-1.3,0.1c-1.2,0.1-2.3,0.5-3.4,1
		c-0.2,0.1-0.4,0.3-0.5,0.5c-0.3,0.3-0.8,0.5-1.2,0.6c-0.9,0.2-1.9,0.2-2.6,0.9c-0.1,0.1-0.3,0.2-0.5,0.3c-0.4,0.2-0.8,0.4-1.3,0.6
		c0,0-0.1-0.1-0.3-0.3c-0.5,0.3-1.1,0.5-1.5,0.9c-0.6,0.4-1.3,0.3-2,0.5c-0.2,0.7-0.6,1.1-1.4,1.3c-0.3,0.1-0.5,0-0.7-0.2
		c0.1-0.2,0.1-0.4,0.2-0.7c-0.3,0.1-0.5,0.1-0.7,0.2c0,0,0.1-0.1,0.1-0.1c-0.3-0.1-0.5-0.3-0.8-0.4C85.8,46.2,86.2,45.9,86.6,45.6
		C86.6,45.6,86.6,45.6,86.6,45.6z M95.1,42.5c0,0.2,0,0.4,0,0.6c0.2-0.1,0.3-0.1,0.5-0.2C95.4,42.8,95.3,42.7,95.1,42.5z"/>
	<path class="st0" d="M98.1,48c-0.9,0.5-1.7,1.2-2.8,1.5c-0.2,0-0.4,0.2-0.6,0.3c-0.4,0.3-0.9,0.5-1.4,0.5c-0.2,0-0.5,0.1-0.7,0.2
		c-1,0.7-2.2,0.9-3.4,1.2c0.2,0.3,0.4,0.2,0.6,0.1c0.2,0,0.4-0.1,0.6,0c-0.2,0.1-0.3,0.3-0.5,0.4c-0.1,0.1-0.2,0.2-0.2,0.3
		c0.2,0.4-0.2,0.5-0.4,0.6c-0.3-0.3-0.5-0.6-0.8-0.9c-0.4,0.2-0.8,0.4-1.2,0.1c-0.1-0.3-0.2-0.6-0.4-1c0.5-0.1,0.9-0.1,1.3-0.2
		c0.3-0.3,0.5-0.6,0.8-0.9c-0.6,0.3-1.1,0.5-1.6,0.6c-0.7,0.2-0.8,0.2-1-0.5c0-0.1,0-0.1-0.1-0.2c0,0,0,0,0-0.2
		c0.2,0,0.3-0.1,0.5-0.1c0.6,0,1.2-0.1,1.8-0.4c0.7-0.3,1.4-0.5,2.2-0.5c0.2,0,0.5-0.1,0.7-0.2c0.7-0.3,1.4-0.5,1.9-1
		c0.1-0.1,0.2-0.2,0.3-0.2c1.1,0,1.9-0.9,3-1c0.1,0,0.3-0.2,0.4-0.3c0.5-0.4,1-0.8,1.5-1.2c0.2-0.2,0.5-0.2,0.8-0.3
		c0.1,0,0.2,0.1,0.3,0.3c-0.5,0.3-1,0.6-1.4,0.9c0,0,0,0.1,0,0.1c0.2,0,0.4-0.1,0.7-0.1c-0.3,0.4-0.5,0.7-1,0.9
		c-0.5,0.2-0.9,0.2-1.3,0.2c-1.3,0.2-2.7,0.4-3.8,1.3c-0.4,0.4-1.1,0.5-1.5,1c-0.1,0.1-0.3,0-0.4,0.1c-0.2,0.1-0.4,0.1-0.7,0.2
		c0.1,0.1,0.1,0.2,0.1,0.2c0.5-0.1,0.9-0.2,1.4-0.4c0.2-0.1,0.4-0.2,0.6-0.3c0.5-0.1,0.9-0.3,1.2-0.8c0.2-0.3,0.5-0.4,0.9-0.3
		c0.1,0.1,0.3,0,0.5,0C96.3,48.1,97.2,47.8,98.1,48z"/>
	<path class="st0" d="M79.5,56.8c0.1,0.5-0.2,0.8,0,1.2c0.1,0.2,0,0.4-0.4,0.4c-0.3,0-0.7,0.1-1,0c-0.5-0.2-0.8,0.2-1.1,0.3
		c-0.1,0.1-0.2,0.2-0.3,0.3c-0.6,0.6-1.4,0.6-2.2,0.5c-0.1,0-0.2-0.2-0.3-0.3c-0.4,0.1-0.7,0.5-1.3,0.5c-0.3,0-0.7,0.3-1,0.5
		c-0.5,0.3-1,0.2-1.5,0.1c0.1-0.1,0.2-0.2,0.3-0.2c0.5-0.3,1-0.6,1.3-1.2c0.1-0.2,0.4-0.4,0.7-0.4c0.7,0,1.3-0.2,1.9-0.4
		c1.4-0.3,2.9-0.7,4.3-1.1C79.1,57,79.3,56.9,79.5,56.8z"/>
	<path class="st0" d="M84.7,166.1c0.2-0.4-1-0.3-1.3-0.6c-0.1-0.1-0.2-0.3-0.1-0.4c0.1-0.4-0.1-0.8-0.1-1.2
		c-0.1-0.6-0.5-1.1-0.8-1.7c-0.2-0.5-0.2-0.7,0.2-1.1c0.2-0.2,0.4-0.3,0.6-0.5c0.4,0.2,0,0.6,0.1,0.9c0.1,0.3,0,0.6,0,1
		c0.1,0,0.2,0.1,0.4,0.2c0.3-1.1,0.4-2.3,1.7-2.8c0.3,0.3,0.5,0.6,0.7,0.9c-0.1,0.6-0.6,0.9-1.1,1.2c-0.1,0.5-0.2,1-0.3,1.6
		c-0.2,0.1-0.4,0.2-0.6,0.2c-0.3,0.1-0.4,0.3-0.3,0.5c0.1,0.3,0.3,0.3,0.5,0.2c0,0,0.1,0,0.2,0c0.3,0.4,0.9,0.4,0.8,0.8
		c-0.1,0.2,0.6,0.4,0.6,0.6c0,0.3,0.1,0.6-0.3,0.8C85.2,166.6,85,166.4,84.7,166.1z"/>
	<path class="st0" d="M83.7,92.1c0.3,1.5,0.5,3.1,0.5,4.8C84,96.9,83.8,97,83.5,97c-0.1-0.9-0.3-1.7,0-2.5c0-0.1,0-0.2,0-0.2
		c-0.1-0.4-0.2-0.7-0.3-1.1C83.1,92.7,83.5,92.4,83.7,92.1z"/>
	<path class="st0" d="M86.5,117c-0.7,0.1-0.7,0.1-0.8-0.4c-0.1-0.5-0.1-0.9-0.1-1.4c0-0.4,0-0.7-0.2-1c-0.1-0.2-0.2-0.4-0.2-0.6
		c-0.1-0.2,0-0.4-0.1-0.5c-0.3-0.5-0.1-0.9,0-1.3c0,0,0.1,0,0.2-0.1C85.5,113.6,86.4,115.2,86.5,117z"/>
	<path class="st0" d="M84.2,102.6c0-0.1,0-0.3,0-0.4c0.3-0.6,0.4-1.1,0-1.7c0-0.1-0.1-0.2-0.1-0.3c0.3-0.4,0-0.7-0.2-0.9
		c-0.3-0.3-0.2-0.8-0.8-0.8c0,0-0.1-0.3-0.1-0.5c0.4,0,0.6,0,1,0c0.1-0.2,0.2-0.4,0.3-0.6c0.1,0.1,0.1,0.1,0.2,0.1
		c0.2,1.3,0.3,2.6,0.5,3.9C84.9,101.9,84.9,102,84.2,102.6z"/>
	<path class="st0" d="M87.7,99.7c-0.1,0.3-0.1,0.6-0.2,0.9c0,0.3,0,0.6-0.1,0.9c0,0.1-0.1,0.2-0.2,0.3c-0.1-0.1-0.3-0.2-0.3-0.3
		c0.3-0.8-0.1-1.6,0-2.4c0-0.2,0-0.3,0.1-0.5c0-0.1,0.2-0.2,0.3-0.2c0.1,0,0.3,0.1,0.3,0.2C87.7,99.1,87.7,99.4,87.7,99.7z"/>
	<path class="st0" d="M87.6,120.5c0.1,0.2,0.2,0.4,0.2,0.5c0,0.2-0.1,0.4-0.1,0.5c0,0.2,0.2,0.3,0.3,0.5c0.2,0.4-0.1,0.6-0.3,0.8
		c-0.3-0.1-0.5-0.1-0.8-0.2c0-0.1-0.1-0.2,0-0.3c0.1-0.3,0.2-0.6,0.3-0.9C87.4,121.1,87.1,120.8,87.6,120.5z"/>
	<path class="st0" d="M81.6,164.1c0.1,0,0.3-0.1,0.5-0.1c-0.1,0.7,0.6,1.2,0.3,1.8c-0.1,0.2-0.1,0.3,0,0.6c0.2,0.3-0.1,0.4-0.4,0.6
		c-0.4-0.4,0.1-1.1-0.4-1.4C81.7,165.2,81.6,164.7,81.6,164.1z"/>
	<path class="st0" d="M85.4,125c-0.5,0.3-3.7,0.9-4.3,0.8c0.1-0.1,0.2-0.3,0.3-0.3C82.7,125.3,83.9,124.8,85.4,125z"/>
	<path class="st0" d="M87.8,104.8c0.4-0.1,0.6,0,0.7,0.3c0,0.7,0.1,1.4,0.1,2.2c-0.2,0-0.3,0.1-0.5,0.1c0-0.1-0.1-0.2-0.1-0.3
		c0-0.6,0.2-1.1-0.1-1.7C87.7,105.3,87.7,105,87.8,104.8z"/>
	<path class="st0" d="M79.5,124.7c-0.3,0.2-0.7,0.3-1.1,0.5c0.1,0.1,0.2,0.3,0.3,0.5c-0.3,0.4-0.8,0.4-1.3,0.5
		c-0.1-0.5,0-0.9,0.5-1.1c0.2-0.1,0.4-0.3,0.6-0.3c0.3-0.1,0.5-0.1,0.8-0.2C79.4,124.6,79.4,124.7,79.5,124.7z"/>
	<path class="st0" d="M92.9,51.5c0.2-0.5,0.5-0.6,0.9-0.6c0.5,0.1,0.9-0.1,1.3-0.5c0.4-0.4,0.9-0.5,1.4-0.5c0,0.4-0.2,0.4-0.4,0.4
		c-0.5,0.1-0.9,0.3-1.3,0.6c-0.3,0.3-0.8,0.4-1.2,0.5C93.4,51.6,93.2,51.5,92.9,51.5z"/>
	<path class="st0" d="M84.8,103.5c0.5,0.2,0.5,0.5,0.5,0.8c0,0.6,0.7,1.2,0.2,1.9c-0.4-0.4-0.4-0.9-0.4-1.3
		C85,104.5,84.9,104.1,84.8,103.5z"/>
	<path class="st0" d="M125.5,146.9c-0.4,0.5-0.8,1-1.3,1.6c0,0-0.1-0.1-0.1-0.1c0.1-0.5,0.2-1,0.5-1.5
		C124.8,146.6,125,146.6,125.5,146.9z"/>
	<path class="st0" d="M104.2,185.1c0.3-0.8,1.1-1.2,1.6-1.9c0.1,0.3,0.2,0.4,0.3,0.6c-0.6,0.5-1.2,1-1.8,1.4
		C104.3,185.2,104.3,185.2,104.2,185.1z"/>
	<path class="st0" d="M123.4,148.3c0,0.3,0,0.5,0,0.6c-0.1,0-0.3,0-0.4-0.1c-0.1-0.1-0.2-0.2-0.4-0.3c0-0.2,0-0.5,0.1-0.7
		c0.1-0.2,0.3-0.3,0.4-0.4c0.2,0,0.5,0.1,0.6,0.2C123.9,148.1,123.6,148.2,123.4,148.3z"/>
	<path class="st0" d="M79.3,47.8c0.4,0.6,0.4,0.6-0.2,0.8c-0.5,0.2-1.1,0.4-1.7,0.2C78,48.5,78.7,48.2,79.3,47.8z"/>
	<path class="st0" d="M86.6,45.6c-0.6,0.3-1.2,0.4-1.6,0.9c-0.1,0.1-0.2,0-0.5,0.1c0.4-0.4,0.7-0.8,1-1c0.3-0.3,0.6-0.3,1-0.2
		C86.5,45.3,86.6,45.5,86.6,45.6C86.6,45.6,86.6,45.6,86.6,45.6z"/>
	<path class="st0" d="M77.1,152.2c0.4,0.3,0.5,0.7,0.6,1.1c0.1,0.2-0.2,0.4-0.4,0.3c-0.2-0.1-0.3-0.2-0.5-0.4
		C77.3,153.1,76.9,152.6,77.1,152.2z"/>
	<path class="st0" d="M87.6,159.2c-0.3,0.6-0.8,0.8-1.2,1.2c-0.3-0.2-0.3-0.3-0.1-0.5c0.4-0.3,0.8-0.5,1.2-0.8
		C87.4,159.1,87.5,159.2,87.6,159.2z"/>
	<path class="st0" d="M103.4,48.9c0.2-0.9,0.3-0.9,1.2-0.8C104.5,48.8,104,48.8,103.4,48.9z"/>
	<path class="st0" d="M123.8,163.9c0.5,0.3,0.3,0.8,0.5,1.3c-0.3-0.1-0.5-0.2-0.5-0.2C123.7,164.6,123.3,164.2,123.8,163.9z"/>
	<path class="st0" d="M120.4,155.5c-0.3,0.5,0.5,1,0,1.6c-0.1-0.1-0.3-0.2-0.3-0.3c-0.1-0.3,0.2-0.6-0.2-0.8
		c0.1-0.2,0.2-0.4,0.3-0.6C120.3,155.5,120.3,155.5,120.4,155.5z"/>
	<path class="st0" d="M124.2,155.2c-0.1,0.4-0.3,0.8-0.4,1.3c-0.2-0.2-0.4-0.4-0.6-0.6c0.3-0.3,0.6-0.5,0.9-0.8
		C124.2,155.2,124.2,155.2,124.2,155.2z"/>
	<path class="st0" d="M84,124.5c-0.7,0.3-1.2,0.3-1.8,0.3c0.1-0.1,0.3-0.2,0.3-0.2C83,124.8,83.4,123.9,84,124.5z"/>
	<path class="st0" d="M93.3,191.9c0.1-0.2,0.2-0.5,0.3-0.8c0.2,0,0.5,0,0.8,0c-0.2,0.5-0.6,0.7-0.9,0.9
		C93.4,191.9,93.3,191.9,93.3,191.9z"/>
	<path class="st0" d="M91.6,52.1c-0.4,0.7-0.8,0.9-1.5,0.5C90.6,52.4,91.1,52.3,91.6,52.1z"/>
	<path class="st0" d="M85.6,166.9c0.3,0.6-0.6,1.1-0.3,1.8C84.7,168.2,85.2,167.4,85.6,166.9z"/>
	<path class="st0" d="M117.2,158c0-0.6,0-0.6,0.6-0.8C117.8,157.8,117.7,157.9,117.2,158z"/>
	<path class="st0" d="M81.3,124.7c-0.2,0.6-0.4,0.7-1.1,0.6C80.5,125,80.7,124.6,81.3,124.7z"/>
	<path class="st0" d="M125.8,165.1c0,0.5,0,0.8,0,1.2c0,0-0.1,0-0.1,0c-0.1-0.3-0.2-0.6-0.3-0.9C125.3,165.1,125.5,165,125.8,165.1z
		"/>
	<path class="st0" d="M100.8,147.6c-0.5,0.7-0.5,0.7-1.1,0.4C100,147.6,100.4,147.6,100.8,147.6z"/>
	<path class="st0" d="M83.9,111.4c0.2,0,0.5,0.1,0.8,0.2c-0.2,0.2-0.3,0.4-0.5,0.6c-0.1-0.2-0.3-0.4-0.4-0.6
		C83.8,111.5,83.8,111.4,83.9,111.4z"/>
	<path class="st0" d="M119,155.1c0.1,0.4,0,0.6-0.3,0.6c-0.1,0-0.2-0.2-0.2-0.3C118.5,155.1,118.7,155.1,119,155.1z"/>
	<path class="st0" d="M88.5,116.1c0-0.3-0.5-0.6,0.1-1C88.9,115.5,88.9,115.8,88.5,116.1z"/>
	<path class="st0" d="M89.6,47.1c0.4-0.2,0.6-0.6,1.1-0.5C90.4,47.1,90.4,47.1,89.6,47.1z"/>
	<path class="st0" d="M91,53c-0.4,0.7-0.5,0.7-1,0.1C90.4,53.1,90.7,53.1,91,53z"/>
	<path class="st0" d="M65.5,132.6c0.2,0.7-0.6,0.4-0.7,0.8C64.7,132.9,64.8,132.8,65.5,132.6z"/>
	<path class="st0" d="M91.4,150.3c0.2-0.7,0.2-0.7,0.5-0.8C91.9,149.9,91.9,150.2,91.4,150.3z"/>
	<path class="st0" d="M81.4,181.5c-0.4-0.1-0.4-0.4-0.4-0.7C81.2,181,81.5,181.1,81.4,181.5z"/>
	<path class="st0" d="M79.9,156.7c-0.2-0.4,0.1-0.5,0.3-0.8C80.4,156.3,80.2,156.6,79.9,156.7z"/>
	<path class="st0" d="M106.5,183.5c-0.1-0.4,0.1-0.5,0.3-0.7C107,183.1,106.8,183.3,106.5,183.5z"/>
	<path class="st0" d="M88.5,119.3c0.4,0.1,0.6,0.3,0.3,0.7C88.7,119.7,88.6,119.5,88.5,119.3z"/>
	<path class="st0" d="M87.5,117c0.1-0.3,0.2-0.4,0.4-0.3c0,0,0.1,0.1,0.1,0.2C87.9,117.1,87.7,117.1,87.5,117z"/>
	<path class="st0" d="M83.9,110.9c0.1-0.1,0.2-0.2,0.3-0.3c0.1,0.1,0.2,0.2,0.2,0.3c0,0.1-0.1,0.2-0.2,0.2
		C84.1,111.2,84,111,83.9,110.9z"/>
	<path class="st0" d="M88,124.8c0.2,0,0.3,0,0.6,0c-0.2,0.4-0.4,0.3-0.6,0.2C88,124.9,88,124.9,88,124.8z"/>
	<path class="st0" d="M84.6,103.5c-0.1-0.3-0.1-0.6,0.2-0.7C85.2,103.2,84.6,103.2,84.6,103.5C84.6,103.5,84.6,103.5,84.6,103.5z"/>
	<path class="st0" d="M124.8,167.7c0.1,0.2,0.2,0.3,0.2,0.3c0,0.1,0,0.2,0,0.4C124.7,168.3,124.7,168.1,124.8,167.7z"/>
	<path class="st0" d="M76.6,175c0.1-0.2,0.2-0.4,0.4-0.2c0.1,0,0,0.2,0,0.3C76.8,175,76.7,175,76.6,175
		C76.5,174.9,76.6,175,76.6,175z"/>
	<path class="st0" d="M43.3,54.7C43.1,54.9,43,55,43,55c-0.1,0-0.2-0.1-0.2-0.2c0-0.1,0.1-0.2,0.2-0.2C43,54.5,43.1,54.6,43.3,54.7z
		"/>
	<path class="st0" d="M87.2,119.8c0.3,0.1,0.3,0.1,0.2,0.5C87.1,120.2,87.2,119.9,87.2,119.8C87.2,119.7,87.2,119.8,87.2,119.8z"/>
	<path class="st0" d="M124,162.7c0.1-0.1,0.2-0.2,0.3-0.4C124.4,162.6,124.4,162.6,124,162.7z"/>
	<path class="st0" d="M124.4,166.2c-0.2,0.4-0.2,0.4-0.6,0.1C124,166.2,124.2,166.2,124.4,166.2z"/>
	<path class="st0" d="M75.1,128.8c-0.1,0.1-0.2,0.3-0.4,0.5c-0.1-0.4-0.1-0.4,0.2-0.6C75.1,128.8,75.1,128.8,75.1,128.8z"/>
	<path class="st0" d="M74.4,128.6c-0.1,0.1-0.1,0.1-0.1,0.2c-0.1,0.1-0.3,0.1-0.4,0.1C74,128.6,74,128.6,74.4,128.6z"/>
	<path class="st0" d="M88.8,108c-0.2,0.2-0.3,0.3-0.3,0.3c-0.1,0-0.2-0.1-0.2-0.2c0-0.1,0.1-0.2,0.2-0.2
		C88.6,107.9,88.7,108,88.8,108z"/>
	<path class="st0" d="M79.8,154.8c0-0.1,0.1-0.3,0.1-0.4c0,0,0.1,0,0.1,0c0,0.1,0,0.3,0,0.4C79.9,154.9,79.8,154.9,79.8,154.8z"/>
	<path class="st0" d="M78.7,46.4c0.1,0.1,0.2,0.2,0.2,0.2c-0.1,0.1-0.1,0.1-0.2,0.2c-0.1-0.1-0.2-0.1-0.2-0.2
		C78.5,46.6,78.6,46.5,78.7,46.4z"/>
	<path class="st0" d="M76.9,171.4c0,0.1,0,0.3,0,0.4c0,0-0.1,0-0.1,0c0-0.1-0.1-0.3-0.1-0.4C76.8,171.5,76.8,171.4,76.9,171.4z"/>
	<path class="st0" d="M84.5,124.5c0.2-0.1,0.3-0.1,0.5-0.2c0,0,0,0.1,0.1,0.1c-0.1,0-0.1,0.1-0.2,0.1
		C84.8,124.5,84.7,124.5,84.5,124.5z"/>
	<path class="st0" d="M81,125.8c-0.1,0.1-0.2,0.1-0.3,0.2c0,0-0.1-0.1-0.2-0.1c0.1-0.1,0.1-0.1,0.2-0.2
		C80.8,125.7,80.9,125.8,81,125.8z"/>
	<path class="st0" d="M121.4,156.8c-0.1,0-0.2,0.1-0.2,0.1c0,0-0.1-0.1-0.1-0.2c0,0,0.1-0.1,0.1-0.1
		C121.3,156.6,121.3,156.7,121.4,156.8z"/>
	<path class="st0" d="M119.4,156.6c-0.1-0.1-0.1-0.2-0.1-0.2c0.1-0.1,0.2-0.1,0.2-0.2c0,0.1,0.1,0.1,0.1,0.2
		C119.5,156.5,119.4,156.5,119.4,156.6z"/>
	<path class="st0" d="M129.1,150.5c0,0.2,0.1,0.3,0.1,0.3c0,0.1-0.1,0.2-0.1,0.2c-0.1,0-0.2-0.1-0.2-0.2
		C128.8,150.9,128.9,150.8,129.1,150.5z"/>
	<path class="st0" d="M53.7,148.1c0,0.1-0.1,0.2-0.1,0.4c-0.1,0-0.1,0-0.2,0c0-0.1,0.1-0.2,0.1-0.4
		C53.6,148.1,53.6,148.1,53.7,148.1z"/>
	<path class="st0" d="M87.9,54.6c-0.2,0.1-0.3,0.2-0.3,0.2c0,0-0.1-0.1-0.1-0.2c0-0.1,0.1-0.1,0.2-0.2
		C87.7,54.4,87.8,54.5,87.9,54.6z"/>
	<path class="st0" d="M90.4,127.3c-0.1,0-0.2,0.1-0.2,0.1c0,0-0.1-0.1-0.1-0.1c0.1,0,0.1-0.1,0.2-0.1
		C90.2,127.1,90.3,127.2,90.4,127.3z"/>
	<path class="st0" d="M115.6,103.5c0.8,0.7,0.4,1.5,0.5,2.3c-0.2-0.2-0.3-0.2-0.3-0.3c0-0.3-0.1-0.6-0.4-0.8
		C115,104.3,115.4,103.9,115.6,103.5z"/>
	<path class="st0" d="M134.8,86.6c-0.6,0.2-1,0.9-1.9,0.8c0.3-0.2,0.5-0.4,0.7-0.5c0.2-0.2,0.4-0.3,0.5-0.5
		C134.4,86.1,134.6,86.1,134.8,86.6z"/>
	<path class="st0" d="M109.9,88.7c-0.4,0.2-0.4-0.5-0.8-0.2c0.1-0.3,0.2-0.7,0.4-1c0,0,0.1,0,0.1,0
		C109.7,87.9,109.8,88.2,109.9,88.7z"/>
	<path class="st0" d="M110.4,85.9c-0.2,0.7-0.7,0.9-1.1,1.3C109.4,86.6,109.8,86.2,110.4,85.9z"/>
	<path class="st0" d="M111.6,105.4c0-0.5,0-0.9,0.1-1.3c0,0,0.1-0.1,0.2-0.1c0.1,0,0.1,0,0.2,0.1C112.2,104.4,112,105,111.6,105.4z"
		/>
	<path class="st0" d="M119.2,108.6c-0.4-0.5-0.1-0.8,0-1.2C119.6,107.7,119.6,108,119.2,108.6z"/>
	<path class="st0" d="M131.6,89.2c-0.2,0.4-0.4,0.3-0.7,0.2C131.2,89.1,131.2,89.1,131.6,89.2z"/>
	<path class="st0" d="M133.1,89c-0.2-0.3-0.3-0.5-0.3-0.5c0-0.1,0.2-0.2,0.3-0.2c0.1,0,0.2,0.2,0.2,0.3
		C133.3,88.6,133.2,88.8,133.1,89z"/>
	<path class="st0" d="M114.8,95.4c0.1-0.2,0.1-0.3,0.2-0.5c0.2,0.2,0.2,0.4,0.1,0.6C115,95.4,114.9,95.4,114.8,95.4z"/>
	<path class="st0" d="M109.8,70.9c-0.1,0.4-0.2,0.4-0.6,0.2C109.5,71,109.6,70.9,109.8,70.9z"/>
	<path class="st0" d="M109.4,84.7c0.2,0.3,0.1,0.4-0.2,0.5C109.1,85,109.2,84.8,109.4,84.7z"/>
	<path class="st0" d="M126.4,91.3c-0.2,0-0.4,0-0.5,0c0-0.1,0-0.2,0-0.2C126.1,91,126.2,91,126.4,91.3z"/>
	<path class="st0" d="M110,102.7c0-0.1,0-0.2,0-0.3c0,0,0.1,0,0.1,0c0,0.1,0,0.2,0,0.3C110.1,102.7,110.1,102.7,110,102.7z"/>
	<path class="st0" d="M124.6,92.1c-0.2,0-0.3,0-0.5,0.1c0-0.1,0-0.1,0-0.2c0.2,0,0.3-0.1,0.5-0.1C124.5,91.9,124.6,92,124.6,92.1z"
		/>
	<path class="st0" d="M162.9,177.3c-0.6,0.3-1.2,0.4-1.8,0.4c-0.2,0-0.4-0.1-0.5-0.4c0.8-0.1,1.5-0.1,2.3-0.2
		C162.9,177.1,162.9,177.2,162.9,177.3z"/>
	<path class="st0" d="M155.1,177.2c0.1-0.4,0.4-0.7,0.8-0.8C156,176.9,155.7,177.3,155.1,177.2z"/>
	<path class="st0" d="M153.7,125.2c0.5-0.3,0.8-0.6,1.1-0.8C154.8,125,154.5,125.2,153.7,125.2z"/>
	<path class="st0" d="M144.2,160.9c-0.2,0.1-0.3,0.3-0.4,0.2c-0.1,0-0.2-0.2-0.2-0.3c0.1-0.1,0.2-0.2,0.3-0.2
		C144,160.7,144.1,160.8,144.2,160.9z"/>
	<path class="st0" d="M159.7,177.3c0.2,0,0.4,0,0.6,0C160.2,177.7,160,177.7,159.7,177.3z"/>
	<path class="st0" d="M144.4,162.4c0,0.2,0.1,0.4,0.1,0.6c-0.4-0.3-0.4-0.3-0.3-0.6C144.3,162.4,144.3,162.4,144.4,162.4z"/>
	<path class="st0" d="M172.6,141.1c0-0.1,0-0.2,0-0.3c0.1,0,0.3,0,0.4,0c0,0.1,0,0.2,0,0.3C172.9,141.1,172.7,141.1,172.6,141.1z"/>
	<path class="st0" d="M158.7,178.6c0.2,0,0.3,0.1,0.5,0.1c0,0.1,0,0.1,0,0.2c-0.2,0-0.3-0.1-0.5-0.1
		C158.7,178.8,158.7,178.7,158.7,178.6z"/>
	<path class="st0" d="M143.1,160c0.1-0.4,0.3-0.5,0.7-0.3C143.5,159.8,143.4,159.9,143.1,160z"/>
	<path class="st0" d="M179.9,153.7c0.3-1.9,0.5-3.7,0.4-5.6c0-0.2,0-0.4-0.1-0.5c0-0.4,0-0.8-0.1-1.3c0-0.4,0-0.7,0-1.1
		c0-0.9,0.1-1.9-0.2-2.8c0-0.2,0-0.4,0-0.6c0-0.1,0-0.1,0-0.2c0-0.2-0.1-0.4-0.1-0.6c0,0,0,0,0-0.1c0-0.1,0.1-0.1,0.1-0.2
		c0,0,0-0.1,0-0.1c-0.1-0.7-0.1-1.4-0.4-2c-0.1-0.3-0.3-0.6-0.1-0.9c0.1-0.1,0.1-0.3,0-0.5c-0.2-0.5-0.1-1-0.5-1.4
		c-0.1-0.1-0.1-0.4-0.1-0.6c0-0.2,0-0.3,0-0.5c-0.4-1.5-0.6-3.1-1.4-4.5c-0.4-0.6-0.5-1.3-0.9-2c-0.3-0.4-0.4-1-0.8-1.3
		c-0.1,0-0.1-0.1-0.1-0.2c0-0.6-0.5-0.9-0.9-1.2c-0.4-0.3-0.9-0.5-1.4-0.8c-0.8-0.5-1.6-1.1-2.6-1.2c-0.5-0.1-1-0.2-1.4-0.5
		c-0.4-0.2-0.8-0.4-1.3-0.2c-0.2,0.1-0.6,0-0.9-0.1c-0.2,0-0.5-0.1-0.7-0.2c-1.9-0.3-3.8-0.6-5.7-0.5c-0.4,0-0.9-0.1-1.2,0.1
		c-0.5,0.2-0.8,0.1-1,0c-0.6,0.2-1.1,0.4-1.6,0.4c-0.7,0-1.3-0.1-2,0.1c0,0-0.1,0-0.1,0.1c0.1,0.1,0.1,0.2,0.2,0.3
		c-0.7,0.2-1.3,0.5-1.8,0.9c-0.2,0.2-0.5,0.3-0.6,0.3c-0.5-0.2-0.8,0.2-1.2,0.4c-0.4,0.2-0.9,0.6-1,1.1c-0.2,0.5-0.4,0.8-0.9,1
		c-0.3,0.1-0.5,0.3-0.5,0.6c0,0.5-0.2,0.8-0.5,1.1c-0.2,0.2-0.3,0.4-0.4,0.7c-0.1,0.4-0.2,0.7-0.4,1.1c-0.2,0.3-0.4,0.6-0.5,0.9
		c-0.1,0.2-0.2,0.4-0.3,0.7c-0.3-0.2-0.6-0.3-0.8-0.4c-0.5-0.1-0.7-0.3-0.6-1c-0.2,0.2-0.2,0.3-0.3,0.4c-0.2,0.4-0.5,0.6-1,0.5
		c-0.2-0.1-0.5,0-0.8,0.1c0,0.3,0,0.5,0,0.7c0,0.5,0,1.1-0.1,1.6c0,0.4-0.2,0.7-0.3,1c-0.2,1.2-0.5,2.4-0.7,3.6
		c-0.2,0.8-0.4,1.7-0.5,2.5c-0.2,1.5-0.3,3-0.5,4.6c-0.1,0.5-0.1,1-0.3,1.4c-0.1,0.2,0,0.6-0.1,0.9c-0.1,0.4,0,0.9-0.2,1.3
		c-0.2,0.4-0.4,1.1-0.2,1.5c0.2,0.4,0,0.5-0.2,0.8c0.2,0.1,0.3,0.1,0.4,0.1c-0.3,0.6-0.5,1.1-0.7,1.6c0.1,0.2,0.2,0.3,0.2,0.5
		c0.1,0.5,0.1,0.9,0.2,1.4c0.2,0.6,0.3,1.2-0.3,1.8c0.1,0.1,0.1,0.2,0.2,0.2c0.4,0.1,0.4,0.3,0.2,0.6c-0.1,0.1-0.1,0.4-0.1,0.5
		c0.1,0.2,0.2,0.4,0.3,0.7c-0.3,0.1-0.6,0.2-0.7,0.2c0.1,0.3,0.3,0.6,0.4,0.9c0.2,0.7,0.4,1.4,0.6,2.1c0,0.2,0.2,0.3,0.2,0.4
		c0.3-0.1,0.5-0.2,0.7-0.3c0,0.5-0.5,0.5-0.6,0.8c0.2,0.6,0.7,1.2,0.4,1.9c0.4,0,0.7-0.2,1,0.2c0.2,0.4-0.1,0.6-0.4,0.8
		c0.1,0.3,0.1,0.5,0.2,0.7l0.1,0c0-0.2,0-0.4,0.1-0.6c0,0,0.1,0,0.1,0c0.1,0.3,0.4,0.7,0.4,1c0,0.2-0.5,0.4-0.8,0.6
		c0,0,0.1,0.3,0.1,0.3c0.4-0.1,0.6,0.3,0.8,0.4c0.2-0.1,0.4-0.3,0.7-0.5c-0.1,0.6,0,0.9,0.3,1.3c0.3,0.4,0.5,0.8,0.7,1.2
		c0,0.1,0,0.1,0,0.2c0.1,0.5,0.1,1,0.6,1.4c0.2,0.1,0.2,0.3,0.4,0.6l-0.6,0c0.2,0.4,0.4,0.7,0.6,1.1c0.2,0,0.4,0.1,0.5,0.1
		c0.3,0.6,0.5,1.1,0.8,1.7c-0.5,0.1-0.5,0.1-0.8-0.2c0.2,0.4,0.4,0.9,0.7,1.4c0.1-0.4,0.1-0.7,0.1-0.9c0.4-0.2,0.5,0,0.7,0.2
		c0.5,0.4,0.7,1,1.4,1c0,0.7,0.5,0.9,1,0.9c0.2,0.4,0.3,0.7,0.4,1c-0.3-0.1-0.4-0.2-0.6-0.3c-0.1,0.2-0.2,0.4-0.4,0.7
		c0.2,0,0.4,0,0.5,0c0.3,0,0.6-0.1,0.9-0.2c0.3,0,0.5,0.1,0.4,0.4c0,0.4,0.2,0.6,0.5,0.7c0.1,0.1,0.3,0.2,0.4,0.3
		c0.4,0.5,0.9,0.7,1.5,0.6c0.4,0,0.6,0,0.7,0.3c0.4,0,0.7-0.1,0.9,0c0.9,0.2,1.9,0.2,2.8,0.6c0.1,0,0.1,0,0.2,0c0.6,0,1.1,0,1.7-0.1
		c0.9,0,1.7,0,2.5-0.3c0.9-0.3,1.8-0.5,2.5-1.1c0.2-0.2,0.4-0.3,0.6-0.4c0.3,0,0.5,0.2,0.7,0.1c0.3-0.1,0.6-0.3,0.9-0.5
		c0.3-0.2,0.5-0.3,0.8-0.5c0.1-0.2,0.2-0.4,0.3-0.6c0.5-0.4,1-0.9,1.5-1.3c0,0.4,0,0.9,0,1.4c0.6,0.1,0.9-0.3,1.3-0.5
		c0.8-0.5,1.4-1.2,1.8-2c0.1-0.1,0.1-0.3,0.2-0.4c0.3-0.5,0.6-1,0.8-1.5c0.1-0.2-0.1-0.4-0.1-0.6c0,0,0-0.1,0-0.2
		c0.1-0.1,0.3-0.2,0.4-0.3c0.1,0.1,0.1,0.2,0.2,0.3c0.1-0.1,0.1-0.2,0.1-0.2c-0.2-0.6,0.2-1.1,0.5-1.6c0.6-0.8,1.4-1.6,1.3-2.7
		c0,0,0,0,0-0.1c0.4-0.9,0.7-1.8,1-2.8c0-0.1,0-0.2,0-0.3c0-0.2,0.1-0.4,0.1-0.5c0-0.1,0-0.1,0.1-0.2c0.1-0.1,0.1-0.2,0.2-0.3
		c0.7-1.5,0.9-3.2,1.1-4.8c0.3-1.9,0.5-3.7,0.7-5.6C179.9,154,179.9,153.9,179.9,153.7C179.9,153.7,179.9,153.7,179.9,153.7z
		 M140.5,152.3c0,0-0.1,0-0.1,0c0-0.1,0.1-0.2,0.1-0.3c0.1,0,0.1,0,0.2,0.1C140.6,152.1,140.6,152.2,140.5,152.3z M140.6,160
		c0.1-0.4,0.3-0.5,0.7-0.3C141,159.8,140.9,159.9,140.6,160z M141.3,161.2c-0.1,0-0.2-0.2-0.2-0.3c0.1-0.1,0.2-0.2,0.3-0.2
		c0.1,0,0.2,0.1,0.3,0.3C141.5,161,141.4,161.2,141.3,161.2z M141.7,162.5c0.1,0,0.1,0,0.2,0c0,0.2,0.1,0.4,0.1,0.6
		C141.6,162.8,141.6,162.8,141.7,162.5z M152.3,124.4c0,0.6-0.3,0.8-1.1,0.8C151.6,124.9,151.9,124.6,152.3,124.4z M149.3,173.7
		c0.3-0.4,0.5-0.3,0.8,0L149.3,173.7z M151.5,175.2c-0.1-0.1-0.2-0.1-0.3-0.2c0.1-0.1,0.1-0.1,0.2-0.2
		C151.4,174.9,151.5,175,151.5,175.2C151.6,175.1,151.5,175.2,151.5,175.2z M152.6,177.2c0.1-0.4,0.4-0.7,0.8-0.8
		C153.5,176.9,153.2,177.3,152.6,177.2z M156.7,178.9c-0.2,0-0.3-0.1-0.5-0.1c0-0.1,0-0.2,0.1-0.2c0.2,0,0.3,0.1,0.5,0.1
		C156.7,178.8,156.7,178.9,156.7,178.9z M156.6,177.5c0,0-0.1-0.1-0.1-0.1c0-0.1,0.1-0.2,0.1-0.3c0.1,0,0.1,0,0.2,0.1
		c0,0.1,0.1,0.1,0.1,0.2C156.8,177.4,156.7,177.5,156.6,177.5z M157.2,177.3c0.2,0,0.4,0,0.6,0C157.7,177.7,157.5,177.7,157.2,177.3
		z M158.6,177.6c-0.2,0-0.4-0.1-0.5-0.4c0.8-0.1,1.5-0.1,2.3-0.2c0,0.1,0,0.1,0,0.2C159.8,177.6,159.2,177.6,158.6,177.6z
		 M171,151.8c-0.4,0.6-0.4,1.2-0.6,1.8c0,0,0,0.1,0,0.1c-0.6,0.8-0.4,1.7-0.6,2.6c-0.2,0.8-0.3,1.6-0.4,2.4c0,0.2-0.3,0.3-0.5,0.5
		c0,0.2,0,0.5,0,0.7c0,0.1-0.1,0.2,0,0.2c0.4,0.7,0,1.2-0.2,1.8c-0.2,0.4-0.1,0.9-0.6,1.1c0,0,0,0.1,0,0.1c0,0.4,0.1,0.8-0.1,1.1
		c-0.1,0.2-0.6,0.3-1,0.5c0,0-0.2-0.1-0.3-0.2c-0.1,0.4-0.3,0.8,0.2,1.2c-0.3,0.4-0.4,0.8-0.2,1.2c0.2,0.5-0.2,1-0.8,1.1
		c0.1,0.1,0.2,0.2,0.2,0.4c0,0.1,0,0.4,0,0.4c-0.6,0-0.7,1-1.5,0.6c0,0.3,0.1,0.6,0.1,0.8c-0.7,0.5-0.8,1.3-1.3,1.9
		c-1-0.3-0.9-0.2-1,0.4c-0.4,0.3-0.7,0.4-1,0.7c-0.8,0.7-1.7,1-2.7,1.1c-0.5,0.1-1.1-0.1-1.6-0.3c-0.3-0.1-0.5-0.4-0.6-0.7
		c-0.6-1-1.6-1.6-2.3-2.5c-0.1-0.2-0.3-0.2-0.6-0.4c-0.3,0.7,0,1.2,0.2,1.7c0.2,0.5,0.4,1,0.7,1.6c-0.6,0-0.8-0.4-1.2-0.7
		c-0.1-0.1-0.2-0.3-0.4-0.4c-0.4-0.1-0.5-0.5-0.6-0.8c-0.1-0.5-0.4-0.8-0.9-0.9c-0.2-0.1-0.3-0.2-0.5-0.2c0.4-0.5,0.1-0.9,0-1.3
		c-0.1-0.2-0.3-0.3-0.4-0.5c-0.1-0.1-0.3-0.2-0.3-0.4c-0.3-0.6-0.7-1.2-0.9-1.8c-0.2-0.5-0.3-1-0.5-1.5c-0.3,0-0.5-0.1-0.6-0.5
		c-0.1-0.4-0.5-0.7-0.6-1.1c-0.2-0.7-0.4-1.2-0.9-1.7c-0.2-0.2-0.2-0.8-0.1-1.1c0.1-0.6-0.1-1.1-0.3-1.5c0-0.1-0.1-0.2-0.1-0.3
		c0.4-0.4,0.7-0.8,0.6-1.4c0-0.1,0-0.2,0.1-0.3c0.4-0.4,0.2-0.8,0-1.3c-0.2,0.3-0.3,0.5-0.5,0.7c-0.1-0.1-0.1-0.2-0.2-0.4
		c-0.2,0.2-0.5,0.3-0.8,0.5c0.1-0.5,0.2-1,0.1-1.4c-0.1-0.5,0.2-0.8,0.2-1.3c-0.1-0.4,0.1-0.9,0.2-1.4c0.3-0.2,0.7-0.4,0.7-0.9
		c-0.3,0.2-0.5,0.4-0.8,0.6c0.1-0.6,0.3-1,0.6-1.5c0.3-0.4,0.3-1,0.5-1.5c-0.4,0-0.6,0-1-0.1c0.4-0.3,0.7-0.5,1-0.7
		c0-0.7,0-1.3,0.1-1.9c0.1-0.6,0.2-1.1,0.3-1.7c0.1-0.4,0.2-0.9-0.2-1.2c0,0,0-0.1,0-0.2c-0.2,0-0.4,0-0.7,0
		c0.1-0.3,0.1-0.5,0.3-0.7c0.1-0.1,0.4-0.1,0.6-0.2c-0.1-0.2-0.1-0.4-0.2-0.6c0.4-0.4,0.6-0.9,0.5-1.5c-0.1-0.8,0-1.4,0.5-2.1
		c0.5-0.8,1-1.7,1.4-2.6c0.1-0.2,0.3-0.4,0.5-0.6c0.2-0.2,0.3-0.4,0.4-0.7c0.3,0,0.6,0,0.9,0c0.4,0.1,0.7-0.1,0.9-0.4
		c0.7-0.8,1.4-1.7,2.2-2.4c0.6-0.5,0.9-1.2,1.2-1.9c0-0.1,0.1-0.2,0.1-0.2c0.5-0.1,0.8-0.5,1.1-0.8c0.5-0.4,1-0.5,1.6-0.6
		c0.2-0.1,0.5-0.1,0.7-0.1c0.1,0,0.3,0,0.4,0c0.6-0.6,1.4-0.3,2.1-0.4c0.3-0.1,0.7-0.1,1,0.3c0.2,0.2,0.6,0.3,0.9,0.3
		c0.7,0.1,1.5,0.2,2.1,0.7c0.2,0.2,0.4,0.3,0.4,0.5c0,0.2,0.2,0.4,0.3,0.5c0.2,0.2,0.3,0.2,0.3,0.6c0,0.2,0.3,0.5,0.5,0.7
		c0.7-0.5,0.9,0.4,1.4,0.4c-0.5,0.7-0.1,1.4-0.3,2.1c0,0.1,0.2,0.2,0.4,0.3c-0.1,0.1-0.1,0.2-0.2,0.4c0.1,0,0.3,0.1,0.4,0.1
		c-0.3,0.8,0.4,1.2,0.7,1.7c0.2,0.3,0.4,0.5,0.2,0.9c0,0.1-0.1,0.2,0,0.3c0.2,0.4,0.5,0.8,0.7,1.2c0.1,0.1,0.1,0.3,0.1,0.4
		c0,0-0.1,0.1-0.1,0.1c-0.2-0.2-0.4-0.3-0.6-0.5c-0.2,0.3,0,0.4,0.1,0.5c0.3,0.5,0.7,0.9,0.5,1.5c0.1,0,0.3,0,0.4,0
		c0,0.1,0,0.2,0,0.3c-0.1,0-0.3,0-0.4,0c0,0.4-0.1,0.7-0.1,1.1c0.4,0,0.7,0.2,0.7,0.7c0,0.1,0.2,0.3,0.2,0.4
		c0.1,0.2,0.1,0.4,0.1,0.5c-0.1,0-0.1,0.1-0.2,0.1c-0.3-0.2-0.6-0.3-0.9-0.5c0,0,0,0.1-0.1,0.1c0.1,0.1,0.3,0.3,0.4,0.4
		c-0.1,0.2-0.2,0.4-0.3,0.6l0.9,0c0,0.4-0.2,0.5-0.6,0.6c0.3,0.3,0.6,0.6,0.9,0.9c-0.2,0.1-0.4,0.1-0.5,0.1c0.2,0.2,0.1,0.4,0.1,0.6
		c0,0.4,0.1,0.9,0.2,1.3c0.3,1,0.3,1.9,0.3,2.9C171.2,151.2,171.2,151.6,171,151.8z"/>
	<path class="st0" d="M152.6,173.8c-0.3,0-0.5,0-0.8,0C152.1,173.4,152.3,173.4,152.6,173.8z"/>
	<path class="st0" d="M153.8,174.8c0.1,0.1,0.2,0.2,0.3,0.3c0,0-0.1,0.1-0.1,0.1c-0.1-0.1-0.2-0.1-0.3-0.2
		C153.7,174.9,153.8,174.8,153.8,174.8z"/>
	<path class="st0" d="M159.3,177.2c0,0.1,0.1,0.1,0.1,0.2c0,0.1-0.1,0.1-0.2,0.1c0,0-0.1-0.1-0.1-0.1c0-0.1,0.1-0.2,0.1-0.3
		C159.2,177.1,159.2,177.2,159.3,177.2z"/>
	<path class="st0" d="M143,152.3c0-0.1,0.1-0.2,0.1-0.3c0.1,0,0.1,0,0.2,0.1c-0.1,0.1-0.1,0.2-0.2,0.3
		C143,152.3,143,152.3,143,152.3z"/>
	<path class="st0" d="M147.1,102.7"/>
	<path class="st0" d="M146.6,101.2c0.5-0.3,0.6,0.9,1.2,0.1c0,0.1,0,0.2,0,0.2"/>
	<path class="st0" d="M68.7,102.5c0,0.1,0,0.3-0.1,0.3c-0.1,0.1-0.2,0.1-0.3,0.2c0,0-0.1-0.1-0.1-0.1c0-0.1,0.1-0.3,0.2-0.4
		c0.1-0.1,0.2-0.1,0.3-0.2C68.6,102.5,68.6,102.5,68.7,102.5z"/>
	<path class="st0" d="M77.2,207.6c0.3-0.2,0.5-0.3,0.7-0.5C77.9,207.6,77.9,207.6,77.2,207.6z"/>
	<path class="st0" d="M84.1,201.4c0.1,0.5,0.1,0.5-0.6,1C83.8,202,84,201.7,84.1,201.4C84.1,201.4,84.1,201.4,84.1,201.4z"/>
	<path class="st0" d="M82.6,202.9c-0.1,0.1-0.2,0.2-0.3,0.3c0,0-0.1-0.1-0.1-0.1c0.1-0.1,0.2-0.3,0.3-0.4
		C82.5,202.8,82.5,202.9,82.6,202.9z"/>
	<path class="st0" d="M69.2,176.2c0.5,0.2,0,0.3-0.2,0.5C69.1,176.5,69.2,176.3,69.2,176.2C69.2,176.1,69.2,176.2,69.2,176.2z"/>
	<path class="st0" d="M68.4,210.7c0,0.2,0,0.3,0,0.5c0,0.1-0.1,0.1-0.2,0.2c-0.1-0.1-0.2-0.2-0.2-0.3c0.1-0.2,0.2-0.3,0.3-0.5
		C68.3,210.7,68.4,210.7,68.4,210.7z"/>
	<path class="st0" d="M70.3,211.4c-0.1,0.1-0.3,0.2-0.6,0.4c0.1-0.3,0.1-0.5,0.1-0.7c0.2-0.1,0.4-0.1,0.8-0.2
		C70.5,211.1,70.4,211.3,70.3,211.4C70.3,211.4,70.3,211.4,70.3,211.4z"/>
	<path class="st0" d="M90.1,133c-0.1-0.3-0.2-0.6-0.3-0.9C90.3,132.3,90.2,132.7,90.1,133C90.1,133,90.1,133,90.1,133z"/>
	<path class="st0" d="M89.7,131c-0.1,0.1-0.2,0.1-0.3,0.2c0-0.1-0.1-0.1-0.1-0.2c0.1,0,0.2-0.1,0.3-0.1
		C89.7,130.9,89.7,131,89.7,131z"/>
	<path class="st0" d="M123.3,147c0-0.2-0.1-0.4-0.1-0.6c0.1,0,0.1,0,0.2,0C123.5,146.5,123.7,146.7,123.3,147z"/>
	<path class="st0" d="M121.1,140.2c0-0.2,0-0.3,0-0.5C121.3,140,121.3,140,121.1,140.2z"/>
	<path class="st0" d="M95.1,42.5c0.2,0.1,0.3,0.2,0.5,0.3c-0.2,0.1-0.3,0.1-0.5,0.2C95,42.9,95,42.8,95.1,42.5z"/>
	<path class="st0" d="M120.2,86.8c-0.3,0.3-0.5,0.6-1,0.6C119.4,87,119.6,86.9,120.2,86.8z"/>
	<path class="st0" d="M125.4,86.1c-0.2,0.1-0.4,0.2-0.7,0.3C124.9,86.1,124.9,86.1,125.4,86.1z"/>
	<path class="st0" d="M133,52.6c-0.3,0.1-0.6,0.3-0.8,0.4c0,0,0-0.1-0.1-0.1C132.4,52.6,132.6,52.3,133,52.6
		C133,52.6,133,52.6,133,52.6z"/>
	<path class="st0" d="M120.9,90.1c-0.1-0.3-0.1-0.4-0.2-0.7C121.1,89.6,121.1,89.8,120.9,90.1z"/>
	<path class="st0" d="M121.5,86.6c0-0.1,0-0.2-0.1-0.3c0,0,0.1,0,0.1,0C121.5,86.3,121.5,86.5,121.5,86.6
		C121.5,86.6,121.5,86.6,121.5,86.6z"/>
	<path class="st0" d="M169.7,163.9c0-0.1,0.1-0.2,0.1-0.3c0.1,0,0.2,0.1,0.2,0.1c0,0.1-0.1,0.2-0.1,0.3
		C169.8,164,169.7,163.9,169.7,163.9z"/>
</g>
</svg>
